<svg version="1.1" xmlns="http://www.w3.org/2000/svg" xmlns:xlink="http://www.w3.org/1999/xlink" width="1138.787109375" height="468"><defs/><g><text fill="#eeeeee" stroke="none" font-family="Arial" font-size="24px" font-style="normal" font-weight="normal" text-decoration="none" x="0" y="0">UNREGISTERED</text><text fill="#eeeeee" stroke="none" font-family="Arial" font-size="24px" font-style="normal" font-weight="normal" text-decoration="none" x="0" y="30">UNREGISTERED</text><text fill="#eeeeee" stroke="none" font-family="Arial" font-size="24px" font-style="normal" font-weight="normal" text-decoration="none" x="0" y="60">UNREGISTERED</text><text fill="#eeeeee" stroke="none" font-family="Arial" font-size="24px" font-style="normal" font-weight="normal" text-decoration="none" x="0" y="90">UNREGISTERED</text><text fill="#eeeeee" stroke="none" font-family="Arial" font-size="24px" font-style="normal" font-weight="normal" text-decoration="none" x="0" y="120">UNREGISTERED</text><text fill="#eeeeee" stroke="none" font-family="Arial" font-size="24px" font-style="normal" font-weight="normal" text-decoration="none" x="0" y="150">UNREGISTERED</text><text fill="#eeeeee" stroke="none" font-family="Arial" font-size="24px" font-style="normal" font-weight="normal" text-decoration="none" x="0" y="180">UNREGISTERED</text><text fill="#eeeeee" stroke="none" font-family="Arial" font-size="24px" font-style="normal" font-weight="normal" text-decoration="none" x="0" y="210">UNREGISTERED</text><text fill="#eeeeee" stroke="none" font-family="Arial" font-size="24px" font-style="normal" font-weight="normal" text-decoration="none" x="0" y="240">UNREGISTERED</text><text fill="#eeeeee" stroke="none" font-family="Arial" font-size="24px" font-style="normal" font-weight="normal" text-decoration="none" x="0" y="270">UNREGISTERED</text><text fill="#eeeeee" stroke="none" font-family="Arial" font-size="24px" font-style="normal" font-weight="normal" text-decoration="none" x="0" y="300">UNREGISTERED</text><text fill="#eeeeee" stroke="none" font-family="Arial" font-size="24px" font-style="normal" font-weight="normal" text-decoration="none" x="0" y="330">UNREGISTERED</text><text fill="#eeeeee" stroke="none" font-family="Arial" font-size="24px" font-style="normal" font-weight="normal" text-decoration="none" x="0" y="360">UNREGISTERED</text><text fill="#eeeeee" stroke="none" font-family="Arial" font-size="24px" font-style="normal" font-weight="normal" text-decoration="none" x="0" y="390">UNREGISTERED</text><text fill="#eeeeee" stroke="none" font-family="Arial" font-size="24px" font-style="normal" font-weight="normal" text-decoration="none" x="0" y="420">UNREGISTERED</text><text fill="#eeeeee" stroke="none" font-family="Arial" font-size="24px" font-style="normal" font-weight="normal" text-decoration="none" x="0" y="450">UNREGISTERED</text><text fill="#eeeeee" stroke="none" font-family="Arial" font-size="24px" font-style="normal" font-weight="normal" text-decoration="none" x="200" y="0">UNREGISTERED</text><text fill="#eeeeee" stroke="none" font-family="Arial" font-size="24px" font-style="normal" font-weight="normal" text-decoration="none" x="200" y="30">UNREGISTERED</text><text fill="#eeeeee" stroke="none" font-family="Arial" font-size="24px" font-style="normal" font-weight="normal" text-decoration="none" x="200" y="60">UNREGISTERED</text><text fill="#eeeeee" stroke="none" font-family="Arial" font-size="24px" font-style="normal" font-weight="normal" text-decoration="none" x="200" y="90">UNREGISTERED</text><text fill="#eeeeee" stroke="none" font-family="Arial" font-size="24px" font-style="normal" font-weight="normal" text-decoration="none" x="200" y="120">UNREGISTERED</text><text fill="#eeeeee" stroke="none" font-family="Arial" font-size="24px" font-style="normal" font-weight="normal" text-decoration="none" x="200" y="150">UNREGISTERED</text><text fill="#eeeeee" stroke="none" font-family="Arial" font-size="24px" font-style="normal" font-weight="normal" text-decoration="none" x="200" y="180">UNREGISTERED</text><text fill="#eeeeee" stroke="none" font-family="Arial" font-size="24px" font-style="normal" font-weight="normal" text-decoration="none" x="200" y="210">UNREGISTERED</text><text fill="#eeeeee" stroke="none" font-family="Arial" font-size="24px" font-style="normal" font-weight="normal" text-decoration="none" x="200" y="240">UNREGISTERED</text><text fill="#eeeeee" stroke="none" font-family="Arial" font-size="24px" font-style="normal" font-weight="normal" text-decoration="none" x="200" y="270">UNREGISTERED</text><text fill="#eeeeee" stroke="none" font-family="Arial" font-size="24px" font-style="normal" font-weight="normal" text-decoration="none" x="200" y="300">UNREGISTERED</text><text fill="#eeeeee" stroke="none" font-family="Arial" font-size="24px" font-style="normal" font-weight="normal" text-decoration="none" x="200" y="330">UNREGISTERED</text><text fill="#eeeeee" stroke="none" font-family="Arial" font-size="24px" font-style="normal" font-weight="normal" text-decoration="none" x="200" y="360">UNREGISTERED</text><text fill="#eeeeee" stroke="none" font-family="Arial" font-size="24px" font-style="normal" font-weight="normal" text-decoration="none" x="200" y="390">UNREGISTERED</text><text fill="#eeeeee" stroke="none" font-family="Arial" font-size="24px" font-style="normal" font-weight="normal" text-decoration="none" x="200" y="420">UNREGISTERED</text><text fill="#eeeeee" stroke="none" font-family="Arial" font-size="24px" font-style="normal" font-weight="normal" text-decoration="none" x="200" y="450">UNREGISTERED</text><text fill="#eeeeee" stroke="none" font-family="Arial" font-size="24px" font-style="normal" font-weight="normal" text-decoration="none" x="400" y="0">UNREGISTERED</text><text fill="#eeeeee" stroke="none" font-family="Arial" font-size="24px" font-style="normal" font-weight="normal" text-decoration="none" x="400" y="30">UNREGISTERED</text><text fill="#eeeeee" stroke="none" font-family="Arial" font-size="24px" font-style="normal" font-weight="normal" text-decoration="none" x="400" y="60">UNREGISTERED</text><text fill="#eeeeee" stroke="none" font-family="Arial" font-size="24px" font-style="normal" font-weight="normal" text-decoration="none" x="400" y="90">UNREGISTERED</text><text fill="#eeeeee" stroke="none" font-family="Arial" font-size="24px" font-style="normal" font-weight="normal" text-decoration="none" x="400" y="120">UNREGISTERED</text><text fill="#eeeeee" stroke="none" font-family="Arial" font-size="24px" font-style="normal" font-weight="normal" text-decoration="none" x="400" y="150">UNREGISTERED</text><text fill="#eeeeee" stroke="none" font-family="Arial" font-size="24px" font-style="normal" font-weight="normal" text-decoration="none" x="400" y="180">UNREGISTERED</text><text fill="#eeeeee" stroke="none" font-family="Arial" font-size="24px" font-style="normal" font-weight="normal" text-decoration="none" x="400" y="210">UNREGISTERED</text><text fill="#eeeeee" stroke="none" font-family="Arial" font-size="24px" font-style="normal" font-weight="normal" text-decoration="none" x="400" y="240">UNREGISTERED</text><text fill="#eeeeee" stroke="none" font-family="Arial" font-size="24px" font-style="normal" font-weight="normal" text-decoration="none" x="400" y="270">UNREGISTERED</text><text fill="#eeeeee" stroke="none" font-family="Arial" font-size="24px" font-style="normal" font-weight="normal" text-decoration="none" x="400" y="300">UNREGISTERED</text><text fill="#eeeeee" stroke="none" font-family="Arial" font-size="24px" font-style="normal" font-weight="normal" text-decoration="none" x="400" y="330">UNREGISTERED</text><text fill="#eeeeee" stroke="none" font-family="Arial" font-size="24px" font-style="normal" font-weight="normal" text-decoration="none" x="400" y="360">UNREGISTERED</text><text fill="#eeeeee" stroke="none" font-family="Arial" font-size="24px" font-style="normal" font-weight="normal" text-decoration="none" x="400" y="390">UNREGISTERED</text><text fill="#eeeeee" stroke="none" font-family="Arial" font-size="24px" font-style="normal" font-weight="normal" text-decoration="none" x="400" y="420">UNREGISTERED</text><text fill="#eeeeee" stroke="none" font-family="Arial" font-size="24px" font-style="normal" font-weight="normal" text-decoration="none" x="400" y="450">UNREGISTERED</text><text fill="#eeeeee" stroke="none" font-family="Arial" font-size="24px" font-style="normal" font-weight="normal" text-decoration="none" x="600" y="0">UNREGISTERED</text><text fill="#eeeeee" stroke="none" font-family="Arial" font-size="24px" font-style="normal" font-weight="normal" text-decoration="none" x="600" y="30">UNREGISTERED</text><text fill="#eeeeee" stroke="none" font-family="Arial" font-size="24px" font-style="normal" font-weight="normal" text-decoration="none" x="600" y="60">UNREGISTERED</text><text fill="#eeeeee" stroke="none" font-family="Arial" font-size="24px" font-style="normal" font-weight="normal" text-decoration="none" x="600" y="90">UNREGISTERED</text><text fill="#eeeeee" stroke="none" font-family="Arial" font-size="24px" font-style="normal" font-weight="normal" text-decoration="none" x="600" y="120">UNREGISTERED</text><text fill="#eeeeee" stroke="none" font-family="Arial" font-size="24px" font-style="normal" font-weight="normal" text-decoration="none" x="600" y="150">UNREGISTERED</text><text fill="#eeeeee" stroke="none" font-family="Arial" font-size="24px" font-style="normal" font-weight="normal" text-decoration="none" x="600" y="180">UNREGISTERED</text><text fill="#eeeeee" stroke="none" font-family="Arial" font-size="24px" font-style="normal" font-weight="normal" text-decoration="none" x="600" y="210">UNREGISTERED</text><text fill="#eeeeee" stroke="none" font-family="Arial" font-size="24px" font-style="normal" font-weight="normal" text-decoration="none" x="600" y="240">UNREGISTERED</text><text fill="#eeeeee" stroke="none" font-family="Arial" font-size="24px" font-style="normal" font-weight="normal" text-decoration="none" x="600" y="270">UNREGISTERED</text><text fill="#eeeeee" stroke="none" font-family="Arial" font-size="24px" font-style="normal" font-weight="normal" text-decoration="none" x="600" y="300">UNREGISTERED</text><text fill="#eeeeee" stroke="none" font-family="Arial" font-size="24px" font-style="normal" font-weight="normal" text-decoration="none" x="600" y="330">UNREGISTERED</text><text fill="#eeeeee" stroke="none" font-family="Arial" font-size="24px" font-style="normal" font-weight="normal" text-decoration="none" x="600" y="360">UNREGISTERED</text><text fill="#eeeeee" stroke="none" font-family="Arial" font-size="24px" font-style="normal" font-weight="normal" text-decoration="none" x="600" y="390">UNREGISTERED</text><text fill="#eeeeee" stroke="none" font-family="Arial" font-size="24px" font-style="normal" font-weight="normal" text-decoration="none" x="600" y="420">UNREGISTERED</text><text fill="#eeeeee" stroke="none" font-family="Arial" font-size="24px" font-style="normal" font-weight="normal" text-decoration="none" x="600" y="450">UNREGISTERED</text><text fill="#eeeeee" stroke="none" font-family="Arial" font-size="24px" font-style="normal" font-weight="normal" text-decoration="none" x="800" y="0">UNREGISTERED</text><text fill="#eeeeee" stroke="none" font-family="Arial" font-size="24px" font-style="normal" font-weight="normal" text-decoration="none" x="800" y="30">UNREGISTERED</text><text fill="#eeeeee" stroke="none" font-family="Arial" font-size="24px" font-style="normal" font-weight="normal" text-decoration="none" x="800" y="60">UNREGISTERED</text><text fill="#eeeeee" stroke="none" font-family="Arial" font-size="24px" font-style="normal" font-weight="normal" text-decoration="none" x="800" y="90">UNREGISTERED</text><text fill="#eeeeee" stroke="none" font-family="Arial" font-size="24px" font-style="normal" font-weight="normal" text-decoration="none" x="800" y="120">UNREGISTERED</text><text fill="#eeeeee" stroke="none" font-family="Arial" font-size="24px" font-style="normal" font-weight="normal" text-decoration="none" x="800" y="150">UNREGISTERED</text><text fill="#eeeeee" stroke="none" font-family="Arial" font-size="24px" font-style="normal" font-weight="normal" text-decoration="none" x="800" y="180">UNREGISTERED</text><text fill="#eeeeee" stroke="none" font-family="Arial" font-size="24px" font-style="normal" font-weight="normal" text-decoration="none" x="800" y="210">UNREGISTERED</text><text fill="#eeeeee" stroke="none" font-family="Arial" font-size="24px" font-style="normal" font-weight="normal" text-decoration="none" x="800" y="240">UNREGISTERED</text><text fill="#eeeeee" stroke="none" font-family="Arial" font-size="24px" font-style="normal" font-weight="normal" text-decoration="none" x="800" y="270">UNREGISTERED</text><text fill="#eeeeee" stroke="none" font-family="Arial" font-size="24px" font-style="normal" font-weight="normal" text-decoration="none" x="800" y="300">UNREGISTERED</text><text fill="#eeeeee" stroke="none" font-family="Arial" font-size="24px" font-style="normal" font-weight="normal" text-decoration="none" x="800" y="330">UNREGISTERED</text><text fill="#eeeeee" stroke="none" font-family="Arial" font-size="24px" font-style="normal" font-weight="normal" text-decoration="none" x="800" y="360">UNREGISTERED</text><text fill="#eeeeee" stroke="none" font-family="Arial" font-size="24px" font-style="normal" font-weight="normal" text-decoration="none" x="800" y="390">UNREGISTERED</text><text fill="#eeeeee" stroke="none" font-family="Arial" font-size="24px" font-style="normal" font-weight="normal" text-decoration="none" x="800" y="420">UNREGISTERED</text><text fill="#eeeeee" stroke="none" font-family="Arial" font-size="24px" font-style="normal" font-weight="normal" text-decoration="none" x="800" y="450">UNREGISTERED</text><text fill="#eeeeee" stroke="none" font-family="Arial" font-size="24px" font-style="normal" font-weight="normal" text-decoration="none" x="1000" y="0">UNREGISTERED</text><text fill="#eeeeee" stroke="none" font-family="Arial" font-size="24px" font-style="normal" font-weight="normal" text-decoration="none" x="1000" y="30">UNREGISTERED</text><text fill="#eeeeee" stroke="none" font-family="Arial" font-size="24px" font-style="normal" font-weight="normal" text-decoration="none" x="1000" y="60">UNREGISTERED</text><text fill="#eeeeee" stroke="none" font-family="Arial" font-size="24px" font-style="normal" font-weight="normal" text-decoration="none" x="1000" y="90">UNREGISTERED</text><text fill="#eeeeee" stroke="none" font-family="Arial" font-size="24px" font-style="normal" font-weight="normal" text-decoration="none" x="1000" y="120">UNREGISTERED</text><text fill="#eeeeee" stroke="none" font-family="Arial" font-size="24px" font-style="normal" font-weight="normal" text-decoration="none" x="1000" y="150">UNREGISTERED</text><text fill="#eeeeee" stroke="none" font-family="Arial" font-size="24px" font-style="normal" font-weight="normal" text-decoration="none" x="1000" y="180">UNREGISTERED</text><text fill="#eeeeee" stroke="none" font-family="Arial" font-size="24px" font-style="normal" font-weight="normal" text-decoration="none" x="1000" y="210">UNREGISTERED</text><text fill="#eeeeee" stroke="none" font-family="Arial" font-size="24px" font-style="normal" font-weight="normal" text-decoration="none" x="1000" y="240">UNREGISTERED</text><text fill="#eeeeee" stroke="none" font-family="Arial" font-size="24px" font-style="normal" font-weight="normal" text-decoration="none" x="1000" y="270">UNREGISTERED</text><text fill="#eeeeee" stroke="none" font-family="Arial" font-size="24px" font-style="normal" font-weight="normal" text-decoration="none" x="1000" y="300">UNREGISTERED</text><text fill="#eeeeee" stroke="none" font-family="Arial" font-size="24px" font-style="normal" font-weight="normal" text-decoration="none" x="1000" y="330">UNREGISTERED</text><text fill="#eeeeee" stroke="none" font-family="Arial" font-size="24px" font-style="normal" font-weight="normal" text-decoration="none" x="1000" y="360">UNREGISTERED</text><text fill="#eeeeee" stroke="none" font-family="Arial" font-size="24px" font-style="normal" font-weight="normal" text-decoration="none" x="1000" y="390">UNREGISTERED</text><text fill="#eeeeee" stroke="none" font-family="Arial" font-size="24px" font-style="normal" font-weight="normal" text-decoration="none" x="1000" y="420">UNREGISTERED</text><text fill="#eeeeee" stroke="none" font-family="Arial" font-size="24px" font-style="normal" font-weight="normal" text-decoration="none" x="1000" y="450">UNREGISTERED</text><g transform="translate(-118,-230) scale(1,1)"><path fill="#C0C0C0" stroke="none" d="M 135 480.5 C 135 475.2532944 139.2532944 471 144.5 471 C 149.7467056 471 154 475.2532944 154 480.5 C 154 485.7467056 149.7467056 490 144.5 490 C 139.2532944 490 135 485.7467056 135 480.5 Z" opacity="0.2"/></g><g transform="translate(-118,-230) scale(1,1)"><path fill="#000000" stroke="none" d="M 128 473.5 C 128 468.2532944 132.2532944 464 137.5 464 C 142.7467056 464 147 468.2532944 147 473.5 C 147 478.7467056 142.7467056 483 137.5 483 C 132.2532944 483 128 478.7467056 128 473.5 Z"/></g><g transform="translate(-118,-230) scale(1,1)"><path fill="#C0C0C0" stroke="none" d="M 353 447 L 496.60986328125 447 Q 506.60986328125 447 506.60986328125 457 L 506.60986328125 500 Q 506.60986328125 510 496.60986328125 510 L 353 510 Q 343 510 343 500 L 343 457 Q 343 447 353 447 Z" opacity="0.2"/></g><g transform="translate(-118,-230) scale(1,1)"><path fill="#ffffff" stroke="none" d="M 346 440 L 489.60986328125 440 Q 499.60986328125 440 499.60986328125 450 L 499.60986328125 493 Q 499.60986328125 503 489.60986328125 503 L 346 503 Q 336 503 336 493 L 336 450 Q 336 440 346 440 Z"/></g><g transform="translate(-118,-230) scale(1,1)"><path fill="none" stroke="#000000" d="M 346 440 L 489.60986328125 440 Q 499.60986328125 440 499.60986328125 450 L 499.60986328125 493 Q 499.60986328125 503 489.60986328125 503 L 346 503 Q 336 503 336 493 L 336 450 Q 336 440 346 440 Z" stroke-miterlimit="10"/></g><g transform="translate(-118,-230) scale(1,1)"><g><path fill="none" stroke="none"/><text fill="#000000" stroke="none" font-family="Arial" font-size="13px" font-style="normal" font-weight="bold" text-decoration="none" x="340.5" y="458">Página inicial de cotação</text></g></g><g transform="translate(-118,-230) scale(1,1)"><path fill="none" stroke="#000000" d="M 148 473 L 335 472" stroke-miterlimit="10"/></g><g transform="translate(-118,-230) scale(1,1)"><path fill="none" stroke="#000000" d="M 324.85998091730994 476.2638026458411 L 335 472 L 324.8149599807535 467.84488750978426" stroke-miterlimit="10"/></g><g transform="translate(-118,-230) scale(1,1)"><g><path fill="none" stroke="none"/><text fill="#000000" stroke="none" font-family="Arial" font-size="13px" font-style="normal" font-weight="normal" text-decoration="none" x="172.5" y="462">Usuário solicita cotação</text></g></g><g transform="translate(-118,-230) scale(1,1)"><path fill="#C0C0C0" stroke="none" d="M 673 447 L 860.44677734375 447 Q 870.44677734375 447 870.44677734375 457 L 870.44677734375 501 Q 870.44677734375 511 860.44677734375 511 L 673 511 Q 663 511 663 501 L 663 457 Q 663 447 673 447 Z" opacity="0.2"/></g><g transform="translate(-118,-230) scale(1,1)"><path fill="#ffffff" stroke="none" d="M 666 440 L 853.44677734375 440 Q 863.44677734375 440 863.44677734375 450 L 863.44677734375 494 Q 863.44677734375 504 853.44677734375 504 L 666 504 Q 656 504 656 494 L 656 450 Q 656 440 666 440 Z"/></g><g transform="translate(-118,-230) scale(1,1)"><path fill="none" stroke="#000000" d="M 666 440 L 853.44677734375 440 Q 863.44677734375 440 863.44677734375 450 L 863.44677734375 494 Q 863.44677734375 504 853.44677734375 504 L 666 504 Q 656 504 656 494 L 656 450 Q 656 440 666 440 Z" stroke-miterlimit="10"/></g><g transform="translate(-118,-230) scale(1,1)"><g><path fill="none" stroke="none"/><text fill="#000000" stroke="none" font-family="Arial" font-size="13px" font-style="normal" font-weight="bold" text-decoration="none" x="660.5" y="458">Visualiza cotação últimos 7 dias</text></g></g><g transform="translate(-118,-230) scale(1,1)"><path fill="none" stroke="#000000" d="M 501 471 L 655 472" stroke-miterlimit="10"/></g><g transform="translate(-118,-230) scale(1,1)"><path fill="none" stroke="#000000" d="M 644.8102054387642 476.1434390064065 L 655 472 L 644.8648733479895 467.7245809857153" stroke-miterlimit="10"/></g><g transform="translate(-118,-230) scale(1,1)"><g><path fill="none" stroke="none"/><text fill="#000000" stroke="none" font-family="Arial" font-size="13px" font-style="normal" font-weight="normal" text-decoration="none" x="534.5" y="461">seleciona ação</text></g></g><g transform="translate(-118,-230) scale(1,1)"><path fill="#C0C0C0" stroke="none" d="M 1215 483.5 C 1215 476.59644 1220.59644 471 1227.5 471 C 1234.40356 471 1240 476.59644 1240 483.5 C 1240 490.40356 1234.40356 496 1227.5 496 C 1220.59644 496 1215 490.40356 1215 483.5 Z" opacity="0.2"/></g><g transform="translate(-118,-230) scale(1,1)"><path fill="none" stroke="#000000" d="M 1208 476.5 C 1208 469.59644 1213.59644 464 1220.5 464 C 1227.40356 464 1233 469.59644 1233 476.5 C 1233 483.40356 1227.40356 489 1220.5 489 C 1213.59644 489 1208 483.40356 1208 476.5 Z" stroke-miterlimit="10"/></g><g transform="translate(-118,-230) scale(1,1)"><path fill="#000000" stroke="none" d="M 1213 476.5 C 1213 472.357864 1216.357864 469 1220.5 469 C 1224.642136 469 1228 472.357864 1228 476.5 C 1228 480.642136 1224.642136 484 1220.5 484 C 1216.357864 484 1213 480.642136 1213 476.5 Z"/></g><g transform="translate(-118,-230) scale(1,1)"><path fill="#C0C0C0" stroke="none" d="M 961 247 L 1084 247 Q 1094 247 1094 257 L 1094 292 Q 1094 302 1084 302 L 961 302 Q 951 302 951 292 L 951 257 Q 951 247 961 247 Z" opacity="0.2"/></g><g transform="translate(-118,-230) scale(1,1)"><path fill="#ffffff" stroke="none" d="M 954 240 L 1077 240 Q 1087 240 1087 250 L 1087 285 Q 1087 295 1077 295 L 954 295 Q 944 295 944 285 L 944 250 Q 944 240 954 240 Z"/></g><g transform="translate(-118,-230) scale(1,1)"><path fill="none" stroke="#000000" d="M 954 240 L 1077 240 Q 1087 240 1087 250 L 1087 285 Q 1087 295 1077 295 L 954 295 Q 944 295 944 285 L 944 250 Q 944 240 954 240 Z" stroke-miterlimit="10"/></g><g transform="translate(-118,-230) scale(1,1)"><g><path fill="none" stroke="none"/><text fill="#000000" stroke="none" font-family="Arial" font-size="13px" font-style="normal" font-weight="bold" text-decoration="none" x="965.65185546875" y="258">Gráfico Intraday</text></g></g><g transform="translate(-118,-230) scale(1,1)"><path fill="#C0C0C0" stroke="none" d="M 945 639 L 1099.9404296875 639 Q 1109.9404296875 639 1109.9404296875 649 L 1109.9404296875 685 Q 1109.9404296875 695 1099.9404296875 695 L 945 695 Q 935 695 935 685 L 935 649 Q 935 639 945 639 Z" opacity="0.2"/></g><g transform="translate(-118,-230) scale(1,1)"><path fill="#ffffff" stroke="none" d="M 938 632 L 1092.9404296875 632 Q 1102.9404296875 632 1102.9404296875 642 L 1102.9404296875 678 Q 1102.9404296875 688 1092.9404296875 688 L 938 688 Q 928 688 928 678 L 928 642 Q 928 632 938 632 Z"/></g><g transform="translate(-118,-230) scale(1,1)"><path fill="none" stroke="#000000" d="M 938 632 L 1092.9404296875 632 Q 1102.9404296875 632 1102.9404296875 642 L 1102.9404296875 678 Q 1102.9404296875 688 1092.9404296875 688 L 938 688 Q 928 688 928 678 L 928 642 Q 928 632 938 632 Z" stroke-miterlimit="10"/></g><g transform="translate(-118,-230) scale(1,1)"><g><path fill="none" stroke="none"/><text fill="#000000" stroke="none" font-family="Arial" font-size="13px" font-style="normal" font-weight="bold" text-decoration="none" x="932.5" y="650">Visualiza cotação histórica</text></g></g><g transform="translate(-118,-230) scale(1,1)"><path fill="none" stroke="#000000" d="M 1043 296 L 1207 463" stroke-miterlimit="10"/></g><g transform="translate(-118,-230) scale(1,1)"><path fill="none" stroke="#000000" d="M 1196.8758936902582 458.69855007828204 L 1207 463 L 1202.8827601835092 452.799591366347" stroke-miterlimit="10"/></g><g transform="translate(-118,-230) scale(1,1)"><g><path fill="none" stroke="none"/><text fill="#000000" stroke="none" font-family="Arial" font-size="13px" font-style="normal" font-weight="normal" text-decoration="none" x="1142.5" y="379">Cotação realizada</text></g></g><g transform="translate(-118,-230) scale(1,1)"><path fill="none" stroke="#000000" d="M 1047 631 L 1207 488" stroke-miterlimit="10"/></g><g transform="translate(-118,-230) scale(1,1)"><path fill="none" stroke="#000000" d="M 1202.2278043176732 497.91091057217153 L 1207 488 L 1196.6174759985615 491.63362014519356" stroke-miterlimit="10"/></g><g transform="translate(-118,-230) scale(1,1)"><g><path fill="none" stroke="none"/><text fill="#000000" stroke="none" font-family="Arial" font-size="13px" font-style="normal" font-weight="normal" text-decoration="none" x="1134.5" y="578">Cotação realizada</text></g></g><g transform="translate(-118,-230) scale(1,1)"><path fill="none" stroke="#000000" d="M 800 439 L 979 296" stroke-miterlimit="10"/></g><g transform="translate(-118,-230) scale(1,1)"><path fill="none" stroke="#000000" d="M 973.6873820410926 305.6320345941392 L 979 296 L 968.4325348372639 299.0542887935424" stroke-miterlimit="10"/></g><g transform="translate(-118,-230) scale(1,1)"><g><path fill="none" stroke="none"/><text fill="#000000" stroke="none" font-family="Arial" font-size="13px" font-style="normal" font-weight="normal" text-decoration="none" x="759.5" y="346">Usuário seleciona gráfico</text></g></g><g transform="translate(-118,-230) scale(1,1)"><path fill="none" stroke="#000000" d="M 804 505 L 976 631" stroke-miterlimit="10"/></g><g transform="translate(-118,-230) scale(1,1)"><path fill="none" stroke="#000000" d="M 965.3140948996034 628.3901279369826 L 976 631 L 970.2893822741826 621.5984658066047" stroke-miterlimit="10"/></g><g transform="translate(-118,-230) scale(1,1)"><g><path fill="none" stroke="none"/><text fill="#000000" stroke="none" font-family="Arial" font-size="13px" font-style="normal" font-weight="normal" text-decoration="none" x="710.5" y="602">Usuário altera período da cotação</text></g></g><g transform="translate(-118,-230) scale(1,1)"><path fill="none" stroke="#000000" d="M 864 473 L 1207 476" stroke-miterlimit="10"/></g><g transform="translate(-118,-230) scale(1,1)"><path fill="none" stroke="#000000" d="M 1196.8008973045996 480.12047378449114 L 1207 476 L 1196.8745303673493 471.70176027677957" stroke-miterlimit="10"/></g><g transform="translate(-118,-230) scale(1,1)"><g><path fill="none" stroke="none"/><text fill="#000000" stroke="none" font-family="Arial" font-size="13px" font-style="normal" font-weight="normal" text-decoration="none" x="951.5" y="463">Usuário encerra cotação</text></g></g></g></svg>