<svg version="1.1" xmlns="http://www.w3.org/2000/svg" xmlns:xlink="http://www.w3.org/1999/xlink" width="541" height="101"><defs/><g><text fill="#eeeeee" stroke="none" font-family="Arial" font-size="24px" font-style="normal" font-weight="normal" text-decoration="none" x="0" y="0">UNREGISTERED</text><text fill="#eeeeee" stroke="none" font-family="Arial" font-size="24px" font-style="normal" font-weight="normal" text-decoration="none" x="0" y="30">UNREGISTERED</text><text fill="#eeeeee" stroke="none" font-family="Arial" font-size="24px" font-style="normal" font-weight="normal" text-decoration="none" x="0" y="60">UNREGISTERED</text><text fill="#eeeeee" stroke="none" font-family="Arial" font-size="24px" font-style="normal" font-weight="normal" text-decoration="none" x="0" y="90">UNREGISTERED</text><text fill="#eeeeee" stroke="none" font-family="Arial" font-size="24px" font-style="normal" font-weight="normal" text-decoration="none" x="200" y="0">UNREGISTERED</text><text fill="#eeeeee" stroke="none" font-family="Arial" font-size="24px" font-style="normal" font-weight="normal" text-decoration="none" x="200" y="30">UNREGISTERED</text><text fill="#eeeeee" stroke="none" font-family="Arial" font-size="24px" font-style="normal" font-weight="normal" text-decoration="none" x="200" y="60">UNREGISTERED</text><text fill="#eeeeee" stroke="none" font-family="Arial" font-size="24px" font-style="normal" font-weight="normal" text-decoration="none" x="200" y="90">UNREGISTERED</text><text fill="#eeeeee" stroke="none" font-family="Arial" font-size="24px" font-style="normal" font-weight="normal" text-decoration="none" x="400" y="0">UNREGISTERED</text><text fill="#eeeeee" stroke="none" font-family="Arial" font-size="24px" font-style="normal" font-weight="normal" text-decoration="none" x="400" y="30">UNREGISTERED</text><text fill="#eeeeee" stroke="none" font-family="Arial" font-size="24px" font-style="normal" font-weight="normal" text-decoration="none" x="400" y="60">UNREGISTERED</text><text fill="#eeeeee" stroke="none" font-family="Arial" font-size="24px" font-style="normal" font-weight="normal" text-decoration="none" x="400" y="90">UNREGISTERED</text><g transform="translate(-206,-316) scale(1,1)"><path fill="#C0C0C0" stroke="none" d="M 223 392.5 C 223 387.2532944 227.2532944 383 232.5 383 C 237.7467056 383 242 387.2532944 242 392.5 C 242 397.7467056 237.7467056 402 232.5 402 C 227.2532944 402 223 397.7467056 223 392.5 Z" opacity="0.2"/></g><g transform="translate(-206,-316) scale(1,1)"><path fill="#000000" stroke="none" d="M 216 385.5 C 216 380.2532944 220.2532944 376 225.5 376 C 230.7467056 376 235 380.2532944 235 385.5 C 235 390.7467056 230.7467056 395 225.5 395 C 220.2532944 395 216 390.7467056 216 385.5 Z"/></g><g transform="translate(-206,-316) scale(1,1)"><path fill="#C0C0C0" stroke="none" d="M 425 375 L 581 375 Q 591 375 591 385 L 591 404 Q 591 414 581 414 L 425 414 Q 415 414 415 404 L 415 385 Q 415 375 425 375 Z" opacity="0.2"/></g><g transform="translate(-206,-316) scale(1,1)"><path fill="#ffffff" stroke="none" d="M 418 368 L 574 368 Q 584 368 584 378 L 584 397 Q 584 407 574 407 L 418 407 Q 408 407 408 397 L 408 378 Q 408 368 418 368 Z"/></g><g transform="translate(-206,-316) scale(1,1)"><path fill="none" stroke="#000000" d="M 418 368 L 574 368 Q 584 368 584 378 L 584 397 Q 584 407 574 407 L 418 407 Q 408 407 408 397 L 408 378 Q 408 368 418 368 Z" stroke-miterlimit="10"/></g><g transform="translate(-206,-316) scale(1,1)"><g><path fill="none" stroke="none"/><text fill="#000000" stroke="none" font-family="Arial" font-size="13px" font-style="normal" font-weight="bold" text-decoration="none" x="454.470458984375" y="386">Vídeo tutorial</text></g></g><g transform="translate(-206,-316) scale(1,1)"><path fill="none" stroke="#000000" d="M 236 385 L 407 386" stroke-miterlimit="10"/></g><g transform="translate(-206,-316) scale(1,1)"><path fill="none" stroke="#000000" d="M 396.81288227034815 390.150015947224 L 407 386 L 396.8621155543031 381.7311243909319" stroke-miterlimit="10"/></g><g transform="translate(-206,-316) scale(1,1)"><g><path fill="none" stroke="none"/><text fill="#000000" stroke="none" font-family="Arial" font-size="13px" font-style="normal" font-weight="normal" text-decoration="none" x="250.5" y="375">Acesso guia do iniciante</text></g></g><g transform="translate(-206,-316) scale(1,1)"><path fill="none" stroke="#000000" d="M 432 368 L 432 347 L 560 347 L 560 368" stroke-miterlimit="10"/></g><g transform="translate(-206,-316) scale(1,1)"><path fill="none" stroke="#000000" d="M 555.790482243984 357.83732514237585 L 560 368 L 564.209517756016 357.83732514237585" stroke-miterlimit="10"/></g><g transform="translate(-206,-316) scale(1,1)"><g><path fill="none" stroke="none"/><text fill="#000000" stroke="none" font-family="Arial" font-size="13px" font-style="normal" font-weight="normal" text-decoration="none" x="441.5" y="337">Assistir novamente</text></g></g><g transform="translate(-206,-316) scale(1,1)"><path fill="#C0C0C0" stroke="none" d="M 719 395.5 C 719 388.59644 724.59644 383 731.5 383 C 738.40356 383 744 388.59644 744 395.5 C 744 402.40356 738.40356 408 731.5 408 C 724.59644 408 719 402.40356 719 395.5 Z" opacity="0.2"/></g><g transform="translate(-206,-316) scale(1,1)"><path fill="none" stroke="#000000" d="M 712 388.5 C 712 381.59644 717.59644 376 724.5 376 C 731.40356 376 737 381.59644 737 388.5 C 737 395.40356 731.40356 401 724.5 401 C 717.59644 401 712 395.40356 712 388.5 Z" stroke-miterlimit="10"/></g><g transform="translate(-206,-316) scale(1,1)"><path fill="#000000" stroke="none" d="M 717 388.5 C 717 384.357864 720.357864 381 724.5 381 C 728.642136 381 732 384.357864 732 388.5 C 732 392.642136 728.642136 396 724.5 396 C 720.357864 396 717 392.642136 717 388.5 Z"/></g><g transform="translate(-206,-316) scale(1,1)"><path fill="none" stroke="#000000" d="M 585 387 L 711 388" stroke-miterlimit="10"/></g><g transform="translate(-206,-316) scale(1,1)"><path fill="none" stroke="#000000" d="M 700.8042373723948 392.12873157780086 L 711 388 L 700.87105301029 383.7099612030141" stroke-miterlimit="10"/></g><g transform="translate(-206,-316) scale(1,1)"><g><path fill="none" stroke="none"/><text fill="#000000" stroke="none" font-family="Arial" font-size="13px" font-style="normal" font-weight="normal" text-decoration="none" x="596.5" y="377">Tutorial concluído</text></g></g></g></svg>