<svg version="1.1" xmlns="http://www.w3.org/2000/svg" xmlns:xlink="http://www.w3.org/1999/xlink" width="965" height="63"><defs/><g><text fill="#eeeeee" stroke="none" font-family="Arial" font-size="24px" font-style="normal" font-weight="normal" text-decoration="none" x="0" y="0">UNREGISTERED</text><text fill="#eeeeee" stroke="none" font-family="Arial" font-size="24px" font-style="normal" font-weight="normal" text-decoration="none" x="0" y="30">UNREGISTERED</text><text fill="#eeeeee" stroke="none" font-family="Arial" font-size="24px" font-style="normal" font-weight="normal" text-decoration="none" x="0" y="60">UNREGISTERED</text><text fill="#eeeeee" stroke="none" font-family="Arial" font-size="24px" font-style="normal" font-weight="normal" text-decoration="none" x="200" y="0">UNREGISTERED</text><text fill="#eeeeee" stroke="none" font-family="Arial" font-size="24px" font-style="normal" font-weight="normal" text-decoration="none" x="200" y="30">UNREGISTERED</text><text fill="#eeeeee" stroke="none" font-family="Arial" font-size="24px" font-style="normal" font-weight="normal" text-decoration="none" x="200" y="60">UNREGISTERED</text><text fill="#eeeeee" stroke="none" font-family="Arial" font-size="24px" font-style="normal" font-weight="normal" text-decoration="none" x="400" y="0">UNREGISTERED</text><text fill="#eeeeee" stroke="none" font-family="Arial" font-size="24px" font-style="normal" font-weight="normal" text-decoration="none" x="400" y="30">UNREGISTERED</text><text fill="#eeeeee" stroke="none" font-family="Arial" font-size="24px" font-style="normal" font-weight="normal" text-decoration="none" x="400" y="60">UNREGISTERED</text><text fill="#eeeeee" stroke="none" font-family="Arial" font-size="24px" font-style="normal" font-weight="normal" text-decoration="none" x="600" y="0">UNREGISTERED</text><text fill="#eeeeee" stroke="none" font-family="Arial" font-size="24px" font-style="normal" font-weight="normal" text-decoration="none" x="600" y="30">UNREGISTERED</text><text fill="#eeeeee" stroke="none" font-family="Arial" font-size="24px" font-style="normal" font-weight="normal" text-decoration="none" x="600" y="60">UNREGISTERED</text><text fill="#eeeeee" stroke="none" font-family="Arial" font-size="24px" font-style="normal" font-weight="normal" text-decoration="none" x="800" y="0">UNREGISTERED</text><text fill="#eeeeee" stroke="none" font-family="Arial" font-size="24px" font-style="normal" font-weight="normal" text-decoration="none" x="800" y="30">UNREGISTERED</text><text fill="#eeeeee" stroke="none" font-family="Arial" font-size="24px" font-style="normal" font-weight="normal" text-decoration="none" x="800" y="60">UNREGISTERED</text><g transform="translate(-446,-355) scale(1,1)"><path fill="#C0C0C0" stroke="none" d="M 463 392.5 C 463 387.2532944 467.2532944 383 472.5 383 C 477.7467056 383 482 387.2532944 482 392.5 C 482 397.7467056 477.7467056 402 472.5 402 C 467.2532944 402 463 397.7467056 463 392.5 Z" opacity="0.2"/></g><g transform="translate(-446,-355) scale(1,1)"><path fill="#000000" stroke="none" d="M 456 385.5 C 456 380.2532944 460.2532944 376 465.5 376 C 470.7467056 376 475 380.2532944 475 385.5 C 475 390.7467056 470.7467056 395 465.5 395 C 460.2532944 395 456 390.7467056 456 385.5 Z"/></g><g transform="translate(-446,-355) scale(1,1)"><path fill="#C0C0C0" stroke="none" d="M 753 375 L 845 375 Q 855 375 855 385 L 855 405 Q 855 415 845 415 L 753 415 Q 743 415 743 405 L 743 385 Q 743 375 753 375 Z" opacity="0.2"/></g><g transform="translate(-446,-355) scale(1,1)"><path fill="#ffffff" stroke="none" d="M 746 368 L 838 368 Q 848 368 848 378 L 848 398 Q 848 408 838 408 L 746 408 Q 736 408 736 398 L 736 378 Q 736 368 746 368 Z"/></g><g transform="translate(-446,-355) scale(1,1)"><path fill="none" stroke="#000000" d="M 746 368 L 838 368 Q 848 368 848 378 L 848 398 Q 848 408 838 408 L 746 408 Q 736 408 736 398 L 736 378 Q 736 368 746 368 Z" stroke-miterlimit="10"/></g><g transform="translate(-446,-355) scale(1,1)"><g><path fill="none" stroke="none"/><text fill="#000000" stroke="none" font-family="Arial" font-size="13px" font-style="normal" font-weight="bold" text-decoration="none" x="751.530517578125" y="386">Criar carteira</text></g></g><g transform="translate(-446,-355) scale(1,1)"><path fill="none" stroke="#000000" d="M 476 385 L 735 387" stroke-miterlimit="10"/></g><g transform="translate(-446,-355) scale(1,1)"><path fill="none" stroke="#000000" d="M 724.8051231664379 391.1309183420273 L 735 387 L 724.8701330854511 382.712133829802" stroke-miterlimit="10"/></g><g transform="translate(-446,-355) scale(1,1)"><g><path fill="none" stroke="none"/><text fill="#000000" stroke="none" font-family="Arial" font-size="13px" font-style="normal" font-weight="normal" text-decoration="none" x="483.5" y="376">Usuario acessa a carteira de investimento</text></g></g><g transform="translate(-446,-355) scale(1,1)"><path fill="#C0C0C0" stroke="none" d="M 1105 375 L 1229 375 Q 1239 375 1239 385 L 1239 405 Q 1239 415 1229 415 L 1105 415 Q 1095 415 1095 405 L 1095 385 Q 1095 375 1105 375 Z" opacity="0.2"/></g><g transform="translate(-446,-355) scale(1,1)"><path fill="#ffffff" stroke="none" d="M 1098 368 L 1222 368 Q 1232 368 1232 378 L 1232 398 Q 1232 408 1222 408 L 1098 408 Q 1088 408 1088 398 L 1088 378 Q 1088 368 1098 368 Z"/></g><g transform="translate(-446,-355) scale(1,1)"><path fill="none" stroke="#000000" d="M 1098 368 L 1222 368 Q 1232 368 1232 378 L 1232 398 Q 1232 408 1222 408 L 1098 408 Q 1088 408 1088 398 L 1088 378 Q 1088 368 1098 368 Z" stroke-miterlimit="10"/></g><g transform="translate(-446,-355) scale(1,1)"><g><path fill="none" stroke="none"/><text fill="#000000" stroke="none" font-family="Arial" font-size="13px" font-style="normal" font-weight="bold" text-decoration="none" x="1103.274169921875" y="386">Gerenciar Carteira</text></g></g><g transform="translate(-446,-355) scale(1,1)"><path fill="none" stroke="#000000" d="M 849 388 L 1087 388" stroke-miterlimit="10"/></g><g transform="translate(-446,-355) scale(1,1)"><path fill="none" stroke="#000000" d="M 1076.837325142376 392.209517756016 L 1087 388 L 1076.837325142376 383.790482243984" stroke-miterlimit="10"/></g><g transform="translate(-446,-355) scale(1,1)"><g><path fill="none" stroke="none"/><text fill="#000000" stroke="none" font-family="Arial" font-size="13px" font-style="normal" font-weight="normal" text-decoration="none" x="871.5" y="378">distribuicao das classes de ativos</text></g></g><g transform="translate(-446,-355) scale(1,1)"><path fill="#C0C0C0" stroke="none" d="M 1383 395.5 C 1383 388.59644 1388.59644 383 1395.5 383 C 1402.40356 383 1408 388.59644 1408 395.5 C 1408 402.40356 1402.40356 408 1395.5 408 C 1388.59644 408 1383 402.40356 1383 395.5 Z" opacity="0.2"/></g><g transform="translate(-446,-355) scale(1,1)"><path fill="none" stroke="#000000" d="M 1376 388.5 C 1376 381.59644 1381.59644 376 1388.5 376 C 1395.40356 376 1401 381.59644 1401 388.5 C 1401 395.40356 1395.40356 401 1388.5 401 C 1381.59644 401 1376 395.40356 1376 388.5 Z" stroke-miterlimit="10"/></g><g transform="translate(-446,-355) scale(1,1)"><path fill="#000000" stroke="none" d="M 1381 388.5 C 1381 384.357864 1384.357864 381 1388.5 381 C 1392.642136 381 1396 384.357864 1396 388.5 C 1396 392.642136 1392.642136 396 1388.5 396 C 1384.357864 396 1381 392.642136 1381 388.5 Z"/></g><g transform="translate(-446,-355) scale(1,1)"><path fill="none" stroke="#000000" d="M 1233 388 L 1375 388" stroke-miterlimit="10"/></g><g transform="translate(-446,-355) scale(1,1)"><path fill="none" stroke="#000000" d="M 1364.837325142376 392.209517756016 L 1375 388 L 1364.837325142376 383.790482243984" stroke-miterlimit="10"/></g></g></svg>