<svg version="1.1" xmlns="http://www.w3.org/2000/svg" xmlns:xlink="http://www.w3.org/1999/xlink" width="1437" height="420"><defs/><g><text fill="#eeeeee" stroke="none" font-family="Arial" font-size="24px" font-style="normal" font-weight="normal" text-decoration="none" x="0" y="0">UNREGISTERED</text><text fill="#eeeeee" stroke="none" font-family="Arial" font-size="24px" font-style="normal" font-weight="normal" text-decoration="none" x="0" y="30">UNREGISTERED</text><text fill="#eeeeee" stroke="none" font-family="Arial" font-size="24px" font-style="normal" font-weight="normal" text-decoration="none" x="0" y="60">UNREGISTERED</text><text fill="#eeeeee" stroke="none" font-family="Arial" font-size="24px" font-style="normal" font-weight="normal" text-decoration="none" x="0" y="90">UNREGISTERED</text><text fill="#eeeeee" stroke="none" font-family="Arial" font-size="24px" font-style="normal" font-weight="normal" text-decoration="none" x="0" y="120">UNREGISTERED</text><text fill="#eeeeee" stroke="none" font-family="Arial" font-size="24px" font-style="normal" font-weight="normal" text-decoration="none" x="0" y="150">UNREGISTERED</text><text fill="#eeeeee" stroke="none" font-family="Arial" font-size="24px" font-style="normal" font-weight="normal" text-decoration="none" x="0" y="180">UNREGISTERED</text><text fill="#eeeeee" stroke="none" font-family="Arial" font-size="24px" font-style="normal" font-weight="normal" text-decoration="none" x="0" y="210">UNREGISTERED</text><text fill="#eeeeee" stroke="none" font-family="Arial" font-size="24px" font-style="normal" font-weight="normal" text-decoration="none" x="0" y="240">UNREGISTERED</text><text fill="#eeeeee" stroke="none" font-family="Arial" font-size="24px" font-style="normal" font-weight="normal" text-decoration="none" x="0" y="270">UNREGISTERED</text><text fill="#eeeeee" stroke="none" font-family="Arial" font-size="24px" font-style="normal" font-weight="normal" text-decoration="none" x="0" y="300">UNREGISTERED</text><text fill="#eeeeee" stroke="none" font-family="Arial" font-size="24px" font-style="normal" font-weight="normal" text-decoration="none" x="0" y="330">UNREGISTERED</text><text fill="#eeeeee" stroke="none" font-family="Arial" font-size="24px" font-style="normal" font-weight="normal" text-decoration="none" x="0" y="360">UNREGISTERED</text><text fill="#eeeeee" stroke="none" font-family="Arial" font-size="24px" font-style="normal" font-weight="normal" text-decoration="none" x="0" y="390">UNREGISTERED</text><text fill="#eeeeee" stroke="none" font-family="Arial" font-size="24px" font-style="normal" font-weight="normal" text-decoration="none" x="200" y="0">UNREGISTERED</text><text fill="#eeeeee" stroke="none" font-family="Arial" font-size="24px" font-style="normal" font-weight="normal" text-decoration="none" x="200" y="30">UNREGISTERED</text><text fill="#eeeeee" stroke="none" font-family="Arial" font-size="24px" font-style="normal" font-weight="normal" text-decoration="none" x="200" y="60">UNREGISTERED</text><text fill="#eeeeee" stroke="none" font-family="Arial" font-size="24px" font-style="normal" font-weight="normal" text-decoration="none" x="200" y="90">UNREGISTERED</text><text fill="#eeeeee" stroke="none" font-family="Arial" font-size="24px" font-style="normal" font-weight="normal" text-decoration="none" x="200" y="120">UNREGISTERED</text><text fill="#eeeeee" stroke="none" font-family="Arial" font-size="24px" font-style="normal" font-weight="normal" text-decoration="none" x="200" y="150">UNREGISTERED</text><text fill="#eeeeee" stroke="none" font-family="Arial" font-size="24px" font-style="normal" font-weight="normal" text-decoration="none" x="200" y="180">UNREGISTERED</text><text fill="#eeeeee" stroke="none" font-family="Arial" font-size="24px" font-style="normal" font-weight="normal" text-decoration="none" x="200" y="210">UNREGISTERED</text><text fill="#eeeeee" stroke="none" font-family="Arial" font-size="24px" font-style="normal" font-weight="normal" text-decoration="none" x="200" y="240">UNREGISTERED</text><text fill="#eeeeee" stroke="none" font-family="Arial" font-size="24px" font-style="normal" font-weight="normal" text-decoration="none" x="200" y="270">UNREGISTERED</text><text fill="#eeeeee" stroke="none" font-family="Arial" font-size="24px" font-style="normal" font-weight="normal" text-decoration="none" x="200" y="300">UNREGISTERED</text><text fill="#eeeeee" stroke="none" font-family="Arial" font-size="24px" font-style="normal" font-weight="normal" text-decoration="none" x="200" y="330">UNREGISTERED</text><text fill="#eeeeee" stroke="none" font-family="Arial" font-size="24px" font-style="normal" font-weight="normal" text-decoration="none" x="200" y="360">UNREGISTERED</text><text fill="#eeeeee" stroke="none" font-family="Arial" font-size="24px" font-style="normal" font-weight="normal" text-decoration="none" x="200" y="390">UNREGISTERED</text><text fill="#eeeeee" stroke="none" font-family="Arial" font-size="24px" font-style="normal" font-weight="normal" text-decoration="none" x="400" y="0">UNREGISTERED</text><text fill="#eeeeee" stroke="none" font-family="Arial" font-size="24px" font-style="normal" font-weight="normal" text-decoration="none" x="400" y="30">UNREGISTERED</text><text fill="#eeeeee" stroke="none" font-family="Arial" font-size="24px" font-style="normal" font-weight="normal" text-decoration="none" x="400" y="60">UNREGISTERED</text><text fill="#eeeeee" stroke="none" font-family="Arial" font-size="24px" font-style="normal" font-weight="normal" text-decoration="none" x="400" y="90">UNREGISTERED</text><text fill="#eeeeee" stroke="none" font-family="Arial" font-size="24px" font-style="normal" font-weight="normal" text-decoration="none" x="400" y="120">UNREGISTERED</text><text fill="#eeeeee" stroke="none" font-family="Arial" font-size="24px" font-style="normal" font-weight="normal" text-decoration="none" x="400" y="150">UNREGISTERED</text><text fill="#eeeeee" stroke="none" font-family="Arial" font-size="24px" font-style="normal" font-weight="normal" text-decoration="none" x="400" y="180">UNREGISTERED</text><text fill="#eeeeee" stroke="none" font-family="Arial" font-size="24px" font-style="normal" font-weight="normal" text-decoration="none" x="400" y="210">UNREGISTERED</text><text fill="#eeeeee" stroke="none" font-family="Arial" font-size="24px" font-style="normal" font-weight="normal" text-decoration="none" x="400" y="240">UNREGISTERED</text><text fill="#eeeeee" stroke="none" font-family="Arial" font-size="24px" font-style="normal" font-weight="normal" text-decoration="none" x="400" y="270">UNREGISTERED</text><text fill="#eeeeee" stroke="none" font-family="Arial" font-size="24px" font-style="normal" font-weight="normal" text-decoration="none" x="400" y="300">UNREGISTERED</text><text fill="#eeeeee" stroke="none" font-family="Arial" font-size="24px" font-style="normal" font-weight="normal" text-decoration="none" x="400" y="330">UNREGISTERED</text><text fill="#eeeeee" stroke="none" font-family="Arial" font-size="24px" font-style="normal" font-weight="normal" text-decoration="none" x="400" y="360">UNREGISTERED</text><text fill="#eeeeee" stroke="none" font-family="Arial" font-size="24px" font-style="normal" font-weight="normal" text-decoration="none" x="400" y="390">UNREGISTERED</text><text fill="#eeeeee" stroke="none" font-family="Arial" font-size="24px" font-style="normal" font-weight="normal" text-decoration="none" x="600" y="0">UNREGISTERED</text><text fill="#eeeeee" stroke="none" font-family="Arial" font-size="24px" font-style="normal" font-weight="normal" text-decoration="none" x="600" y="30">UNREGISTERED</text><text fill="#eeeeee" stroke="none" font-family="Arial" font-size="24px" font-style="normal" font-weight="normal" text-decoration="none" x="600" y="60">UNREGISTERED</text><text fill="#eeeeee" stroke="none" font-family="Arial" font-size="24px" font-style="normal" font-weight="normal" text-decoration="none" x="600" y="90">UNREGISTERED</text><text fill="#eeeeee" stroke="none" font-family="Arial" font-size="24px" font-style="normal" font-weight="normal" text-decoration="none" x="600" y="120">UNREGISTERED</text><text fill="#eeeeee" stroke="none" font-family="Arial" font-size="24px" font-style="normal" font-weight="normal" text-decoration="none" x="600" y="150">UNREGISTERED</text><text fill="#eeeeee" stroke="none" font-family="Arial" font-size="24px" font-style="normal" font-weight="normal" text-decoration="none" x="600" y="180">UNREGISTERED</text><text fill="#eeeeee" stroke="none" font-family="Arial" font-size="24px" font-style="normal" font-weight="normal" text-decoration="none" x="600" y="210">UNREGISTERED</text><text fill="#eeeeee" stroke="none" font-family="Arial" font-size="24px" font-style="normal" font-weight="normal" text-decoration="none" x="600" y="240">UNREGISTERED</text><text fill="#eeeeee" stroke="none" font-family="Arial" font-size="24px" font-style="normal" font-weight="normal" text-decoration="none" x="600" y="270">UNREGISTERED</text><text fill="#eeeeee" stroke="none" font-family="Arial" font-size="24px" font-style="normal" font-weight="normal" text-decoration="none" x="600" y="300">UNREGISTERED</text><text fill="#eeeeee" stroke="none" font-family="Arial" font-size="24px" font-style="normal" font-weight="normal" text-decoration="none" x="600" y="330">UNREGISTERED</text><text fill="#eeeeee" stroke="none" font-family="Arial" font-size="24px" font-style="normal" font-weight="normal" text-decoration="none" x="600" y="360">UNREGISTERED</text><text fill="#eeeeee" stroke="none" font-family="Arial" font-size="24px" font-style="normal" font-weight="normal" text-decoration="none" x="600" y="390">UNREGISTERED</text><text fill="#eeeeee" stroke="none" font-family="Arial" font-size="24px" font-style="normal" font-weight="normal" text-decoration="none" x="800" y="0">UNREGISTERED</text><text fill="#eeeeee" stroke="none" font-family="Arial" font-size="24px" font-style="normal" font-weight="normal" text-decoration="none" x="800" y="30">UNREGISTERED</text><text fill="#eeeeee" stroke="none" font-family="Arial" font-size="24px" font-style="normal" font-weight="normal" text-decoration="none" x="800" y="60">UNREGISTERED</text><text fill="#eeeeee" stroke="none" font-family="Arial" font-size="24px" font-style="normal" font-weight="normal" text-decoration="none" x="800" y="90">UNREGISTERED</text><text fill="#eeeeee" stroke="none" font-family="Arial" font-size="24px" font-style="normal" font-weight="normal" text-decoration="none" x="800" y="120">UNREGISTERED</text><text fill="#eeeeee" stroke="none" font-family="Arial" font-size="24px" font-style="normal" font-weight="normal" text-decoration="none" x="800" y="150">UNREGISTERED</text><text fill="#eeeeee" stroke="none" font-family="Arial" font-size="24px" font-style="normal" font-weight="normal" text-decoration="none" x="800" y="180">UNREGISTERED</text><text fill="#eeeeee" stroke="none" font-family="Arial" font-size="24px" font-style="normal" font-weight="normal" text-decoration="none" x="800" y="210">UNREGISTERED</text><text fill="#eeeeee" stroke="none" font-family="Arial" font-size="24px" font-style="normal" font-weight="normal" text-decoration="none" x="800" y="240">UNREGISTERED</text><text fill="#eeeeee" stroke="none" font-family="Arial" font-size="24px" font-style="normal" font-weight="normal" text-decoration="none" x="800" y="270">UNREGISTERED</text><text fill="#eeeeee" stroke="none" font-family="Arial" font-size="24px" font-style="normal" font-weight="normal" text-decoration="none" x="800" y="300">UNREGISTERED</text><text fill="#eeeeee" stroke="none" font-family="Arial" font-size="24px" font-style="normal" font-weight="normal" text-decoration="none" x="800" y="330">UNREGISTERED</text><text fill="#eeeeee" stroke="none" font-family="Arial" font-size="24px" font-style="normal" font-weight="normal" text-decoration="none" x="800" y="360">UNREGISTERED</text><text fill="#eeeeee" stroke="none" font-family="Arial" font-size="24px" font-style="normal" font-weight="normal" text-decoration="none" x="800" y="390">UNREGISTERED</text><text fill="#eeeeee" stroke="none" font-family="Arial" font-size="24px" font-style="normal" font-weight="normal" text-decoration="none" x="1000" y="0">UNREGISTERED</text><text fill="#eeeeee" stroke="none" font-family="Arial" font-size="24px" font-style="normal" font-weight="normal" text-decoration="none" x="1000" y="30">UNREGISTERED</text><text fill="#eeeeee" stroke="none" font-family="Arial" font-size="24px" font-style="normal" font-weight="normal" text-decoration="none" x="1000" y="60">UNREGISTERED</text><text fill="#eeeeee" stroke="none" font-family="Arial" font-size="24px" font-style="normal" font-weight="normal" text-decoration="none" x="1000" y="90">UNREGISTERED</text><text fill="#eeeeee" stroke="none" font-family="Arial" font-size="24px" font-style="normal" font-weight="normal" text-decoration="none" x="1000" y="120">UNREGISTERED</text><text fill="#eeeeee" stroke="none" font-family="Arial" font-size="24px" font-style="normal" font-weight="normal" text-decoration="none" x="1000" y="150">UNREGISTERED</text><text fill="#eeeeee" stroke="none" font-family="Arial" font-size="24px" font-style="normal" font-weight="normal" text-decoration="none" x="1000" y="180">UNREGISTERED</text><text fill="#eeeeee" stroke="none" font-family="Arial" font-size="24px" font-style="normal" font-weight="normal" text-decoration="none" x="1000" y="210">UNREGISTERED</text><text fill="#eeeeee" stroke="none" font-family="Arial" font-size="24px" font-style="normal" font-weight="normal" text-decoration="none" x="1000" y="240">UNREGISTERED</text><text fill="#eeeeee" stroke="none" font-family="Arial" font-size="24px" font-style="normal" font-weight="normal" text-decoration="none" x="1000" y="270">UNREGISTERED</text><text fill="#eeeeee" stroke="none" font-family="Arial" font-size="24px" font-style="normal" font-weight="normal" text-decoration="none" x="1000" y="300">UNREGISTERED</text><text fill="#eeeeee" stroke="none" font-family="Arial" font-size="24px" font-style="normal" font-weight="normal" text-decoration="none" x="1000" y="330">UNREGISTERED</text><text fill="#eeeeee" stroke="none" font-family="Arial" font-size="24px" font-style="normal" font-weight="normal" text-decoration="none" x="1000" y="360">UNREGISTERED</text><text fill="#eeeeee" stroke="none" font-family="Arial" font-size="24px" font-style="normal" font-weight="normal" text-decoration="none" x="1000" y="390">UNREGISTERED</text><text fill="#eeeeee" stroke="none" font-family="Arial" font-size="24px" font-style="normal" font-weight="normal" text-decoration="none" x="1200" y="0">UNREGISTERED</text><text fill="#eeeeee" stroke="none" font-family="Arial" font-size="24px" font-style="normal" font-weight="normal" text-decoration="none" x="1200" y="30">UNREGISTERED</text><text fill="#eeeeee" stroke="none" font-family="Arial" font-size="24px" font-style="normal" font-weight="normal" text-decoration="none" x="1200" y="60">UNREGISTERED</text><text fill="#eeeeee" stroke="none" font-family="Arial" font-size="24px" font-style="normal" font-weight="normal" text-decoration="none" x="1200" y="90">UNREGISTERED</text><text fill="#eeeeee" stroke="none" font-family="Arial" font-size="24px" font-style="normal" font-weight="normal" text-decoration="none" x="1200" y="120">UNREGISTERED</text><text fill="#eeeeee" stroke="none" font-family="Arial" font-size="24px" font-style="normal" font-weight="normal" text-decoration="none" x="1200" y="150">UNREGISTERED</text><text fill="#eeeeee" stroke="none" font-family="Arial" font-size="24px" font-style="normal" font-weight="normal" text-decoration="none" x="1200" y="180">UNREGISTERED</text><text fill="#eeeeee" stroke="none" font-family="Arial" font-size="24px" font-style="normal" font-weight="normal" text-decoration="none" x="1200" y="210">UNREGISTERED</text><text fill="#eeeeee" stroke="none" font-family="Arial" font-size="24px" font-style="normal" font-weight="normal" text-decoration="none" x="1200" y="240">UNREGISTERED</text><text fill="#eeeeee" stroke="none" font-family="Arial" font-size="24px" font-style="normal" font-weight="normal" text-decoration="none" x="1200" y="270">UNREGISTERED</text><text fill="#eeeeee" stroke="none" font-family="Arial" font-size="24px" font-style="normal" font-weight="normal" text-decoration="none" x="1200" y="300">UNREGISTERED</text><text fill="#eeeeee" stroke="none" font-family="Arial" font-size="24px" font-style="normal" font-weight="normal" text-decoration="none" x="1200" y="330">UNREGISTERED</text><text fill="#eeeeee" stroke="none" font-family="Arial" font-size="24px" font-style="normal" font-weight="normal" text-decoration="none" x="1200" y="360">UNREGISTERED</text><text fill="#eeeeee" stroke="none" font-family="Arial" font-size="24px" font-style="normal" font-weight="normal" text-decoration="none" x="1200" y="390">UNREGISTERED</text><text fill="#eeeeee" stroke="none" font-family="Arial" font-size="24px" font-style="normal" font-weight="normal" text-decoration="none" x="1400" y="0">UNREGISTERED</text><text fill="#eeeeee" stroke="none" font-family="Arial" font-size="24px" font-style="normal" font-weight="normal" text-decoration="none" x="1400" y="30">UNREGISTERED</text><text fill="#eeeeee" stroke="none" font-family="Arial" font-size="24px" font-style="normal" font-weight="normal" text-decoration="none" x="1400" y="60">UNREGISTERED</text><text fill="#eeeeee" stroke="none" font-family="Arial" font-size="24px" font-style="normal" font-weight="normal" text-decoration="none" x="1400" y="90">UNREGISTERED</text><text fill="#eeeeee" stroke="none" font-family="Arial" font-size="24px" font-style="normal" font-weight="normal" text-decoration="none" x="1400" y="120">UNREGISTERED</text><text fill="#eeeeee" stroke="none" font-family="Arial" font-size="24px" font-style="normal" font-weight="normal" text-decoration="none" x="1400" y="150">UNREGISTERED</text><text fill="#eeeeee" stroke="none" font-family="Arial" font-size="24px" font-style="normal" font-weight="normal" text-decoration="none" x="1400" y="180">UNREGISTERED</text><text fill="#eeeeee" stroke="none" font-family="Arial" font-size="24px" font-style="normal" font-weight="normal" text-decoration="none" x="1400" y="210">UNREGISTERED</text><text fill="#eeeeee" stroke="none" font-family="Arial" font-size="24px" font-style="normal" font-weight="normal" text-decoration="none" x="1400" y="240">UNREGISTERED</text><text fill="#eeeeee" stroke="none" font-family="Arial" font-size="24px" font-style="normal" font-weight="normal" text-decoration="none" x="1400" y="270">UNREGISTERED</text><text fill="#eeeeee" stroke="none" font-family="Arial" font-size="24px" font-style="normal" font-weight="normal" text-decoration="none" x="1400" y="300">UNREGISTERED</text><text fill="#eeeeee" stroke="none" font-family="Arial" font-size="24px" font-style="normal" font-weight="normal" text-decoration="none" x="1400" y="330">UNREGISTERED</text><text fill="#eeeeee" stroke="none" font-family="Arial" font-size="24px" font-style="normal" font-weight="normal" text-decoration="none" x="1400" y="360">UNREGISTERED</text><text fill="#eeeeee" stroke="none" font-family="Arial" font-size="24px" font-style="normal" font-weight="normal" text-decoration="none" x="1400" y="390">UNREGISTERED</text><g transform="translate(-14,-182) scale(1,1)"><path fill="#C0C0C0" stroke="none" d="M 31 392.5 C 31 387.2532944 35.2532944 383 40.5 383 C 45.7467056 383 50 387.2532944 50 392.5 C 50 397.7467056 45.7467056 402 40.5 402 C 35.2532944 402 31 397.7467056 31 392.5 Z" opacity="0.2"/></g><g transform="translate(-14,-182) scale(1,1)"><path fill="#000000" stroke="none" d="M 24 385.5 C 24 380.2532944 28.2532944 376 33.5 376 C 38.7467056 376 43 380.2532944 43 385.5 C 43 390.7467056 38.7467056 395 33.5 395 C 28.2532944 395 24 390.7467056 24 385.5 Z"/></g><g transform="translate(-14,-182) scale(1,1)"><path fill="#C0C0C0" stroke="none" d="M 225 375 L 307.93896484375 375 Q 317.93896484375 375 317.93896484375 385 L 317.93896484375 405 Q 317.93896484375 415 307.93896484375 415 L 225 415 Q 215 415 215 405 L 215 385 Q 215 375 225 375 Z" opacity="0.2"/></g><g transform="translate(-14,-182) scale(1,1)"><path fill="#ffffff" stroke="none" d="M 218 368 L 300.93896484375 368 Q 310.93896484375 368 310.93896484375 378 L 310.93896484375 398 Q 310.93896484375 408 300.93896484375 408 L 218 408 Q 208 408 208 398 L 208 378 Q 208 368 218 368 Z"/></g><g transform="translate(-14,-182) scale(1,1)"><path fill="none" stroke="#000000" d="M 218 368 L 300.93896484375 368 Q 310.93896484375 368 310.93896484375 378 L 310.93896484375 398 Q 310.93896484375 408 300.93896484375 408 L 218 408 Q 208 408 208 398 L 208 378 Q 208 368 218 368 Z" stroke-miterlimit="10"/></g><g transform="translate(-14,-182) scale(1,1)"><g><path fill="none" stroke="none"/><text fill="#000000" stroke="none" font-family="Arial" font-size="13px" font-style="normal" font-weight="bold" text-decoration="none" x="212.5" y="386">Seleciona ação</text></g></g><g transform="translate(-14,-182) scale(1,1)"><path fill="none" stroke="#000000" d="M 44 385 L 207 387" stroke-miterlimit="10"/></g><g transform="translate(-14,-182) scale(1,1)"><path fill="none" stroke="#000000" d="M 196.7864434214199 391.08451490585395 L 207 387 L 196.8897366954667 382.6661130710404" stroke-miterlimit="10"/></g><g transform="translate(-14,-182) scale(1,1)"><g><path fill="none" stroke="none"/><text fill="#000000" stroke="none" font-family="Arial" font-size="13px" font-style="normal" font-weight="normal" text-decoration="none" x="54.2236328125" y="376">Solicita Ordem de venda</text></g></g><g transform="translate(-14,-182) scale(1,1)"><path fill="#C0C0C0" stroke="none" d="M 409 263 L 468.79541015625 263 Q 478.79541015625 263 478.79541015625 273 L 478.79541015625 293 Q 478.79541015625 303 468.79541015625 303 L 409 303 Q 399 303 399 293 L 399 273 Q 399 263 409 263 Z" opacity="0.2"/></g><g transform="translate(-14,-182) scale(1,1)"><path fill="#ffffff" stroke="none" d="M 402 256 L 461.79541015625 256 Q 471.79541015625 256 471.79541015625 266 L 471.79541015625 286 Q 471.79541015625 296 461.79541015625 296 L 402 296 Q 392 296 392 286 L 392 266 Q 392 256 402 256 Z"/></g><g transform="translate(-14,-182) scale(1,1)"><path fill="none" stroke="#000000" d="M 402 256 L 461.79541015625 256 Q 471.79541015625 256 471.79541015625 266 L 471.79541015625 286 Q 471.79541015625 296 461.79541015625 296 L 402 296 Q 392 296 392 286 L 392 266 Q 392 256 402 256 Z" stroke-miterlimit="10"/></g><g transform="translate(-14,-182) scale(1,1)"><g><path fill="none" stroke="none"/><text fill="#000000" stroke="none" font-family="Arial" font-size="13px" font-style="normal" font-weight="bold" text-decoration="none" x="396.5" y="274">Fracionario</text></g></g><g transform="translate(-14,-182) scale(1,1)"><path fill="#C0C0C0" stroke="none" d="M 409 487 L 469 487 Q 479 487 479 497 L 479 517 Q 479 527 469 527 L 409 527 Q 399 527 399 517 L 399 497 Q 399 487 409 487 Z" opacity="0.2"/></g><g transform="translate(-14,-182) scale(1,1)"><path fill="#ffffff" stroke="none" d="M 402 480 L 462 480 Q 472 480 472 490 L 472 510 Q 472 520 462 520 L 402 520 Q 392 520 392 510 L 392 490 Q 392 480 402 480 Z"/></g><g transform="translate(-14,-182) scale(1,1)"><path fill="none" stroke="#000000" d="M 402 480 L 462 480 Q 472 480 472 490 L 472 510 Q 472 520 462 520 L 402 520 Q 392 520 392 510 L 392 490 Q 392 480 402 480 Z" stroke-miterlimit="10"/></g><g transform="translate(-14,-182) scale(1,1)"><g><path fill="none" stroke="none"/><text fill="#000000" stroke="none" font-family="Arial" font-size="13px" font-style="normal" font-weight="bold" text-decoration="none" x="418.279541015625" y="498">Lote</text></g></g><g transform="translate(-14,-182) scale(1,1)"><path fill="none" stroke="#000000" d="M 291 367 L 399 297" stroke-miterlimit="10"/></g><g transform="translate(-14,-182) scale(1,1)"><path fill="none" stroke="#000000" d="M 392.76149861390223 306.0598620550015 L 399 297 L 388.18242346974233 298.9950032611548" stroke-miterlimit="10"/></g><g transform="translate(-14,-182) scale(1,1)"><g><path fill="none" stroke="none"/><text fill="#000000" stroke="none" font-family="Arial" font-size="13px" font-style="normal" font-weight="normal" text-decoration="none" x="258.7626953125" y="321">Usuário seleciona</text></g></g><g transform="translate(-14,-182) scale(1,1)"><path fill="none" stroke="#000000" d="M 291 409 L 400 479" stroke-miterlimit="10"/></g><g transform="translate(-14,-182) scale(1,1)"><path fill="none" stroke="#000000" d="M 389.1741425590337 477.05043321020406 L 400 479 L 393.7235146887747 469.9664108938931" stroke-miterlimit="10"/></g><g transform="translate(-14,-182) scale(1,1)"><g><path fill="none" stroke="none"/><text fill="#000000" stroke="none" font-family="Arial" font-size="13px" font-style="normal" font-weight="normal" text-decoration="none" x="242.436767578125" y="458">Usuário seleciona</text></g></g><g transform="translate(-14,-182) scale(1,1)"><path fill="#C0C0C0" stroke="none" d="M 577 199 L 641.10546875 199 Q 651.10546875 199 651.10546875 209 L 651.10546875 229 Q 651.10546875 239 641.10546875 239 L 577 239 Q 567 239 567 229 L 567 209 Q 567 199 577 199 Z" opacity="0.2"/></g><g transform="translate(-14,-182) scale(1,1)"><path fill="#ffffff" stroke="none" d="M 570 192 L 634.10546875 192 Q 644.10546875 192 644.10546875 202 L 644.10546875 222 Q 644.10546875 232 634.10546875 232 L 570 232 Q 560 232 560 222 L 560 202 Q 560 192 570 192 Z"/></g><g transform="translate(-14,-182) scale(1,1)"><path fill="none" stroke="#000000" d="M 570 192 L 634.10546875 192 Q 644.10546875 192 644.10546875 202 L 644.10546875 222 Q 644.10546875 232 634.10546875 232 L 570 232 Q 560 232 560 222 L 560 202 Q 560 192 570 192 Z" stroke-miterlimit="10"/></g><g transform="translate(-14,-182) scale(1,1)"><g><path fill="none" stroke="none"/><text fill="#000000" stroke="none" font-family="Arial" font-size="13px" font-style="normal" font-weight="bold" text-decoration="none" x="564.5" y="210">Com gatilho</text></g></g><g transform="translate(-14,-182) scale(1,1)"><path fill="#C0C0C0" stroke="none" d="M 577 319 L 639.67724609375 319 Q 649.67724609375 319 649.67724609375 329 L 649.67724609375 349 Q 649.67724609375 359 639.67724609375 359 L 577 359 Q 567 359 567 349 L 567 329 Q 567 319 577 319 Z" opacity="0.2"/></g><g transform="translate(-14,-182) scale(1,1)"><path fill="#ffffff" stroke="none" d="M 570 312 L 632.67724609375 312 Q 642.67724609375 312 642.67724609375 322 L 642.67724609375 342 Q 642.67724609375 352 632.67724609375 352 L 570 352 Q 560 352 560 342 L 560 322 Q 560 312 570 312 Z"/></g><g transform="translate(-14,-182) scale(1,1)"><path fill="none" stroke="#000000" d="M 570 312 L 632.67724609375 312 Q 642.67724609375 312 642.67724609375 322 L 642.67724609375 342 Q 642.67724609375 352 632.67724609375 352 L 570 352 Q 560 352 560 342 L 560 322 Q 560 312 570 312 Z" stroke-miterlimit="10"/></g><g transform="translate(-14,-182) scale(1,1)"><g><path fill="none" stroke="none"/><text fill="#000000" stroke="none" font-family="Arial" font-size="13px" font-style="normal" font-weight="bold" text-decoration="none" x="564.5" y="330">Sem gatilho</text></g></g><g transform="translate(-14,-182) scale(1,1)"><path fill="none" stroke="#000000" d="M 473 290 L 559 318" stroke-miterlimit="10"/></g><g transform="translate(-14,-182) scale(1,1)"><path fill="none" stroke="#000000" d="M 548.0333948465958 318.8564878337306 L 559 318 L 550.6398107741978 310.8510674846673" stroke-miterlimit="10"/></g><g transform="translate(-14,-182) scale(1,1)"><g><path fill="none" stroke="none"/><text fill="#000000" stroke="none" font-family="Arial" font-size="13px" font-style="normal" font-weight="normal" text-decoration="none" x="431.5" y="323">Usuário seleciona</text></g></g><g transform="translate(-14,-182) scale(1,1)"><path fill="none" stroke="#000000" d="M 473 260 L 559 228" stroke-miterlimit="10"/></g><g transform="translate(-14,-182) scale(1,1)"><path fill="none" stroke="#000000" d="M 550.9433198111169 235.489319350519 L 559 228 L 548.0073183053659 227.59881530381304" stroke-miterlimit="10"/></g><g transform="translate(-14,-182) scale(1,1)"><g><path fill="none" stroke="none"/><text fill="#000000" stroke="none" font-family="Arial" font-size="13px" font-style="normal" font-weight="normal" text-decoration="none" x="440.8017578125" y="234">Usuário seleciona</text></g></g><g transform="translate(-14,-182) scale(1,1)"><path fill="#C0C0C0" stroke="none" d="M 577 455 L 641.10546875 455 Q 651.10546875 455 651.10546875 465 L 651.10546875 485 Q 651.10546875 495 641.10546875 495 L 577 495 Q 567 495 567 485 L 567 465 Q 567 455 577 455 Z" opacity="0.2"/></g><g transform="translate(-14,-182) scale(1,1)"><path fill="#ffffff" stroke="none" d="M 570 448 L 634.10546875 448 Q 644.10546875 448 644.10546875 458 L 644.10546875 478 Q 644.10546875 488 634.10546875 488 L 570 488 Q 560 488 560 478 L 560 458 Q 560 448 570 448 Z"/></g><g transform="translate(-14,-182) scale(1,1)"><path fill="none" stroke="#000000" d="M 570 448 L 634.10546875 448 Q 644.10546875 448 644.10546875 458 L 644.10546875 478 Q 644.10546875 488 634.10546875 488 L 570 488 Q 560 488 560 478 L 560 458 Q 560 448 570 448 Z" stroke-miterlimit="10"/></g><g transform="translate(-14,-182) scale(1,1)"><g><path fill="none" stroke="none"/><text fill="#000000" stroke="none" font-family="Arial" font-size="13px" font-style="normal" font-weight="bold" text-decoration="none" x="564.5" y="466">Com gatilho</text></g></g><g transform="translate(-14,-182) scale(1,1)"><path fill="#C0C0C0" stroke="none" d="M 577 559 L 639.67724609375 559 Q 649.67724609375 559 649.67724609375 569 L 649.67724609375 589 Q 649.67724609375 599 639.67724609375 599 L 577 599 Q 567 599 567 589 L 567 569 Q 567 559 577 559 Z" opacity="0.2"/></g><g transform="translate(-14,-182) scale(1,1)"><path fill="#ffffff" stroke="none" d="M 570 552 L 632.67724609375 552 Q 642.67724609375 552 642.67724609375 562 L 642.67724609375 582 Q 642.67724609375 592 632.67724609375 592 L 570 592 Q 560 592 560 582 L 560 562 Q 560 552 570 552 Z"/></g><g transform="translate(-14,-182) scale(1,1)"><path fill="none" stroke="#000000" d="M 570 552 L 632.67724609375 552 Q 642.67724609375 552 642.67724609375 562 L 642.67724609375 582 Q 642.67724609375 592 632.67724609375 592 L 570 592 Q 560 592 560 582 L 560 562 Q 560 552 570 552 Z" stroke-miterlimit="10"/></g><g transform="translate(-14,-182) scale(1,1)"><g><path fill="none" stroke="none"/><text fill="#000000" stroke="none" font-family="Arial" font-size="13px" font-style="normal" font-weight="bold" text-decoration="none" x="564.5" y="570">Sem gatilho</text></g></g><g transform="translate(-14,-182) scale(1,1)"><path fill="none" stroke="#000000" d="M 473 492 L 559 476" stroke-miterlimit="10"/></g><g transform="translate(-14,-182) scale(1,1)"><path fill="none" stroke="#000000" d="M 549.7787230852266 481.9973370808274 L 559 476 L 548.2388148434502 473.7203302812793" stroke-miterlimit="10"/></g><g transform="translate(-14,-182) scale(1,1)"><g><path fill="none" stroke="none"/><text fill="#000000" stroke="none" font-family="Arial" font-size="13px" font-style="normal" font-weight="normal" text-decoration="none" x="447.5" y="466">Usuário seleicona</text></g></g><g transform="translate(-14,-182) scale(1,1)"><path fill="none" stroke="#000000" d="M 473 517 L 559 554" stroke-miterlimit="10"/></g><g transform="translate(-14,-182) scale(1,1)"><path fill="none" stroke="#000000" d="M 548.001016550608 553.8504570964542 L 559 554 L 551.3282870179519 546.1168014156007" stroke-miterlimit="10"/></g><g transform="translate(-14,-182) scale(1,1)"><g><path fill="none" stroke="none"/><text fill="#000000" stroke="none" font-family="Arial" font-size="13px" font-style="normal" font-weight="normal" text-decoration="none" x="423.5" y="555">Usuário seleicona</text></g></g><g transform="translate(-14,-182) scale(1,1)"><path fill="#C0C0C0" stroke="none" d="M 737 391 L 901 391 Q 911 391 911 401 L 911 421 Q 911 431 901 431 L 737 431 Q 727 431 727 421 L 727 401 Q 727 391 737 391 Z" opacity="0.2"/></g><g transform="translate(-14,-182) scale(1,1)"><path fill="#ffffff" stroke="none" d="M 730 384 L 894 384 Q 904 384 904 394 L 904 414 Q 904 424 894 424 L 730 424 Q 720 424 720 414 L 720 394 Q 720 384 730 384 Z"/></g><g transform="translate(-14,-182) scale(1,1)"><path fill="none" stroke="#000000" d="M 730 384 L 894 384 Q 904 384 904 394 L 904 414 Q 904 424 894 424 L 730 424 Q 720 424 720 414 L 720 394 Q 720 384 730 384 Z" stroke-miterlimit="10"/></g><g transform="translate(-14,-182) scale(1,1)"><g><path fill="none" stroke="none"/><text fill="#000000" stroke="none" font-family="Arial" font-size="13px" font-style="normal" font-weight="bold" text-decoration="none" x="738.3037109375" y="402">Corretora envia para B3</text></g></g><g transform="translate(-14,-182) scale(1,1)"><path fill="none" stroke="#000000" d="M 644 347 L 750 383" stroke-miterlimit="10"/></g><g transform="translate(-14,-182) scale(1,1)"><path fill="none" stroke="#000000" d="M 739.0234433513872 383.7177772215623 L 750 383 L 741.7308572189397 375.74594750043553" stroke-miterlimit="10"/></g><g transform="translate(-14,-182) scale(1,1)"><path fill="none" stroke="#000000" d="M 625 233 L 789 383" stroke-miterlimit="10"/></g><g transform="translate(-14,-182) scale(1,1)"><path fill="none" stroke="#000000" d="M 778.6599121180678 379.247323276124 L 789 383 L 784.3419968996747 373.0349105815673" stroke-miterlimit="10"/></g><g transform="translate(-14,-182) scale(1,1)"><g><path fill="none" stroke="none"/><text fill="#000000" stroke="none" font-family="Arial" font-size="13px" font-style="normal" font-weight="normal" text-decoration="none" x="721.130859375" y="301">Envia OV</text></g></g><g transform="translate(-14,-182) scale(1,1)"><path fill="none" stroke="#000000" d="M 645 455 L 743 425" stroke-miterlimit="10"/></g><g transform="translate(-14,-182) scale(1,1)"><path fill="none" stroke="#000000" d="M 734.5146366791228 431.9999006644888 L 743 425 L 732.0502648274838 423.94961928246835" stroke-miterlimit="10"/></g><g transform="translate(-14,-182) scale(1,1)"><path fill="none" stroke="#000000" d="M 627 551 L 786 425" stroke-miterlimit="10"/></g><g transform="translate(-14,-182) scale(1,1)"><path fill="none" stroke="#000000" d="M 780.6494996690585 434.61104293032736 L 786 425 L 775.4205913029409 428.0126585635599" stroke-miterlimit="10"/></g><g transform="translate(-14,-182) scale(1,1)"><g><path fill="none" stroke="none"/><text fill="#000000" stroke="none" font-family="Arial" font-size="13px" font-style="normal" font-weight="normal" text-decoration="none" x="701.5" y="506">Envia OV</text></g></g><g transform="translate(-14,-182) scale(1,1)"><path fill="#C0C0C0" stroke="none" d="M 1073 391 L 1283.076171875 391 Q 1293.076171875 391 1293.076171875 401 L 1293.076171875 421 Q 1293.076171875 431 1283.076171875 431 L 1073 431 Q 1063 431 1063 421 L 1063 401 Q 1063 391 1073 391 Z" opacity="0.2"/></g><g transform="translate(-14,-182) scale(1,1)"><path fill="#ffffff" stroke="none" d="M 1066 384 L 1276.076171875 384 Q 1286.076171875 384 1286.076171875 394 L 1286.076171875 414 Q 1286.076171875 424 1276.076171875 424 L 1066 424 Q 1056 424 1056 414 L 1056 394 Q 1056 384 1066 384 Z"/></g><g transform="translate(-14,-182) scale(1,1)"><path fill="none" stroke="#000000" d="M 1066 384 L 1276.076171875 384 Q 1286.076171875 384 1286.076171875 394 L 1286.076171875 414 Q 1286.076171875 424 1276.076171875 424 L 1066 424 Q 1056 424 1056 414 L 1056 394 Q 1056 384 1066 384 Z" stroke-miterlimit="10"/></g><g transform="translate(-14,-182) scale(1,1)"><g><path fill="none" stroke="none"/><text fill="#000000" stroke="none" font-family="Arial" font-size="13px" font-style="normal" font-weight="bold" text-decoration="none" x="1065.194091796875" y="402">Corretora retorna execução da OV</text></g></g><g transform="translate(-14,-182) scale(1,1)"><path fill="none" stroke="#000000" d="M 905 404 L 1055 404" stroke-miterlimit="10"/></g><g transform="translate(-14,-182) scale(1,1)"><path fill="none" stroke="#000000" d="M 1044.837325142376 408.209517756016 L 1055 404 L 1044.837325142376 399.790482243984" stroke-miterlimit="10"/></g><g transform="translate(-14,-182) scale(1,1)"><g><path fill="none" stroke="none"/><text fill="#000000" stroke="none" font-family="Arial" font-size="13px" font-style="normal" font-weight="normal" text-decoration="none" x="907.5" y="394">B3 retorna para corretora</text></g></g><g transform="translate(-14,-182) scale(1,1)"><path fill="#C0C0C0" stroke="none" d="M 1423 411.5 C 1423 404.59644 1428.59644 399 1435.5 399 C 1442.40356 399 1448 404.59644 1448 411.5 C 1448 418.40356 1442.40356 424 1435.5 424 C 1428.59644 424 1423 418.40356 1423 411.5 Z" opacity="0.2"/></g><g transform="translate(-14,-182) scale(1,1)"><path fill="none" stroke="#000000" d="M 1416 404.5 C 1416 397.59644 1421.59644 392 1428.5 392 C 1435.40356 392 1441 397.59644 1441 404.5 C 1441 411.40356 1435.40356 417 1428.5 417 C 1421.59644 417 1416 411.40356 1416 404.5 Z" stroke-miterlimit="10"/></g><g transform="translate(-14,-182) scale(1,1)"><path fill="#000000" stroke="none" d="M 1421 404.5 C 1421 400.357864 1424.357864 397 1428.5 397 C 1432.642136 397 1436 400.357864 1436 404.5 C 1436 408.642136 1432.642136 412 1428.5 412 C 1424.357864 412 1421 408.642136 1421 404.5 Z"/></g><g transform="translate(-14,-182) scale(1,1)"><path fill="none" stroke="#000000" d="M 1287 404 L 1415 404" stroke-miterlimit="10"/></g><g transform="translate(-14,-182) scale(1,1)"><path fill="none" stroke="#000000" d="M 1404.837325142376 408.209517756016 L 1415 404 L 1404.837325142376 399.790482243984" stroke-miterlimit="10"/></g></g></svg>