<svg version="1.1" xmlns="http://www.w3.org/2000/svg" xmlns:xlink="http://www.w3.org/1999/xlink" width="1457.4052734375" height="500"><defs/><g><text fill="#eeeeee" stroke="none" font-family="Arial" font-size="24px" font-style="normal" font-weight="normal" text-decoration="none" x="0" y="0">UNREGISTERED</text><text fill="#eeeeee" stroke="none" font-family="Arial" font-size="24px" font-style="normal" font-weight="normal" text-decoration="none" x="0" y="30">UNREGISTERED</text><text fill="#eeeeee" stroke="none" font-family="Arial" font-size="24px" font-style="normal" font-weight="normal" text-decoration="none" x="0" y="60">UNREGISTERED</text><text fill="#eeeeee" stroke="none" font-family="Arial" font-size="24px" font-style="normal" font-weight="normal" text-decoration="none" x="0" y="90">UNREGISTERED</text><text fill="#eeeeee" stroke="none" font-family="Arial" font-size="24px" font-style="normal" font-weight="normal" text-decoration="none" x="0" y="120">UNREGISTERED</text><text fill="#eeeeee" stroke="none" font-family="Arial" font-size="24px" font-style="normal" font-weight="normal" text-decoration="none" x="0" y="150">UNREGISTERED</text><text fill="#eeeeee" stroke="none" font-family="Arial" font-size="24px" font-style="normal" font-weight="normal" text-decoration="none" x="0" y="180">UNREGISTERED</text><text fill="#eeeeee" stroke="none" font-family="Arial" font-size="24px" font-style="normal" font-weight="normal" text-decoration="none" x="0" y="210">UNREGISTERED</text><text fill="#eeeeee" stroke="none" font-family="Arial" font-size="24px" font-style="normal" font-weight="normal" text-decoration="none" x="0" y="240">UNREGISTERED</text><text fill="#eeeeee" stroke="none" font-family="Arial" font-size="24px" font-style="normal" font-weight="normal" text-decoration="none" x="0" y="270">UNREGISTERED</text><text fill="#eeeeee" stroke="none" font-family="Arial" font-size="24px" font-style="normal" font-weight="normal" text-decoration="none" x="0" y="300">UNREGISTERED</text><text fill="#eeeeee" stroke="none" font-family="Arial" font-size="24px" font-style="normal" font-weight="normal" text-decoration="none" x="0" y="330">UNREGISTERED</text><text fill="#eeeeee" stroke="none" font-family="Arial" font-size="24px" font-style="normal" font-weight="normal" text-decoration="none" x="0" y="360">UNREGISTERED</text><text fill="#eeeeee" stroke="none" font-family="Arial" font-size="24px" font-style="normal" font-weight="normal" text-decoration="none" x="0" y="390">UNREGISTERED</text><text fill="#eeeeee" stroke="none" font-family="Arial" font-size="24px" font-style="normal" font-weight="normal" text-decoration="none" x="0" y="420">UNREGISTERED</text><text fill="#eeeeee" stroke="none" font-family="Arial" font-size="24px" font-style="normal" font-weight="normal" text-decoration="none" x="0" y="450">UNREGISTERED</text><text fill="#eeeeee" stroke="none" font-family="Arial" font-size="24px" font-style="normal" font-weight="normal" text-decoration="none" x="0" y="480">UNREGISTERED</text><text fill="#eeeeee" stroke="none" font-family="Arial" font-size="24px" font-style="normal" font-weight="normal" text-decoration="none" x="200" y="0">UNREGISTERED</text><text fill="#eeeeee" stroke="none" font-family="Arial" font-size="24px" font-style="normal" font-weight="normal" text-decoration="none" x="200" y="30">UNREGISTERED</text><text fill="#eeeeee" stroke="none" font-family="Arial" font-size="24px" font-style="normal" font-weight="normal" text-decoration="none" x="200" y="60">UNREGISTERED</text><text fill="#eeeeee" stroke="none" font-family="Arial" font-size="24px" font-style="normal" font-weight="normal" text-decoration="none" x="200" y="90">UNREGISTERED</text><text fill="#eeeeee" stroke="none" font-family="Arial" font-size="24px" font-style="normal" font-weight="normal" text-decoration="none" x="200" y="120">UNREGISTERED</text><text fill="#eeeeee" stroke="none" font-family="Arial" font-size="24px" font-style="normal" font-weight="normal" text-decoration="none" x="200" y="150">UNREGISTERED</text><text fill="#eeeeee" stroke="none" font-family="Arial" font-size="24px" font-style="normal" font-weight="normal" text-decoration="none" x="200" y="180">UNREGISTERED</text><text fill="#eeeeee" stroke="none" font-family="Arial" font-size="24px" font-style="normal" font-weight="normal" text-decoration="none" x="200" y="210">UNREGISTERED</text><text fill="#eeeeee" stroke="none" font-family="Arial" font-size="24px" font-style="normal" font-weight="normal" text-decoration="none" x="200" y="240">UNREGISTERED</text><text fill="#eeeeee" stroke="none" font-family="Arial" font-size="24px" font-style="normal" font-weight="normal" text-decoration="none" x="200" y="270">UNREGISTERED</text><text fill="#eeeeee" stroke="none" font-family="Arial" font-size="24px" font-style="normal" font-weight="normal" text-decoration="none" x="200" y="300">UNREGISTERED</text><text fill="#eeeeee" stroke="none" font-family="Arial" font-size="24px" font-style="normal" font-weight="normal" text-decoration="none" x="200" y="330">UNREGISTERED</text><text fill="#eeeeee" stroke="none" font-family="Arial" font-size="24px" font-style="normal" font-weight="normal" text-decoration="none" x="200" y="360">UNREGISTERED</text><text fill="#eeeeee" stroke="none" font-family="Arial" font-size="24px" font-style="normal" font-weight="normal" text-decoration="none" x="200" y="390">UNREGISTERED</text><text fill="#eeeeee" stroke="none" font-family="Arial" font-size="24px" font-style="normal" font-weight="normal" text-decoration="none" x="200" y="420">UNREGISTERED</text><text fill="#eeeeee" stroke="none" font-family="Arial" font-size="24px" font-style="normal" font-weight="normal" text-decoration="none" x="200" y="450">UNREGISTERED</text><text fill="#eeeeee" stroke="none" font-family="Arial" font-size="24px" font-style="normal" font-weight="normal" text-decoration="none" x="200" y="480">UNREGISTERED</text><text fill="#eeeeee" stroke="none" font-family="Arial" font-size="24px" font-style="normal" font-weight="normal" text-decoration="none" x="400" y="0">UNREGISTERED</text><text fill="#eeeeee" stroke="none" font-family="Arial" font-size="24px" font-style="normal" font-weight="normal" text-decoration="none" x="400" y="30">UNREGISTERED</text><text fill="#eeeeee" stroke="none" font-family="Arial" font-size="24px" font-style="normal" font-weight="normal" text-decoration="none" x="400" y="60">UNREGISTERED</text><text fill="#eeeeee" stroke="none" font-family="Arial" font-size="24px" font-style="normal" font-weight="normal" text-decoration="none" x="400" y="90">UNREGISTERED</text><text fill="#eeeeee" stroke="none" font-family="Arial" font-size="24px" font-style="normal" font-weight="normal" text-decoration="none" x="400" y="120">UNREGISTERED</text><text fill="#eeeeee" stroke="none" font-family="Arial" font-size="24px" font-style="normal" font-weight="normal" text-decoration="none" x="400" y="150">UNREGISTERED</text><text fill="#eeeeee" stroke="none" font-family="Arial" font-size="24px" font-style="normal" font-weight="normal" text-decoration="none" x="400" y="180">UNREGISTERED</text><text fill="#eeeeee" stroke="none" font-family="Arial" font-size="24px" font-style="normal" font-weight="normal" text-decoration="none" x="400" y="210">UNREGISTERED</text><text fill="#eeeeee" stroke="none" font-family="Arial" font-size="24px" font-style="normal" font-weight="normal" text-decoration="none" x="400" y="240">UNREGISTERED</text><text fill="#eeeeee" stroke="none" font-family="Arial" font-size="24px" font-style="normal" font-weight="normal" text-decoration="none" x="400" y="270">UNREGISTERED</text><text fill="#eeeeee" stroke="none" font-family="Arial" font-size="24px" font-style="normal" font-weight="normal" text-decoration="none" x="400" y="300">UNREGISTERED</text><text fill="#eeeeee" stroke="none" font-family="Arial" font-size="24px" font-style="normal" font-weight="normal" text-decoration="none" x="400" y="330">UNREGISTERED</text><text fill="#eeeeee" stroke="none" font-family="Arial" font-size="24px" font-style="normal" font-weight="normal" text-decoration="none" x="400" y="360">UNREGISTERED</text><text fill="#eeeeee" stroke="none" font-family="Arial" font-size="24px" font-style="normal" font-weight="normal" text-decoration="none" x="400" y="390">UNREGISTERED</text><text fill="#eeeeee" stroke="none" font-family="Arial" font-size="24px" font-style="normal" font-weight="normal" text-decoration="none" x="400" y="420">UNREGISTERED</text><text fill="#eeeeee" stroke="none" font-family="Arial" font-size="24px" font-style="normal" font-weight="normal" text-decoration="none" x="400" y="450">UNREGISTERED</text><text fill="#eeeeee" stroke="none" font-family="Arial" font-size="24px" font-style="normal" font-weight="normal" text-decoration="none" x="400" y="480">UNREGISTERED</text><text fill="#eeeeee" stroke="none" font-family="Arial" font-size="24px" font-style="normal" font-weight="normal" text-decoration="none" x="600" y="0">UNREGISTERED</text><text fill="#eeeeee" stroke="none" font-family="Arial" font-size="24px" font-style="normal" font-weight="normal" text-decoration="none" x="600" y="30">UNREGISTERED</text><text fill="#eeeeee" stroke="none" font-family="Arial" font-size="24px" font-style="normal" font-weight="normal" text-decoration="none" x="600" y="60">UNREGISTERED</text><text fill="#eeeeee" stroke="none" font-family="Arial" font-size="24px" font-style="normal" font-weight="normal" text-decoration="none" x="600" y="90">UNREGISTERED</text><text fill="#eeeeee" stroke="none" font-family="Arial" font-size="24px" font-style="normal" font-weight="normal" text-decoration="none" x="600" y="120">UNREGISTERED</text><text fill="#eeeeee" stroke="none" font-family="Arial" font-size="24px" font-style="normal" font-weight="normal" text-decoration="none" x="600" y="150">UNREGISTERED</text><text fill="#eeeeee" stroke="none" font-family="Arial" font-size="24px" font-style="normal" font-weight="normal" text-decoration="none" x="600" y="180">UNREGISTERED</text><text fill="#eeeeee" stroke="none" font-family="Arial" font-size="24px" font-style="normal" font-weight="normal" text-decoration="none" x="600" y="210">UNREGISTERED</text><text fill="#eeeeee" stroke="none" font-family="Arial" font-size="24px" font-style="normal" font-weight="normal" text-decoration="none" x="600" y="240">UNREGISTERED</text><text fill="#eeeeee" stroke="none" font-family="Arial" font-size="24px" font-style="normal" font-weight="normal" text-decoration="none" x="600" y="270">UNREGISTERED</text><text fill="#eeeeee" stroke="none" font-family="Arial" font-size="24px" font-style="normal" font-weight="normal" text-decoration="none" x="600" y="300">UNREGISTERED</text><text fill="#eeeeee" stroke="none" font-family="Arial" font-size="24px" font-style="normal" font-weight="normal" text-decoration="none" x="600" y="330">UNREGISTERED</text><text fill="#eeeeee" stroke="none" font-family="Arial" font-size="24px" font-style="normal" font-weight="normal" text-decoration="none" x="600" y="360">UNREGISTERED</text><text fill="#eeeeee" stroke="none" font-family="Arial" font-size="24px" font-style="normal" font-weight="normal" text-decoration="none" x="600" y="390">UNREGISTERED</text><text fill="#eeeeee" stroke="none" font-family="Arial" font-size="24px" font-style="normal" font-weight="normal" text-decoration="none" x="600" y="420">UNREGISTERED</text><text fill="#eeeeee" stroke="none" font-family="Arial" font-size="24px" font-style="normal" font-weight="normal" text-decoration="none" x="600" y="450">UNREGISTERED</text><text fill="#eeeeee" stroke="none" font-family="Arial" font-size="24px" font-style="normal" font-weight="normal" text-decoration="none" x="600" y="480">UNREGISTERED</text><text fill="#eeeeee" stroke="none" font-family="Arial" font-size="24px" font-style="normal" font-weight="normal" text-decoration="none" x="800" y="0">UNREGISTERED</text><text fill="#eeeeee" stroke="none" font-family="Arial" font-size="24px" font-style="normal" font-weight="normal" text-decoration="none" x="800" y="30">UNREGISTERED</text><text fill="#eeeeee" stroke="none" font-family="Arial" font-size="24px" font-style="normal" font-weight="normal" text-decoration="none" x="800" y="60">UNREGISTERED</text><text fill="#eeeeee" stroke="none" font-family="Arial" font-size="24px" font-style="normal" font-weight="normal" text-decoration="none" x="800" y="90">UNREGISTERED</text><text fill="#eeeeee" stroke="none" font-family="Arial" font-size="24px" font-style="normal" font-weight="normal" text-decoration="none" x="800" y="120">UNREGISTERED</text><text fill="#eeeeee" stroke="none" font-family="Arial" font-size="24px" font-style="normal" font-weight="normal" text-decoration="none" x="800" y="150">UNREGISTERED</text><text fill="#eeeeee" stroke="none" font-family="Arial" font-size="24px" font-style="normal" font-weight="normal" text-decoration="none" x="800" y="180">UNREGISTERED</text><text fill="#eeeeee" stroke="none" font-family="Arial" font-size="24px" font-style="normal" font-weight="normal" text-decoration="none" x="800" y="210">UNREGISTERED</text><text fill="#eeeeee" stroke="none" font-family="Arial" font-size="24px" font-style="normal" font-weight="normal" text-decoration="none" x="800" y="240">UNREGISTERED</text><text fill="#eeeeee" stroke="none" font-family="Arial" font-size="24px" font-style="normal" font-weight="normal" text-decoration="none" x="800" y="270">UNREGISTERED</text><text fill="#eeeeee" stroke="none" font-family="Arial" font-size="24px" font-style="normal" font-weight="normal" text-decoration="none" x="800" y="300">UNREGISTERED</text><text fill="#eeeeee" stroke="none" font-family="Arial" font-size="24px" font-style="normal" font-weight="normal" text-decoration="none" x="800" y="330">UNREGISTERED</text><text fill="#eeeeee" stroke="none" font-family="Arial" font-size="24px" font-style="normal" font-weight="normal" text-decoration="none" x="800" y="360">UNREGISTERED</text><text fill="#eeeeee" stroke="none" font-family="Arial" font-size="24px" font-style="normal" font-weight="normal" text-decoration="none" x="800" y="390">UNREGISTERED</text><text fill="#eeeeee" stroke="none" font-family="Arial" font-size="24px" font-style="normal" font-weight="normal" text-decoration="none" x="800" y="420">UNREGISTERED</text><text fill="#eeeeee" stroke="none" font-family="Arial" font-size="24px" font-style="normal" font-weight="normal" text-decoration="none" x="800" y="450">UNREGISTERED</text><text fill="#eeeeee" stroke="none" font-family="Arial" font-size="24px" font-style="normal" font-weight="normal" text-decoration="none" x="800" y="480">UNREGISTERED</text><text fill="#eeeeee" stroke="none" font-family="Arial" font-size="24px" font-style="normal" font-weight="normal" text-decoration="none" x="1000" y="0">UNREGISTERED</text><text fill="#eeeeee" stroke="none" font-family="Arial" font-size="24px" font-style="normal" font-weight="normal" text-decoration="none" x="1000" y="30">UNREGISTERED</text><text fill="#eeeeee" stroke="none" font-family="Arial" font-size="24px" font-style="normal" font-weight="normal" text-decoration="none" x="1000" y="60">UNREGISTERED</text><text fill="#eeeeee" stroke="none" font-family="Arial" font-size="24px" font-style="normal" font-weight="normal" text-decoration="none" x="1000" y="90">UNREGISTERED</text><text fill="#eeeeee" stroke="none" font-family="Arial" font-size="24px" font-style="normal" font-weight="normal" text-decoration="none" x="1000" y="120">UNREGISTERED</text><text fill="#eeeeee" stroke="none" font-family="Arial" font-size="24px" font-style="normal" font-weight="normal" text-decoration="none" x="1000" y="150">UNREGISTERED</text><text fill="#eeeeee" stroke="none" font-family="Arial" font-size="24px" font-style="normal" font-weight="normal" text-decoration="none" x="1000" y="180">UNREGISTERED</text><text fill="#eeeeee" stroke="none" font-family="Arial" font-size="24px" font-style="normal" font-weight="normal" text-decoration="none" x="1000" y="210">UNREGISTERED</text><text fill="#eeeeee" stroke="none" font-family="Arial" font-size="24px" font-style="normal" font-weight="normal" text-decoration="none" x="1000" y="240">UNREGISTERED</text><text fill="#eeeeee" stroke="none" font-family="Arial" font-size="24px" font-style="normal" font-weight="normal" text-decoration="none" x="1000" y="270">UNREGISTERED</text><text fill="#eeeeee" stroke="none" font-family="Arial" font-size="24px" font-style="normal" font-weight="normal" text-decoration="none" x="1000" y="300">UNREGISTERED</text><text fill="#eeeeee" stroke="none" font-family="Arial" font-size="24px" font-style="normal" font-weight="normal" text-decoration="none" x="1000" y="330">UNREGISTERED</text><text fill="#eeeeee" stroke="none" font-family="Arial" font-size="24px" font-style="normal" font-weight="normal" text-decoration="none" x="1000" y="360">UNREGISTERED</text><text fill="#eeeeee" stroke="none" font-family="Arial" font-size="24px" font-style="normal" font-weight="normal" text-decoration="none" x="1000" y="390">UNREGISTERED</text><text fill="#eeeeee" stroke="none" font-family="Arial" font-size="24px" font-style="normal" font-weight="normal" text-decoration="none" x="1000" y="420">UNREGISTERED</text><text fill="#eeeeee" stroke="none" font-family="Arial" font-size="24px" font-style="normal" font-weight="normal" text-decoration="none" x="1000" y="450">UNREGISTERED</text><text fill="#eeeeee" stroke="none" font-family="Arial" font-size="24px" font-style="normal" font-weight="normal" text-decoration="none" x="1000" y="480">UNREGISTERED</text><text fill="#eeeeee" stroke="none" font-family="Arial" font-size="24px" font-style="normal" font-weight="normal" text-decoration="none" x="1200" y="0">UNREGISTERED</text><text fill="#eeeeee" stroke="none" font-family="Arial" font-size="24px" font-style="normal" font-weight="normal" text-decoration="none" x="1200" y="30">UNREGISTERED</text><text fill="#eeeeee" stroke="none" font-family="Arial" font-size="24px" font-style="normal" font-weight="normal" text-decoration="none" x="1200" y="60">UNREGISTERED</text><text fill="#eeeeee" stroke="none" font-family="Arial" font-size="24px" font-style="normal" font-weight="normal" text-decoration="none" x="1200" y="90">UNREGISTERED</text><text fill="#eeeeee" stroke="none" font-family="Arial" font-size="24px" font-style="normal" font-weight="normal" text-decoration="none" x="1200" y="120">UNREGISTERED</text><text fill="#eeeeee" stroke="none" font-family="Arial" font-size="24px" font-style="normal" font-weight="normal" text-decoration="none" x="1200" y="150">UNREGISTERED</text><text fill="#eeeeee" stroke="none" font-family="Arial" font-size="24px" font-style="normal" font-weight="normal" text-decoration="none" x="1200" y="180">UNREGISTERED</text><text fill="#eeeeee" stroke="none" font-family="Arial" font-size="24px" font-style="normal" font-weight="normal" text-decoration="none" x="1200" y="210">UNREGISTERED</text><text fill="#eeeeee" stroke="none" font-family="Arial" font-size="24px" font-style="normal" font-weight="normal" text-decoration="none" x="1200" y="240">UNREGISTERED</text><text fill="#eeeeee" stroke="none" font-family="Arial" font-size="24px" font-style="normal" font-weight="normal" text-decoration="none" x="1200" y="270">UNREGISTERED</text><text fill="#eeeeee" stroke="none" font-family="Arial" font-size="24px" font-style="normal" font-weight="normal" text-decoration="none" x="1200" y="300">UNREGISTERED</text><text fill="#eeeeee" stroke="none" font-family="Arial" font-size="24px" font-style="normal" font-weight="normal" text-decoration="none" x="1200" y="330">UNREGISTERED</text><text fill="#eeeeee" stroke="none" font-family="Arial" font-size="24px" font-style="normal" font-weight="normal" text-decoration="none" x="1200" y="360">UNREGISTERED</text><text fill="#eeeeee" stroke="none" font-family="Arial" font-size="24px" font-style="normal" font-weight="normal" text-decoration="none" x="1200" y="390">UNREGISTERED</text><text fill="#eeeeee" stroke="none" font-family="Arial" font-size="24px" font-style="normal" font-weight="normal" text-decoration="none" x="1200" y="420">UNREGISTERED</text><text fill="#eeeeee" stroke="none" font-family="Arial" font-size="24px" font-style="normal" font-weight="normal" text-decoration="none" x="1200" y="450">UNREGISTERED</text><text fill="#eeeeee" stroke="none" font-family="Arial" font-size="24px" font-style="normal" font-weight="normal" text-decoration="none" x="1200" y="480">UNREGISTERED</text><text fill="#eeeeee" stroke="none" font-family="Arial" font-size="24px" font-style="normal" font-weight="normal" text-decoration="none" x="1400" y="0">UNREGISTERED</text><text fill="#eeeeee" stroke="none" font-family="Arial" font-size="24px" font-style="normal" font-weight="normal" text-decoration="none" x="1400" y="30">UNREGISTERED</text><text fill="#eeeeee" stroke="none" font-family="Arial" font-size="24px" font-style="normal" font-weight="normal" text-decoration="none" x="1400" y="60">UNREGISTERED</text><text fill="#eeeeee" stroke="none" font-family="Arial" font-size="24px" font-style="normal" font-weight="normal" text-decoration="none" x="1400" y="90">UNREGISTERED</text><text fill="#eeeeee" stroke="none" font-family="Arial" font-size="24px" font-style="normal" font-weight="normal" text-decoration="none" x="1400" y="120">UNREGISTERED</text><text fill="#eeeeee" stroke="none" font-family="Arial" font-size="24px" font-style="normal" font-weight="normal" text-decoration="none" x="1400" y="150">UNREGISTERED</text><text fill="#eeeeee" stroke="none" font-family="Arial" font-size="24px" font-style="normal" font-weight="normal" text-decoration="none" x="1400" y="180">UNREGISTERED</text><text fill="#eeeeee" stroke="none" font-family="Arial" font-size="24px" font-style="normal" font-weight="normal" text-decoration="none" x="1400" y="210">UNREGISTERED</text><text fill="#eeeeee" stroke="none" font-family="Arial" font-size="24px" font-style="normal" font-weight="normal" text-decoration="none" x="1400" y="240">UNREGISTERED</text><text fill="#eeeeee" stroke="none" font-family="Arial" font-size="24px" font-style="normal" font-weight="normal" text-decoration="none" x="1400" y="270">UNREGISTERED</text><text fill="#eeeeee" stroke="none" font-family="Arial" font-size="24px" font-style="normal" font-weight="normal" text-decoration="none" x="1400" y="300">UNREGISTERED</text><text fill="#eeeeee" stroke="none" font-family="Arial" font-size="24px" font-style="normal" font-weight="normal" text-decoration="none" x="1400" y="330">UNREGISTERED</text><text fill="#eeeeee" stroke="none" font-family="Arial" font-size="24px" font-style="normal" font-weight="normal" text-decoration="none" x="1400" y="360">UNREGISTERED</text><text fill="#eeeeee" stroke="none" font-family="Arial" font-size="24px" font-style="normal" font-weight="normal" text-decoration="none" x="1400" y="390">UNREGISTERED</text><text fill="#eeeeee" stroke="none" font-family="Arial" font-size="24px" font-style="normal" font-weight="normal" text-decoration="none" x="1400" y="420">UNREGISTERED</text><text fill="#eeeeee" stroke="none" font-family="Arial" font-size="24px" font-style="normal" font-weight="normal" text-decoration="none" x="1400" y="450">UNREGISTERED</text><text fill="#eeeeee" stroke="none" font-family="Arial" font-size="24px" font-style="normal" font-weight="normal" text-decoration="none" x="1400" y="480">UNREGISTERED</text><g transform="translate(-214,-238) scale(1,1)"><path fill="#C0C0C0" stroke="none" d="M 231 512.5 C 231 507.2532944 235.2532944 503 240.5 503 C 245.7467056 503 250 507.2532944 250 512.5 C 250 517.7467056 245.7467056 522 240.5 522 C 235.2532944 522 231 517.7467056 231 512.5 Z" opacity="0.2"/></g><g transform="translate(-214,-238) scale(1,1)"><path fill="#000000" stroke="none" d="M 224 505.5 C 224 500.2532944 228.2532944 496 233.5 496 C 238.7467056 496 243 500.2532944 243 505.5 C 243 510.7467056 238.7467056 515 233.5 515 C 228.2532944 515 224 510.7467056 224 505.5 Z"/></g><g transform="translate(-214,-238) scale(1,1)"><path fill="#C0C0C0" stroke="none" d="M 425 495 L 575.103515625 495 Q 585.103515625 495 585.103515625 505 L 585.103515625 525 Q 585.103515625 535 575.103515625 535 L 425 535 Q 415 535 415 525 L 415 505 Q 415 495 425 495 Z" opacity="0.2"/></g><g transform="translate(-214,-238) scale(1,1)"><path fill="#ffffff" stroke="none" d="M 418 488 L 568.103515625 488 Q 578.103515625 488 578.103515625 498 L 578.103515625 518 Q 578.103515625 528 568.103515625 528 L 418 528 Q 408 528 408 518 L 408 498 Q 408 488 418 488 Z"/></g><g transform="translate(-214,-238) scale(1,1)"><path fill="none" stroke="#000000" d="M 418 488 L 568.103515625 488 Q 578.103515625 488 578.103515625 498 L 578.103515625 518 Q 578.103515625 528 568.103515625 528 L 418 528 Q 408 528 408 518 L 408 498 Q 408 488 418 488 Z" stroke-miterlimit="10"/></g><g transform="translate(-214,-238) scale(1,1)"><g><path fill="none" stroke="none"/><text fill="#000000" stroke="none" font-family="Arial" font-size="13px" font-style="normal" font-weight="bold" text-decoration="none" x="446.082275390625" y="506">Seleciona ação</text></g></g><g transform="translate(-214,-238) scale(1,1)"><path fill="#C0C0C0" stroke="none" d="M 689 343 L 771.93896484375 343 Q 781.93896484375 343 781.93896484375 353 L 781.93896484375 373 Q 781.93896484375 383 771.93896484375 383 L 689 383 Q 679 383 679 373 L 679 353 Q 679 343 689 343 Z" opacity="0.2"/></g><g transform="translate(-214,-238) scale(1,1)"><path fill="#ffffff" stroke="none" d="M 682 336 L 764.93896484375 336 Q 774.93896484375 336 774.93896484375 346 L 774.93896484375 366 Q 774.93896484375 376 764.93896484375 376 L 682 376 Q 672 376 672 366 L 672 346 Q 672 336 682 336 Z"/></g><g transform="translate(-214,-238) scale(1,1)"><path fill="none" stroke="#000000" d="M 682 336 L 764.93896484375 336 Q 774.93896484375 336 774.93896484375 346 L 774.93896484375 366 Q 774.93896484375 376 764.93896484375 376 L 682 376 Q 672 376 672 366 L 672 346 Q 672 336 682 336 Z" stroke-miterlimit="10"/></g><g transform="translate(-214,-238) scale(1,1)"><g><path fill="none" stroke="none"/><text fill="#000000" stroke="none" font-family="Arial" font-size="13px" font-style="normal" font-weight="bold" text-decoration="none" x="688.07177734375" y="354">Fracionario</text></g></g><g transform="translate(-214,-238) scale(1,1)"><path fill="none" stroke="#000000" d="M 244 505 L 407 507" stroke-miterlimit="10"/></g><g transform="translate(-214,-238) scale(1,1)"><path fill="none" stroke="#000000" d="M 396.7864434214199 511.08451490585395 L 407 507 L 396.8897366954667 502.6661130710404" stroke-miterlimit="10"/></g><g transform="translate(-214,-238) scale(1,1)"><g><path fill="none" stroke="none"/><text fill="#000000" stroke="none" font-family="Arial" font-size="13px" font-style="normal" font-weight="normal" text-decoration="none" x="249.5" y="496">Solicita Ordem de compra</text></g></g><g transform="translate(-214,-238) scale(1,1)"><path fill="#C0C0C0" stroke="none" d="M 689 639 L 773 639 Q 783 639 783 649 L 783 669 Q 783 679 773 679 L 689 679 Q 679 679 679 669 L 679 649 Q 679 639 689 639 Z" opacity="0.2"/></g><g transform="translate(-214,-238) scale(1,1)"><path fill="#ffffff" stroke="none" d="M 682 632 L 766 632 Q 776 632 776 642 L 776 662 Q 776 672 766 672 L 682 672 Q 672 672 672 662 L 672 642 Q 672 632 682 632 Z"/></g><g transform="translate(-214,-238) scale(1,1)"><path fill="none" stroke="#000000" d="M 682 632 L 766 632 Q 776 632 776 642 L 776 662 Q 776 672 766 672 L 682 672 Q 672 672 672 662 L 672 642 Q 672 632 682 632 Z" stroke-miterlimit="10"/></g><g transform="translate(-214,-238) scale(1,1)"><g><path fill="none" stroke="none"/><text fill="#000000" stroke="none" font-family="Arial" font-size="13px" font-style="normal" font-weight="bold" text-decoration="none" x="710.279541015625" y="650">Lote</text></g></g><g transform="translate(-214,-238) scale(1,1)"><path fill="none" stroke="#000000" d="M 527 529 L 690 631" stroke-miterlimit="10"/></g><g transform="translate(-214,-238) scale(1,1)"><path fill="none" stroke="#000000" d="M 679.1520320581608 629.1774766029404 L 690 631 L 683.6180469591633 622.0406096532993" stroke-miterlimit="10"/></g><g transform="translate(-214,-238) scale(1,1)"><g><path fill="none" stroke="none"/><text fill="#000000" stroke="none" font-family="Arial" font-size="13px" font-style="normal" font-weight="normal" text-decoration="none" x="505.357666015625" y="594">Usuário seleciona</text></g></g><g transform="translate(-214,-238) scale(1,1)"><path fill="none" stroke="#000000" d="M 525 487 L 691 377" stroke-miterlimit="10"/></g><g transform="translate(-214,-238) scale(1,1)"><path fill="none" stroke="#000000" d="M 684.8537285990203 386.1226831505594 L 691 377 L 680.2032186949775 379.1046409317311" stroke-miterlimit="10"/></g><g transform="translate(-214,-238) scale(1,1)"><g><path fill="none" stroke="none"/><text fill="#000000" stroke="none" font-family="Arial" font-size="13px" font-style="normal" font-weight="normal" text-decoration="none" x="511.5" y="418">Usuário seleciona</text></g></g><g transform="translate(-214,-238) scale(1,1)"><path fill="#C0C0C0" stroke="none" d="M 905 255 L 969.10546875 255 Q 979.10546875 255 979.10546875 265 L 979.10546875 285 Q 979.10546875 295 969.10546875 295 L 905 295 Q 895 295 895 285 L 895 265 Q 895 255 905 255 Z" opacity="0.2"/></g><g transform="translate(-214,-238) scale(1,1)"><path fill="#ffffff" stroke="none" d="M 898 248 L 962.10546875 248 Q 972.10546875 248 972.10546875 258 L 972.10546875 278 Q 972.10546875 288 962.10546875 288 L 898 288 Q 888 288 888 278 L 888 258 Q 888 248 898 248 Z"/></g><g transform="translate(-214,-238) scale(1,1)"><path fill="none" stroke="#000000" d="M 898 248 L 962.10546875 248 Q 972.10546875 248 972.10546875 258 L 972.10546875 278 Q 972.10546875 288 962.10546875 288 L 898 288 Q 888 288 888 278 L 888 258 Q 888 248 898 248 Z" stroke-miterlimit="10"/></g><g transform="translate(-214,-238) scale(1,1)"><g><path fill="none" stroke="none"/><text fill="#000000" stroke="none" font-family="Arial" font-size="13px" font-style="normal" font-weight="bold" text-decoration="none" x="892.5" y="266">Com gatilho</text></g></g><g transform="translate(-214,-238) scale(1,1)"><path fill="#C0C0C0" stroke="none" d="M 905 367 L 972 367 Q 982 367 982 377 L 982 404 Q 982 414 972 414 L 905 414 Q 895 414 895 404 L 895 377 Q 895 367 905 367 Z" opacity="0.2"/></g><g transform="translate(-214,-238) scale(1,1)"><path fill="#ffffff" stroke="none" d="M 898 360 L 965 360 Q 975 360 975 370 L 975 397 Q 975 407 965 407 L 898 407 Q 888 407 888 397 L 888 370 Q 888 360 898 360 Z"/></g><g transform="translate(-214,-238) scale(1,1)"><path fill="none" stroke="#000000" d="M 898 360 L 965 360 Q 975 360 975 370 L 975 397 Q 975 407 965 407 L 898 407 Q 888 407 888 397 L 888 370 Q 888 360 898 360 Z" stroke-miterlimit="10"/></g><g transform="translate(-214,-238) scale(1,1)"><g><path fill="none" stroke="none"/><text fill="#000000" stroke="none" font-family="Arial" font-size="13px" font-style="normal" font-weight="bold" text-decoration="none" x="894.661376953125" y="378">Sem gatilho</text></g></g><g transform="translate(-214,-238) scale(1,1)"><path fill="none" stroke="#000000" d="M 772 335 L 887 286" stroke-miterlimit="10"/></g><g transform="translate(-214,-238) scale(1,1)"><path fill="none" stroke="#000000" d="M 879.3007164644753 293.8562734829942 L 887 286 L 876.0005601470713 286.1110086564338" stroke-miterlimit="10"/></g><g transform="translate(-214,-238) scale(1,1)"><g><path fill="none" stroke="none"/><text fill="#000000" stroke="none" font-family="Arial" font-size="13px" font-style="normal" font-weight="normal" text-decoration="none" x="751.5" y="282">Usuário seleciona</text></g></g><g transform="translate(-214,-238) scale(1,1)"><path fill="none" stroke="#000000" d="M 776 363 L 887 377" stroke-miterlimit="10"/></g><g transform="translate(-214,-238) scale(1,1)"><path fill="none" stroke="#000000" d="M 876.3904493175208 379.90472620326034 L 887 377 L 877.443963171261 371.5518663628923" stroke-miterlimit="10"/></g><g transform="translate(-214,-238) scale(1,1)"><g><path fill="none" stroke="none"/><text fill="#000000" stroke="none" font-family="Arial" font-size="13px" font-style="normal" font-weight="normal" text-decoration="none" x="767.5" y="395">Usuário seleciona</text></g></g><g transform="translate(-214,-238) scale(1,1)"><path fill="#C0C0C0" stroke="none" d="M 905 575 L 972 575 Q 982 575 982 585 L 982 612 Q 982 622 972 622 L 905 622 Q 895 622 895 612 L 895 585 Q 895 575 905 575 Z" opacity="0.2"/></g><g transform="translate(-214,-238) scale(1,1)"><path fill="#ffffff" stroke="none" d="M 898 568 L 965 568 Q 975 568 975 578 L 975 605 Q 975 615 965 615 L 898 615 Q 888 615 888 605 L 888 578 Q 888 568 898 568 Z"/></g><g transform="translate(-214,-238) scale(1,1)"><path fill="none" stroke="#000000" d="M 898 568 L 965 568 Q 975 568 975 578 L 975 605 Q 975 615 965 615 L 898 615 Q 888 615 888 605 L 888 578 Q 888 568 898 568 Z" stroke-miterlimit="10"/></g><g transform="translate(-214,-238) scale(1,1)"><g><path fill="none" stroke="none"/><text fill="#000000" stroke="none" font-family="Arial" font-size="13px" font-style="normal" font-weight="bold" text-decoration="none" x="893.947265625" y="586">Com gatilho</text></g></g><g transform="translate(-214,-238) scale(1,1)"><path fill="#C0C0C0" stroke="none" d="M 905 687 L 973 687 Q 983 687 983 697 L 983 725 Q 983 735 973 735 L 905 735 Q 895 735 895 725 L 895 697 Q 895 687 905 687 Z" opacity="0.2"/></g><g transform="translate(-214,-238) scale(1,1)"><path fill="#ffffff" stroke="none" d="M 898 680 L 966 680 Q 976 680 976 690 L 976 718 Q 976 728 966 728 L 898 728 Q 888 728 888 718 L 888 690 Q 888 680 898 680 Z"/></g><g transform="translate(-214,-238) scale(1,1)"><path fill="none" stroke="#000000" d="M 898 680 L 966 680 Q 976 680 976 690 L 976 718 Q 976 728 966 728 L 898 728 Q 888 728 888 718 L 888 690 Q 888 680 898 680 Z" stroke-miterlimit="10"/></g><g transform="translate(-214,-238) scale(1,1)"><g><path fill="none" stroke="none"/><text fill="#000000" stroke="none" font-family="Arial" font-size="13px" font-style="normal" font-weight="bold" text-decoration="none" x="895.161376953125" y="698">Sem gatilho</text></g></g><g transform="translate(-214,-238) scale(1,1)"><path fill="none" stroke="#000000" d="M 777 636 L 887 604" stroke-miterlimit="10"/></g><g transform="translate(-214,-238) scale(1,1)"><path fill="none" stroke="#000000" d="M 878.4176900627021 610.8806944518818 L 887 604 L 876.0660047388936 602.7967761512903" stroke-miterlimit="10"/></g><g transform="translate(-214,-238) scale(1,1)"><g><path fill="none" stroke="none"/><text fill="#000000" stroke="none" font-family="Arial" font-size="13px" font-style="normal" font-weight="normal" text-decoration="none" x="759.5" y="602">Usuário seleciona</text></g></g><g transform="translate(-214,-238) scale(1,1)"><path fill="none" stroke="#000000" d="M 777 665 L 887 693" stroke-miterlimit="10"/></g><g transform="translate(-214,-238) scale(1,1)"><path fill="none" stroke="#000000" d="M 876.1129797041046 694.5725104377282 L 887 693 L 878.1897813278526 686.413646915861" stroke-miterlimit="10"/></g><g transform="translate(-214,-238) scale(1,1)"><g><path fill="none" stroke="none"/><text fill="#000000" stroke="none" font-family="Arial" font-size="13px" font-style="normal" font-weight="normal" text-decoration="none" x="759.5" y="715">Usuário seleciona</text></g></g><g transform="translate(-214,-238) scale(1,1)"><path fill="#C0C0C0" stroke="none" d="M 1089 463 L 1268.734375 463 Q 1278.734375 463 1278.734375 473 L 1278.734375 493 Q 1278.734375 503 1268.734375 503 L 1089 503 Q 1079 503 1079 493 L 1079 473 Q 1079 463 1089 463 Z" opacity="0.2"/></g><g transform="translate(-214,-238) scale(1,1)"><path fill="#ffffff" stroke="none" d="M 1082 456 L 1261.734375 456 Q 1271.734375 456 1271.734375 466 L 1271.734375 486 Q 1271.734375 496 1261.734375 496 L 1082 496 Q 1072 496 1072 486 L 1072 466 Q 1072 456 1082 456 Z"/></g><g transform="translate(-214,-238) scale(1,1)"><path fill="none" stroke="#000000" d="M 1082 456 L 1261.734375 456 Q 1271.734375 456 1271.734375 466 L 1271.734375 486 Q 1271.734375 496 1261.734375 496 L 1082 496 Q 1072 496 1072 486 L 1072 466 Q 1072 456 1082 456 Z" stroke-miterlimit="10"/></g><g transform="translate(-214,-238) scale(1,1)"><g><path fill="none" stroke="none"/><text fill="#000000" stroke="none" font-family="Arial" font-size="13px" font-style="normal" font-weight="bold" text-decoration="none" x="1076.5" y="474">Corretora envia ordem para B3</text></g></g><g transform="translate(-214,-238) scale(1,1)"><path fill="none" stroke="#000000" d="M 958 679 L 1149 497" stroke-miterlimit="10"/></g><g transform="translate(-214,-238) scale(1,1)"><path fill="none" stroke="#000000" d="M 1144.546566441513 507.0581772474014 L 1149 497 L 1138.7387415932164 500.9631522692439" stroke-miterlimit="10"/></g><g transform="translate(-214,-238) scale(1,1)"><g><path fill="none" stroke="none"/><text fill="#000000" stroke="none" font-family="Arial" font-size="13px" font-style="normal" font-weight="normal" text-decoration="none" x="1031.5" y="626">Envia OC</text></g></g><g transform="translate(-214,-238) scale(1,1)"><path fill="none" stroke="#000000" d="M 976 569 L 1127 497" stroke-miterlimit="10"/></g><g transform="translate(-214,-238) scale(1,1)"><path fill="none" stroke="#000000" d="M 1119.6385354926701 505.17366749429664 L 1127 497 L 1116.0150028150217 497.57431423978414" stroke-miterlimit="10"/></g><g transform="translate(-214,-238) scale(1,1)"><g><path fill="none" stroke="none"/><text fill="#000000" stroke="none" font-family="Arial" font-size="13px" font-style="normal" font-weight="normal" text-decoration="none" x="991.5" y="523">Envia OC</text></g></g><g transform="translate(-214,-238) scale(1,1)"><path fill="none" stroke="#000000" d="M 976 400 L 1117 455" stroke-miterlimit="10"/></g><g transform="translate(-214,-238) scale(1,1)"><path fill="none" stroke="#000000" d="M 1106.0023751922722 455.228579501377 L 1117 455 L 1109.0618748060463 447.3851350369742" stroke-miterlimit="10"/></g><g transform="translate(-214,-238) scale(1,1)"><g><path fill="none" stroke="none"/><text fill="#000000" stroke="none" font-family="Arial" font-size="13px" font-style="normal" font-weight="normal" text-decoration="none" x="991.5" y="443">Envia OC</text></g></g><g transform="translate(-214,-238) scale(1,1)"><path fill="none" stroke="#000000" d="M 954 289 L 1147 455" stroke-miterlimit="10"/></g><g transform="translate(-214,-238) scale(1,1)"><path fill="none" stroke="#000000" d="M 1136.5502441094427 451.5645085027372 L 1147 455 L 1142.0401660824662 445.1816474136197" stroke-miterlimit="10"/></g><g transform="translate(-214,-238) scale(1,1)"><g><path fill="none" stroke="none"/><text fill="#000000" stroke="none" font-family="Arial" font-size="13px" font-style="normal" font-weight="normal" text-decoration="none" x="1071.5" y="355">Envia OC</text></g></g><g transform="translate(-214,-238) scale(1,1)"><path fill="#C0C0C0" stroke="none" d="M 1457 463 L 1658.4052734375 463 Q 1668.4052734375 463 1668.4052734375 473 L 1668.4052734375 493 Q 1668.4052734375 503 1658.4052734375 503 L 1457 503 Q 1447 503 1447 493 L 1447 473 Q 1447 463 1457 463 Z" opacity="0.2"/></g><g transform="translate(-214,-238) scale(1,1)"><path fill="#ffffff" stroke="none" d="M 1450 456 L 1651.4052734375 456 Q 1661.4052734375 456 1661.4052734375 466 L 1661.4052734375 486 Q 1661.4052734375 496 1651.4052734375 496 L 1450 496 Q 1440 496 1440 486 L 1440 466 Q 1440 456 1450 456 Z"/></g><g transform="translate(-214,-238) scale(1,1)"><path fill="none" stroke="#000000" d="M 1450 456 L 1651.4052734375 456 Q 1661.4052734375 456 1661.4052734375 466 L 1661.4052734375 486 Q 1661.4052734375 496 1651.4052734375 496 L 1450 496 Q 1440 496 1440 486 L 1440 466 Q 1440 456 1450 456 Z" stroke-miterlimit="10"/></g><g transform="translate(-214,-238) scale(1,1)"><g><path fill="none" stroke="none"/><text fill="#000000" stroke="none" font-family="Arial" font-size="13px" font-style="normal" font-weight="bold" text-decoration="none" x="1444.5" y="474">Corretora retorna execução da OC</text></g></g><g transform="translate(-214,-238) scale(1,1)"><path fill="none" stroke="#000000" d="M 1273 476 L 1439 476" stroke-miterlimit="10"/></g><g transform="translate(-214,-238) scale(1,1)"><path fill="none" stroke="#000000" d="M 1428.837325142376 480.209517756016 L 1439 476 L 1428.837325142376 471.790482243984" stroke-miterlimit="10"/></g><g transform="translate(-214,-238) scale(1,1)"><g><path fill="none" stroke="none"/><text fill="#000000" stroke="none" font-family="Arial" font-size="13px" font-style="normal" font-weight="normal" text-decoration="none" x="1283.5" y="466">B3 retorna para corretora</text></g></g></g></svg>