<svg version="1.1" xmlns="http://www.w3.org/2000/svg" xmlns:xlink="http://www.w3.org/1999/xlink" width="820" height="278"><defs/><g><text fill="#eeeeee" stroke="none" font-family="Arial" font-size="24px" font-style="normal" font-weight="normal" text-decoration="none" x="0" y="0">UNREGISTERED</text><text fill="#eeeeee" stroke="none" font-family="Arial" font-size="24px" font-style="normal" font-weight="normal" text-decoration="none" x="0" y="30">UNREGISTERED</text><text fill="#eeeeee" stroke="none" font-family="Arial" font-size="24px" font-style="normal" font-weight="normal" text-decoration="none" x="0" y="60">UNREGISTERED</text><text fill="#eeeeee" stroke="none" font-family="Arial" font-size="24px" font-style="normal" font-weight="normal" text-decoration="none" x="0" y="90">UNREGISTERED</text><text fill="#eeeeee" stroke="none" font-family="Arial" font-size="24px" font-style="normal" font-weight="normal" text-decoration="none" x="0" y="120">UNREGISTERED</text><text fill="#eeeeee" stroke="none" font-family="Arial" font-size="24px" font-style="normal" font-weight="normal" text-decoration="none" x="0" y="150">UNREGISTERED</text><text fill="#eeeeee" stroke="none" font-family="Arial" font-size="24px" font-style="normal" font-weight="normal" text-decoration="none" x="0" y="180">UNREGISTERED</text><text fill="#eeeeee" stroke="none" font-family="Arial" font-size="24px" font-style="normal" font-weight="normal" text-decoration="none" x="0" y="210">UNREGISTERED</text><text fill="#eeeeee" stroke="none" font-family="Arial" font-size="24px" font-style="normal" font-weight="normal" text-decoration="none" x="0" y="240">UNREGISTERED</text><text fill="#eeeeee" stroke="none" font-family="Arial" font-size="24px" font-style="normal" font-weight="normal" text-decoration="none" x="0" y="270">UNREGISTERED</text><text fill="#eeeeee" stroke="none" font-family="Arial" font-size="24px" font-style="normal" font-weight="normal" text-decoration="none" x="200" y="0">UNREGISTERED</text><text fill="#eeeeee" stroke="none" font-family="Arial" font-size="24px" font-style="normal" font-weight="normal" text-decoration="none" x="200" y="30">UNREGISTERED</text><text fill="#eeeeee" stroke="none" font-family="Arial" font-size="24px" font-style="normal" font-weight="normal" text-decoration="none" x="200" y="60">UNREGISTERED</text><text fill="#eeeeee" stroke="none" font-family="Arial" font-size="24px" font-style="normal" font-weight="normal" text-decoration="none" x="200" y="90">UNREGISTERED</text><text fill="#eeeeee" stroke="none" font-family="Arial" font-size="24px" font-style="normal" font-weight="normal" text-decoration="none" x="200" y="120">UNREGISTERED</text><text fill="#eeeeee" stroke="none" font-family="Arial" font-size="24px" font-style="normal" font-weight="normal" text-decoration="none" x="200" y="150">UNREGISTERED</text><text fill="#eeeeee" stroke="none" font-family="Arial" font-size="24px" font-style="normal" font-weight="normal" text-decoration="none" x="200" y="180">UNREGISTERED</text><text fill="#eeeeee" stroke="none" font-family="Arial" font-size="24px" font-style="normal" font-weight="normal" text-decoration="none" x="200" y="210">UNREGISTERED</text><text fill="#eeeeee" stroke="none" font-family="Arial" font-size="24px" font-style="normal" font-weight="normal" text-decoration="none" x="200" y="240">UNREGISTERED</text><text fill="#eeeeee" stroke="none" font-family="Arial" font-size="24px" font-style="normal" font-weight="normal" text-decoration="none" x="200" y="270">UNREGISTERED</text><text fill="#eeeeee" stroke="none" font-family="Arial" font-size="24px" font-style="normal" font-weight="normal" text-decoration="none" x="400" y="0">UNREGISTERED</text><text fill="#eeeeee" stroke="none" font-family="Arial" font-size="24px" font-style="normal" font-weight="normal" text-decoration="none" x="400" y="30">UNREGISTERED</text><text fill="#eeeeee" stroke="none" font-family="Arial" font-size="24px" font-style="normal" font-weight="normal" text-decoration="none" x="400" y="60">UNREGISTERED</text><text fill="#eeeeee" stroke="none" font-family="Arial" font-size="24px" font-style="normal" font-weight="normal" text-decoration="none" x="400" y="90">UNREGISTERED</text><text fill="#eeeeee" stroke="none" font-family="Arial" font-size="24px" font-style="normal" font-weight="normal" text-decoration="none" x="400" y="120">UNREGISTERED</text><text fill="#eeeeee" stroke="none" font-family="Arial" font-size="24px" font-style="normal" font-weight="normal" text-decoration="none" x="400" y="150">UNREGISTERED</text><text fill="#eeeeee" stroke="none" font-family="Arial" font-size="24px" font-style="normal" font-weight="normal" text-decoration="none" x="400" y="180">UNREGISTERED</text><text fill="#eeeeee" stroke="none" font-family="Arial" font-size="24px" font-style="normal" font-weight="normal" text-decoration="none" x="400" y="210">UNREGISTERED</text><text fill="#eeeeee" stroke="none" font-family="Arial" font-size="24px" font-style="normal" font-weight="normal" text-decoration="none" x="400" y="240">UNREGISTERED</text><text fill="#eeeeee" stroke="none" font-family="Arial" font-size="24px" font-style="normal" font-weight="normal" text-decoration="none" x="400" y="270">UNREGISTERED</text><text fill="#eeeeee" stroke="none" font-family="Arial" font-size="24px" font-style="normal" font-weight="normal" text-decoration="none" x="600" y="0">UNREGISTERED</text><text fill="#eeeeee" stroke="none" font-family="Arial" font-size="24px" font-style="normal" font-weight="normal" text-decoration="none" x="600" y="30">UNREGISTERED</text><text fill="#eeeeee" stroke="none" font-family="Arial" font-size="24px" font-style="normal" font-weight="normal" text-decoration="none" x="600" y="60">UNREGISTERED</text><text fill="#eeeeee" stroke="none" font-family="Arial" font-size="24px" font-style="normal" font-weight="normal" text-decoration="none" x="600" y="90">UNREGISTERED</text><text fill="#eeeeee" stroke="none" font-family="Arial" font-size="24px" font-style="normal" font-weight="normal" text-decoration="none" x="600" y="120">UNREGISTERED</text><text fill="#eeeeee" stroke="none" font-family="Arial" font-size="24px" font-style="normal" font-weight="normal" text-decoration="none" x="600" y="150">UNREGISTERED</text><text fill="#eeeeee" stroke="none" font-family="Arial" font-size="24px" font-style="normal" font-weight="normal" text-decoration="none" x="600" y="180">UNREGISTERED</text><text fill="#eeeeee" stroke="none" font-family="Arial" font-size="24px" font-style="normal" font-weight="normal" text-decoration="none" x="600" y="210">UNREGISTERED</text><text fill="#eeeeee" stroke="none" font-family="Arial" font-size="24px" font-style="normal" font-weight="normal" text-decoration="none" x="600" y="240">UNREGISTERED</text><text fill="#eeeeee" stroke="none" font-family="Arial" font-size="24px" font-style="normal" font-weight="normal" text-decoration="none" x="600" y="270">UNREGISTERED</text><text fill="#eeeeee" stroke="none" font-family="Arial" font-size="24px" font-style="normal" font-weight="normal" text-decoration="none" x="800" y="0">UNREGISTERED</text><text fill="#eeeeee" stroke="none" font-family="Arial" font-size="24px" font-style="normal" font-weight="normal" text-decoration="none" x="800" y="30">UNREGISTERED</text><text fill="#eeeeee" stroke="none" font-family="Arial" font-size="24px" font-style="normal" font-weight="normal" text-decoration="none" x="800" y="60">UNREGISTERED</text><text fill="#eeeeee" stroke="none" font-family="Arial" font-size="24px" font-style="normal" font-weight="normal" text-decoration="none" x="800" y="90">UNREGISTERED</text><text fill="#eeeeee" stroke="none" font-family="Arial" font-size="24px" font-style="normal" font-weight="normal" text-decoration="none" x="800" y="120">UNREGISTERED</text><text fill="#eeeeee" stroke="none" font-family="Arial" font-size="24px" font-style="normal" font-weight="normal" text-decoration="none" x="800" y="150">UNREGISTERED</text><text fill="#eeeeee" stroke="none" font-family="Arial" font-size="24px" font-style="normal" font-weight="normal" text-decoration="none" x="800" y="180">UNREGISTERED</text><text fill="#eeeeee" stroke="none" font-family="Arial" font-size="24px" font-style="normal" font-weight="normal" text-decoration="none" x="800" y="210">UNREGISTERED</text><text fill="#eeeeee" stroke="none" font-family="Arial" font-size="24px" font-style="normal" font-weight="normal" text-decoration="none" x="800" y="240">UNREGISTERED</text><text fill="#eeeeee" stroke="none" font-family="Arial" font-size="24px" font-style="normal" font-weight="normal" text-decoration="none" x="800" y="270">UNREGISTERED</text><g transform="translate(-206,-94) scale(1,1)"><path fill="#ffffff" stroke="none" d="M 260.02116672585225 265.68 C 260.02116672585225 260.886167936 263.90700905079774 257 268.700439453125 257 C 273.49386985545226 257 277.37971218039775 260.886167936 277.37971218039775 265.68 C 277.37971218039775 270.473832064 273.49386985545226 274.36 268.700439453125 274.36 C 263.90700905079774 274.36 260.02116672585225 270.473832064 260.02116672585225 265.68 Z"/></g><g transform="translate(-206,-94) scale(1,1)"><path fill="none" stroke="#000000" d="M 260.02116672585225 265.68 C 260.02116672585225 260.886167936 263.90700905079774 257 268.700439453125 257 C 273.49386985545226 257 277.37971218039775 260.886167936 277.37971218039775 265.68 C 277.37971218039775 270.473832064 273.49386985545226 274.36 268.700439453125 274.36 C 263.90700905079774 274.36 260.02116672585225 270.473832064 260.02116672585225 265.68 Z" stroke-miterlimit="10"/></g><g transform="translate(-206,-94) scale(1,1)"><path fill="none" stroke="#000000" d="M 268.700439453125 274.36 L 268.700439453125 291.64" stroke-miterlimit="10"/></g><g transform="translate(-206,-94) scale(1,1)"><path fill="none" stroke="#000000" d="M 259.51062127130683 280.84 L 277.89025763494317 280.84" stroke-miterlimit="10"/></g><g transform="translate(-206,-94) scale(1,1)"><path fill="none" stroke="#000000" d="M 268.700439453125 291.64 L 255.93680308948865 309" stroke-miterlimit="10"/></g><g transform="translate(-206,-94) scale(1,1)"><path fill="none" stroke="#000000" d="M 268.700439453125 291.64 L 281.46407581676135 309" stroke-miterlimit="10"/></g><g transform="translate(-206,-94) scale(1,1)"><g><path fill="none" stroke="none"/><text fill="#000000" stroke="none" font-family="Arial" font-size="13px" font-style="normal" font-weight="bold" text-decoration="none" x="244.5" y="328">Usuário</text></g></g><g transform="translate(-206,-94) scale(1,1)"><path fill="#C0C0C0" stroke="none" d="M 423 184 C 423 174.6111584 491.0527104 167 575 167 C 658.9472896 167 727 174.6111584 727 184 C 727 193.3888416 658.9472896 201 575 201 C 491.0527104 201 423 193.3888416 423 184 Z" opacity="0.2"/></g><g transform="translate(-206,-94) scale(1,1)"><path fill="#ffffff" stroke="none" d="M 416 177 C 416 167.6111584 484.0527104 160 568 160 C 651.9472896 160 720 167.6111584 720 177 C 720 186.3888416 651.9472896 194 568 194 C 484.0527104 194 416 186.3888416 416 177 Z"/></g><g transform="translate(-206,-94) scale(1,1)"><path fill="none" stroke="#000000" d="M 416 177 C 416 167.6111584 484.0527104 160 568 160 C 651.9472896 160 720 167.6111584 720 177 C 720 186.3888416 651.9472896 194 568 194 C 484.0527104 194 416 186.3888416 416 177 Z" stroke-miterlimit="10"/></g><g transform="translate(-206,-94) scale(1,1)"><g><path fill="none" stroke="none"/><text fill="#000000" stroke="none" font-family="Arial" font-size="13px" font-style="normal" font-weight="bold" text-decoration="none" x="539.825927734375" y="182.5">Cadastro</text></g></g><g transform="translate(-206,-94) scale(1,1)"><path fill="none" stroke="#000000" d="M 298 283 L 522 195" stroke-miterlimit="10"/></g><g transform="translate(-206,-94) scale(1,1)"><path fill="#C0C0C0" stroke="none" d="M 423 228 C 423 218.6111584 491.0527104 211 575 211 C 658.9472896 211 727 218.6111584 727 228 C 727 237.3888416 658.9472896 245 575 245 C 491.0527104 245 423 237.3888416 423 228 Z" opacity="0.2"/></g><g transform="translate(-206,-94) scale(1,1)"><path fill="#ffffff" stroke="none" d="M 416 221 C 416 211.6111584 484.0527104 204 568 204 C 651.9472896 204 720 211.6111584 720 221 C 720 230.3888416 651.9472896 238 568 238 C 484.0527104 238 416 230.3888416 416 221 Z"/></g><g transform="translate(-206,-94) scale(1,1)"><path fill="none" stroke="#000000" d="M 416 221 C 416 211.6111584 484.0527104 204 568 204 C 651.9472896 204 720 211.6111584 720 221 C 720 230.3888416 651.9472896 238 568 238 C 484.0527104 238 416 230.3888416 416 221 Z" stroke-miterlimit="10"/></g><g transform="translate(-206,-94) scale(1,1)"><g><path fill="none" stroke="none"/><text fill="#000000" stroke="none" font-family="Arial" font-size="13px" font-style="normal" font-weight="bold" text-decoration="none" x="512.372314453125" y="226.5">Ordem de compra</text></g></g><g transform="translate(-206,-94) scale(1,1)"><path fill="none" stroke="#000000" d="M 298 288 L 495 239" stroke-miterlimit="10"/></g><g transform="translate(-206,-94) scale(1,1)"><path fill="#C0C0C0" stroke="none" d="M 423 272 C 423 262.6111584 491.0527104 255 575 255 C 658.9472896 255 727 262.6111584 727 272 C 727 281.3888416 658.9472896 289 575 289 C 491.0527104 289 423 281.3888416 423 272 Z" opacity="0.2"/></g><g transform="translate(-206,-94) scale(1,1)"><path fill="#ffffff" stroke="none" d="M 416 265 C 416 255.6111584 484.0527104 248 568 248 C 651.9472896 248 720 255.6111584 720 265 C 720 274.3888416 651.9472896 282 568 282 C 484.0527104 282 416 274.3888416 416 265 Z"/></g><g transform="translate(-206,-94) scale(1,1)"><path fill="none" stroke="#000000" d="M 416 265 C 416 255.6111584 484.0527104 248 568 248 C 651.9472896 248 720 255.6111584 720 265 C 720 274.3888416 651.9472896 282 568 282 C 484.0527104 282 416 274.3888416 416 265 Z" stroke-miterlimit="10"/></g><g transform="translate(-206,-94) scale(1,1)"><g><path fill="none" stroke="none"/><text fill="#000000" stroke="none" font-family="Arial" font-size="13px" font-style="normal" font-weight="bold" text-decoration="none" x="517.06640625" y="270.5">Ordem de venda</text></g></g><g transform="translate(-206,-94) scale(1,1)"><path fill="none" stroke="#000000" d="M 298 292 L 415 280" stroke-miterlimit="10"/></g><g transform="translate(-206,-94) scale(1,1)"><path fill="#C0C0C0" stroke="none" d="M 415 352 C 415 342.6111584 485.2912864 335 572 335 C 658.7087136 335 729 342.6111584 729 352 C 729 361.3888416 658.7087136 369 572 369 C 485.2912864 369 415 361.3888416 415 352 Z" opacity="0.2"/></g><g transform="translate(-206,-94) scale(1,1)"><path fill="#ffffff" stroke="none" d="M 408 345 C 408 335.6111584 478.2912864 328 565 328 C 651.7087136 328 722 335.6111584 722 345 C 722 354.3888416 651.7087136 362 565 362 C 478.2912864 362 408 354.3888416 408 345 Z"/></g><g transform="translate(-206,-94) scale(1,1)"><path fill="none" stroke="#000000" d="M 408 345 C 408 335.6111584 478.2912864 328 565 328 C 651.7087136 328 722 335.6111584 722 345 C 722 354.3888416 651.7087136 362 565 362 C 478.2912864 362 408 354.3888416 408 345 Z" stroke-miterlimit="10"/></g><g transform="translate(-206,-94) scale(1,1)"><g><path fill="none" stroke="none"/><text fill="#000000" stroke="none" font-family="Arial" font-size="13px" font-style="normal" font-weight="bold" text-decoration="none" x="489.142333984375" y="350.5">Carteira de investimento</text></g></g><g transform="translate(-206,-94) scale(1,1)"><path fill="none" stroke="#000000" d="M 298 300 L 458 327" stroke-miterlimit="10"/></g><g transform="translate(-206,-94) scale(1,1)"><path fill="#C0C0C0" stroke="none" d="M 423 312 C 423 302.6111584 492.8435712 295 579 295 C 665.1564288 295 735 302.6111584 735 312 C 735 321.3888416 665.1564288 329 579 329 C 492.8435712 329 423 321.3888416 423 312 Z" opacity="0.2"/></g><g transform="translate(-206,-94) scale(1,1)"><path fill="#ffffff" stroke="none" d="M 416 305 C 416 295.6111584 485.8435712 288 572 288 C 658.1564288 288 728 295.6111584 728 305 C 728 314.3888416 658.1564288 322 572 322 C 485.8435712 322 416 314.3888416 416 305 Z"/></g><g transform="translate(-206,-94) scale(1,1)"><path fill="none" stroke="#000000" d="M 416 305 C 416 295.6111584 485.8435712 288 572 288 C 658.1564288 288 728 295.6111584 728 305 C 728 314.3888416 658.1564288 322 572 322 C 485.8435712 322 416 314.3888416 416 305 Z" stroke-miterlimit="10"/></g><g transform="translate(-206,-94) scale(1,1)"><g><path fill="none" stroke="none"/><text fill="#000000" stroke="none" font-family="Arial" font-size="13px" font-style="normal" font-weight="bold" text-decoration="none" x="546.35546875" y="310.5">Cotação</text></g></g><g transform="translate(-206,-94) scale(1,1)"><path fill="none" stroke="#000000" d="M 298 296 L 415 300" stroke-miterlimit="10"/></g><g transform="translate(-206,-94) scale(1,1)"><path fill="#ffffff" stroke="none" d="M 920.4093503196023 257.68 C 920.4093503196023 252.886167936 924.2951926445477 249 929.088623046875 249 C 933.8820534492023 249 937.7678957741477 252.886167936 937.7678957741477 257.68 C 937.7678957741477 262.473832064 933.8820534492023 266.36 929.088623046875 266.36 C 924.2951926445477 266.36 920.4093503196023 262.473832064 920.4093503196023 257.68 Z"/></g><g transform="translate(-206,-94) scale(1,1)"><path fill="none" stroke="#000000" d="M 920.4093503196023 257.68 C 920.4093503196023 252.886167936 924.2951926445477 249 929.088623046875 249 C 933.8820534492023 249 937.7678957741477 252.886167936 937.7678957741477 257.68 C 937.7678957741477 262.473832064 933.8820534492023 266.36 929.088623046875 266.36 C 924.2951926445477 266.36 920.4093503196023 262.473832064 920.4093503196023 257.68 Z" stroke-miterlimit="10"/></g><g transform="translate(-206,-94) scale(1,1)"><path fill="none" stroke="#000000" d="M 929.088623046875 266.36 L 929.088623046875 283.64" stroke-miterlimit="10"/></g><g transform="translate(-206,-94) scale(1,1)"><path fill="none" stroke="#000000" d="M 919.8988048650568 272.84 L 938.2784412286932 272.84" stroke-miterlimit="10"/></g><g transform="translate(-206,-94) scale(1,1)"><path fill="none" stroke="#000000" d="M 929.088623046875 283.64 L 916.3249866832386 301" stroke-miterlimit="10"/></g><g transform="translate(-206,-94) scale(1,1)"><path fill="none" stroke="#000000" d="M 929.088623046875 283.64 L 941.8522594105114 301" stroke-miterlimit="10"/></g><g transform="translate(-206,-94) scale(1,1)"><g><path fill="none" stroke="none"/><text fill="#000000" stroke="none" font-family="Arial" font-size="13px" font-style="normal" font-weight="bold" text-decoration="none" x="920.779541015625" y="320">B3</text></g></g><g transform="translate(-206,-94) scale(1,1)"><path fill="none" stroke="#000000" d="M 903 288 L 729 297" stroke-miterlimit="10"/></g><g transform="translate(-206,-94) scale(1,1)"><path fill="none" stroke="#000000" d="M 903 285 L 721 274" stroke-miterlimit="10"/></g><g transform="translate(-206,-94) scale(1,1)"><path fill="none" stroke="#000000" d="M 903 282 L 666 239" stroke-miterlimit="10"/></g><g transform="translate(-206,-94) scale(1,1)"><path fill="#C0C0C0" stroke="none" d="M 855 128 C 855 118.6111584 892.6080768 111 939 111 C 985.3919232 111 1023 118.6111584 1023 128 C 1023 137.3888416 985.3919232 145 939 145 C 892.6080768 145 855 137.3888416 855 128 Z" opacity="0.2"/></g><g transform="translate(-206,-94) scale(1,1)"><path fill="#ffffff" stroke="none" d="M 848 121 C 848 111.6111584 885.6080768 104 932 104 C 978.3919232 104 1016 111.6111584 1016 121 C 1016 130.3888416 978.3919232 138 932 138 C 885.6080768 138 848 130.3888416 848 121 Z"/></g><g transform="translate(-206,-94) scale(1,1)"><path fill="none" stroke="#000000" d="M 848 121 C 848 111.6111584 885.6080768 104 932 104 C 978.3919232 104 1016 111.6111584 1016 121 C 1016 130.3888416 978.3919232 138 932 138 C 885.6080768 138 848 130.3888416 848 121 Z" stroke-miterlimit="10"/></g><g transform="translate(-206,-94) scale(1,1)"><g><path fill="none" stroke="none"/><text fill="#000000" stroke="none" font-family="Arial" font-size="13px" font-style="normal" font-weight="bold" text-decoration="none" x="879.6318359375" y="126.5">Guia do iniciante</text></g></g><g transform="translate(-206,-94) scale(1,1)"><path fill="#ffffff" stroke="none" d="M 256.97160617897725 137.68 C 256.97160617897725 132.886167936 260.85744850392274 129 265.65087890625 129 C 270.44430930857726 129 274.33015163352275 132.886167936 274.33015163352275 137.68 C 274.33015163352275 142.47383206400002 270.44430930857726 146.36 265.65087890625 146.36 C 260.85744850392274 146.36 256.97160617897725 142.47383206400002 256.97160617897725 137.68 Z"/></g><g transform="translate(-206,-94) scale(1,1)"><path fill="none" stroke="#000000" d="M 256.97160617897725 137.68 C 256.97160617897725 132.886167936 260.85744850392274 129 265.65087890625 129 C 270.44430930857726 129 274.33015163352275 132.886167936 274.33015163352275 137.68 C 274.33015163352275 142.47383206400002 270.44430930857726 146.36 265.65087890625 146.36 C 260.85744850392274 146.36 256.97160617897725 142.47383206400002 256.97160617897725 137.68 Z" stroke-miterlimit="10"/></g><g transform="translate(-206,-94) scale(1,1)"><path fill="none" stroke="#000000" d="M 265.65087890625 146.36 L 265.65087890625 163.64" stroke-miterlimit="10"/></g><g transform="translate(-206,-94) scale(1,1)"><path fill="none" stroke="#000000" d="M 256.46106072443183 152.84 L 274.84069708806817 152.84" stroke-miterlimit="10"/></g><g transform="translate(-206,-94) scale(1,1)"><path fill="none" stroke="#000000" d="M 265.65087890625 163.64 L 252.88724254261365 181" stroke-miterlimit="10"/></g><g transform="translate(-206,-94) scale(1,1)"><path fill="none" stroke="#000000" d="M 265.65087890625 163.64 L 278.41451526988635 181" stroke-miterlimit="10"/></g><g transform="translate(-206,-94) scale(1,1)"><g><path fill="none" stroke="none"/><text fill="#000000" stroke="none" font-family="Arial" font-size="13px" font-style="normal" font-weight="bold" text-decoration="none" x="220.5" y="200">Administracao</text></g></g><g transform="translate(-206,-94) scale(1,1)"><path fill="none" stroke="#000000" d="M 316 169 L 415 172" stroke-miterlimit="10"/></g><g transform="translate(-206,-94) scale(1,1)"><path fill="none" stroke="#000000" d="M 847 134 L 685 159" stroke-miterlimit="10" stroke-dasharray="3"/></g><g transform="translate(-206,-94) scale(1,1)"><path fill="none" stroke="#000000" d="M 694.4017652631766 153.28976270754657 L 685 159 L 695.6857994843945 161.61030446103817" stroke-miterlimit="10"/></g><g transform="translate(-206,-94) scale(1,1)"><g><path fill="none" stroke="none"/><text fill="#000000" stroke="none" font-family="Arial" font-size="13px" font-style="normal" font-weight="normal" text-decoration="none" x="743.5" y="180">«extend»</text></g></g><g transform="translate(-206,-94) scale(1,1)"><path fill="#C0C0C0" stroke="none" d="M 855 200 C 855 190.6111584 892.6080768 183 939 183 C 985.3919232 183 1023 190.6111584 1023 200 C 1023 209.3888416 985.3919232 217 939 217 C 892.6080768 217 855 209.3888416 855 200 Z" opacity="0.2"/></g><g transform="translate(-206,-94) scale(1,1)"><path fill="#ffffff" stroke="none" d="M 848 193 C 848 183.6111584 885.6080768 176 932 176 C 978.3919232 176 1016 183.6111584 1016 193 C 1016 202.3888416 978.3919232 210 932 210 C 885.6080768 210 848 202.3888416 848 193 Z"/></g><g transform="translate(-206,-94) scale(1,1)"><path fill="none" stroke="#000000" d="M 848 193 C 848 183.6111584 885.6080768 176 932 176 C 978.3919232 176 1016 183.6111584 1016 193 C 1016 202.3888416 978.3919232 210 932 210 C 885.6080768 210 848 202.3888416 848 193 Z" stroke-miterlimit="10"/></g><g transform="translate(-206,-94) scale(1,1)"><g><path fill="none" stroke="none"/><text fill="#000000" stroke="none" font-family="Arial" font-size="13px" font-style="normal" font-weight="bold" text-decoration="none" x="907.444091796875" y="198.5">Suporte</text></g></g><g transform="translate(-206,-94) scale(1,1)"><path fill="none" stroke="#000000" d="M 847 189 L 721 184" stroke-miterlimit="10" stroke-dasharray="3"/></g><g transform="translate(-206,-94) scale(1,1)"><path fill="none" stroke="#000000" d="M 731.3215956810293 180.1967563058151 L 721 184 L 730.9877697053847 188.60917089205847" stroke-miterlimit="10"/></g><g transform="translate(-206,-94) scale(1,1)"><g><path fill="none" stroke="none"/><text fill="#000000" stroke="none" font-family="Arial" font-size="13px" font-style="normal" font-weight="normal" text-decoration="none" x="756.5" y="220">«extend»</text></g></g></g></svg>