<svg version="1.1" xmlns="http://www.w3.org/2000/svg" xmlns:xlink="http://www.w3.org/1999/xlink" width="789" height="230"><defs/><g><text fill="#eeeeee" stroke="none" font-family="Arial" font-size="24px" font-style="normal" font-weight="normal" text-decoration="none" x="0" y="0">UNREGISTERED</text><text fill="#eeeeee" stroke="none" font-family="Arial" font-size="24px" font-style="normal" font-weight="normal" text-decoration="none" x="0" y="30">UNREGISTERED</text><text fill="#eeeeee" stroke="none" font-family="Arial" font-size="24px" font-style="normal" font-weight="normal" text-decoration="none" x="0" y="60">UNREGISTERED</text><text fill="#eeeeee" stroke="none" font-family="Arial" font-size="24px" font-style="normal" font-weight="normal" text-decoration="none" x="0" y="90">UNREGISTERED</text><text fill="#eeeeee" stroke="none" font-family="Arial" font-size="24px" font-style="normal" font-weight="normal" text-decoration="none" x="0" y="120">UNREGISTERED</text><text fill="#eeeeee" stroke="none" font-family="Arial" font-size="24px" font-style="normal" font-weight="normal" text-decoration="none" x="0" y="150">UNREGISTERED</text><text fill="#eeeeee" stroke="none" font-family="Arial" font-size="24px" font-style="normal" font-weight="normal" text-decoration="none" x="0" y="180">UNREGISTERED</text><text fill="#eeeeee" stroke="none" font-family="Arial" font-size="24px" font-style="normal" font-weight="normal" text-decoration="none" x="0" y="210">UNREGISTERED</text><text fill="#eeeeee" stroke="none" font-family="Arial" font-size="24px" font-style="normal" font-weight="normal" text-decoration="none" x="200" y="0">UNREGISTERED</text><text fill="#eeeeee" stroke="none" font-family="Arial" font-size="24px" font-style="normal" font-weight="normal" text-decoration="none" x="200" y="30">UNREGISTERED</text><text fill="#eeeeee" stroke="none" font-family="Arial" font-size="24px" font-style="normal" font-weight="normal" text-decoration="none" x="200" y="60">UNREGISTERED</text><text fill="#eeeeee" stroke="none" font-family="Arial" font-size="24px" font-style="normal" font-weight="normal" text-decoration="none" x="200" y="90">UNREGISTERED</text><text fill="#eeeeee" stroke="none" font-family="Arial" font-size="24px" font-style="normal" font-weight="normal" text-decoration="none" x="200" y="120">UNREGISTERED</text><text fill="#eeeeee" stroke="none" font-family="Arial" font-size="24px" font-style="normal" font-weight="normal" text-decoration="none" x="200" y="150">UNREGISTERED</text><text fill="#eeeeee" stroke="none" font-family="Arial" font-size="24px" font-style="normal" font-weight="normal" text-decoration="none" x="200" y="180">UNREGISTERED</text><text fill="#eeeeee" stroke="none" font-family="Arial" font-size="24px" font-style="normal" font-weight="normal" text-decoration="none" x="200" y="210">UNREGISTERED</text><text fill="#eeeeee" stroke="none" font-family="Arial" font-size="24px" font-style="normal" font-weight="normal" text-decoration="none" x="400" y="0">UNREGISTERED</text><text fill="#eeeeee" stroke="none" font-family="Arial" font-size="24px" font-style="normal" font-weight="normal" text-decoration="none" x="400" y="30">UNREGISTERED</text><text fill="#eeeeee" stroke="none" font-family="Arial" font-size="24px" font-style="normal" font-weight="normal" text-decoration="none" x="400" y="60">UNREGISTERED</text><text fill="#eeeeee" stroke="none" font-family="Arial" font-size="24px" font-style="normal" font-weight="normal" text-decoration="none" x="400" y="90">UNREGISTERED</text><text fill="#eeeeee" stroke="none" font-family="Arial" font-size="24px" font-style="normal" font-weight="normal" text-decoration="none" x="400" y="120">UNREGISTERED</text><text fill="#eeeeee" stroke="none" font-family="Arial" font-size="24px" font-style="normal" font-weight="normal" text-decoration="none" x="400" y="150">UNREGISTERED</text><text fill="#eeeeee" stroke="none" font-family="Arial" font-size="24px" font-style="normal" font-weight="normal" text-decoration="none" x="400" y="180">UNREGISTERED</text><text fill="#eeeeee" stroke="none" font-family="Arial" font-size="24px" font-style="normal" font-weight="normal" text-decoration="none" x="400" y="210">UNREGISTERED</text><text fill="#eeeeee" stroke="none" font-family="Arial" font-size="24px" font-style="normal" font-weight="normal" text-decoration="none" x="600" y="0">UNREGISTERED</text><text fill="#eeeeee" stroke="none" font-family="Arial" font-size="24px" font-style="normal" font-weight="normal" text-decoration="none" x="600" y="30">UNREGISTERED</text><text fill="#eeeeee" stroke="none" font-family="Arial" font-size="24px" font-style="normal" font-weight="normal" text-decoration="none" x="600" y="60">UNREGISTERED</text><text fill="#eeeeee" stroke="none" font-family="Arial" font-size="24px" font-style="normal" font-weight="normal" text-decoration="none" x="600" y="90">UNREGISTERED</text><text fill="#eeeeee" stroke="none" font-family="Arial" font-size="24px" font-style="normal" font-weight="normal" text-decoration="none" x="600" y="120">UNREGISTERED</text><text fill="#eeeeee" stroke="none" font-family="Arial" font-size="24px" font-style="normal" font-weight="normal" text-decoration="none" x="600" y="150">UNREGISTERED</text><text fill="#eeeeee" stroke="none" font-family="Arial" font-size="24px" font-style="normal" font-weight="normal" text-decoration="none" x="600" y="180">UNREGISTERED</text><text fill="#eeeeee" stroke="none" font-family="Arial" font-size="24px" font-style="normal" font-weight="normal" text-decoration="none" x="600" y="210">UNREGISTERED</text><g transform="translate(-46,-198) scale(1,1)"><path fill="#ffffff" stroke="none" d="M 76.02116672585227 273.68 C 76.02116672585227 268.886167936 79.90700905079773 265 84.700439453125 265 C 89.49386985545227 265 93.37971218039773 268.886167936 93.37971218039773 273.68 C 93.37971218039773 278.473832064 89.49386985545227 282.36 84.700439453125 282.36 C 79.90700905079773 282.36 76.02116672585227 278.473832064 76.02116672585227 273.68 Z"/></g><g transform="translate(-46,-198) scale(1,1)"><path fill="none" stroke="#000000" d="M 76.02116672585227 273.68 C 76.02116672585227 268.886167936 79.90700905079773 265 84.700439453125 265 C 89.49386985545227 265 93.37971218039773 268.886167936 93.37971218039773 273.68 C 93.37971218039773 278.473832064 89.49386985545227 282.36 84.700439453125 282.36 C 79.90700905079773 282.36 76.02116672585227 278.473832064 76.02116672585227 273.68 Z" stroke-miterlimit="10"/></g><g transform="translate(-46,-198) scale(1,1)"><path fill="none" stroke="#000000" d="M 84.700439453125 282.36 L 84.700439453125 299.64" stroke-miterlimit="10"/></g><g transform="translate(-46,-198) scale(1,1)"><path fill="none" stroke="#000000" d="M 75.51062127130682 288.84 L 93.89025763494318 288.84" stroke-miterlimit="10"/></g><g transform="translate(-46,-198) scale(1,1)"><path fill="none" stroke="#000000" d="M 84.700439453125 299.64 L 71.93680308948863 317" stroke-miterlimit="10"/></g><g transform="translate(-46,-198) scale(1,1)"><path fill="none" stroke="#000000" d="M 84.700439453125 299.64 L 97.46407581676137 317" stroke-miterlimit="10"/></g><g transform="translate(-46,-198) scale(1,1)"><g><path fill="none" stroke="none"/><text fill="#000000" stroke="none" font-family="Arial" font-size="13px" font-style="normal" font-weight="bold" text-decoration="none" x="60.5" y="336">Usuário</text></g></g><g transform="translate(-46,-198) scale(1,1)"><path fill="#C0C0C0" stroke="none" d="M 231 232 C 231 222.6111584 299.0527104 215 383 215 C 466.9472896 215 535 222.6111584 535 232 C 535 241.3888416 466.9472896 249 383 249 C 299.0527104 249 231 241.3888416 231 232 Z" opacity="0.2"/></g><g transform="translate(-46,-198) scale(1,1)"><path fill="#ffffff" stroke="none" d="M 224 225 C 224 215.6111584 292.0527104 208 376 208 C 459.9472896 208 528 215.6111584 528 225 C 528 234.3888416 459.9472896 242 376 242 C 292.0527104 242 224 234.3888416 224 225 Z"/></g><g transform="translate(-46,-198) scale(1,1)"><path fill="none" stroke="#000000" d="M 224 225 C 224 215.6111584 292.0527104 208 376 208 C 459.9472896 208 528 215.6111584 528 225 C 528 234.3888416 459.9472896 242 376 242 C 292.0527104 242 224 234.3888416 224 225 Z" stroke-miterlimit="10"/></g><g transform="translate(-46,-198) scale(1,1)"><g><path fill="none" stroke="none"/><text fill="#000000" stroke="none" font-family="Arial" font-size="13px" font-style="normal" font-weight="bold" text-decoration="none" x="347.825927734375" y="230.5">Cadastro</text></g></g><g transform="translate(-46,-198) scale(1,1)"><path fill="none" stroke="#000000" d="M 114 295 L 309 243" stroke-miterlimit="10"/></g><g transform="translate(-46,-198) scale(1,1)"><path fill="#C0C0C0" stroke="none" d="M 231 276 C 231 266.6111584 299.0527104 259 383 259 C 466.9472896 259 535 266.6111584 535 276 C 535 285.3888416 466.9472896 293 383 293 C 299.0527104 293 231 285.3888416 231 276 Z" opacity="0.2"/></g><g transform="translate(-46,-198) scale(1,1)"><path fill="#ffffff" stroke="none" d="M 224 269 C 224 259.6111584 292.0527104 252 376 252 C 459.9472896 252 528 259.6111584 528 269 C 528 278.3888416 459.9472896 286 376 286 C 292.0527104 286 224 278.3888416 224 269 Z"/></g><g transform="translate(-46,-198) scale(1,1)"><path fill="none" stroke="#000000" d="M 224 269 C 224 259.6111584 292.0527104 252 376 252 C 459.9472896 252 528 259.6111584 528 269 C 528 278.3888416 459.9472896 286 376 286 C 292.0527104 286 224 278.3888416 224 269 Z" stroke-miterlimit="10"/></g><g transform="translate(-46,-198) scale(1,1)"><g><path fill="none" stroke="none"/><text fill="#000000" stroke="none" font-family="Arial" font-size="13px" font-style="normal" font-weight="bold" text-decoration="none" x="320.372314453125" y="274.5">Ordem de compra</text></g></g><g transform="translate(-46,-198) scale(1,1)"><path fill="none" stroke="#000000" d="M 114 299 L 223 287" stroke-miterlimit="10"/></g><g transform="translate(-46,-198) scale(1,1)"><path fill="#C0C0C0" stroke="none" d="M 231 320 C 231 310.6111584 299.0527104 303 383 303 C 466.9472896 303 535 310.6111584 535 320 C 535 329.3888416 466.9472896 337 383 337 C 299.0527104 337 231 329.3888416 231 320 Z" opacity="0.2"/></g><g transform="translate(-46,-198) scale(1,1)"><path fill="#ffffff" stroke="none" d="M 224 313 C 224 303.6111584 292.0527104 296 376 296 C 459.9472896 296 528 303.6111584 528 313 C 528 322.3888416 459.9472896 330 376 330 C 292.0527104 330 224 322.3888416 224 313 Z"/></g><g transform="translate(-46,-198) scale(1,1)"><path fill="none" stroke="#000000" d="M 224 313 C 224 303.6111584 292.0527104 296 376 296 C 459.9472896 296 528 303.6111584 528 313 C 528 322.3888416 459.9472896 330 376 330 C 292.0527104 330 224 322.3888416 224 313 Z" stroke-miterlimit="10"/></g><g transform="translate(-46,-198) scale(1,1)"><g><path fill="none" stroke="none"/><text fill="#000000" stroke="none" font-family="Arial" font-size="13px" font-style="normal" font-weight="bold" text-decoration="none" x="325.06640625" y="318.5">Ordem de venda</text></g></g><g transform="translate(-46,-198) scale(1,1)"><path fill="none" stroke="#000000" d="M 114 304 L 223 308" stroke-miterlimit="10"/></g><g transform="translate(-46,-198) scale(1,1)"><path fill="#C0C0C0" stroke="none" d="M 223 364 C 223 354.6111584 293.2912864 347 380 347 C 466.7087136 347 537 354.6111584 537 364 C 537 373.3888416 466.7087136 381 380 381 C 293.2912864 381 223 373.3888416 223 364 Z" opacity="0.2"/></g><g transform="translate(-46,-198) scale(1,1)"><path fill="#ffffff" stroke="none" d="M 216 357 C 216 347.6111584 286.2912864 340 373 340 C 459.7087136 340 530 347.6111584 530 357 C 530 366.3888416 459.7087136 374 373 374 C 286.2912864 374 216 366.3888416 216 357 Z"/></g><g transform="translate(-46,-198) scale(1,1)"><path fill="none" stroke="#000000" d="M 216 357 C 216 347.6111584 286.2912864 340 373 340 C 459.7087136 340 530 347.6111584 530 357 C 530 366.3888416 459.7087136 374 373 374 C 286.2912864 374 216 366.3888416 216 357 Z" stroke-miterlimit="10"/></g><g transform="translate(-46,-198) scale(1,1)"><g><path fill="none" stroke="none"/><text fill="#000000" stroke="none" font-family="Arial" font-size="13px" font-style="normal" font-weight="bold" text-decoration="none" x="297.142333984375" y="362.5">Carteira de investimento</text></g></g><g transform="translate(-46,-198) scale(1,1)"><path fill="none" stroke="#000000" d="M 114 309 L 277 339" stroke-miterlimit="10"/></g><g transform="translate(-46,-198) scale(1,1)"><path fill="#C0C0C0" stroke="none" d="M 223 408 C 223 398.6111584 292.8435712 391 379 391 C 465.1564288 391 535 398.6111584 535 408 C 535 417.3888416 465.1564288 425 379 425 C 292.8435712 425 223 417.3888416 223 408 Z" opacity="0.2"/></g><g transform="translate(-46,-198) scale(1,1)"><path fill="#ffffff" stroke="none" d="M 216 401 C 216 391.6111584 285.8435712 384 372 384 C 458.1564288 384 528 391.6111584 528 401 C 528 410.3888416 458.1564288 418 372 418 C 285.8435712 418 216 410.3888416 216 401 Z"/></g><g transform="translate(-46,-198) scale(1,1)"><path fill="none" stroke="#000000" d="M 216 401 C 216 391.6111584 285.8435712 384 372 384 C 458.1564288 384 528 391.6111584 528 401 C 528 410.3888416 458.1564288 418 372 418 C 285.8435712 418 216 410.3888416 216 401 Z" stroke-miterlimit="10"/></g><g transform="translate(-46,-198) scale(1,1)"><g><path fill="none" stroke="none"/><text fill="#000000" stroke="none" font-family="Arial" font-size="13px" font-style="normal" font-weight="bold" text-decoration="none" x="346.35546875" y="406.5">Cotação</text></g></g><g transform="translate(-46,-198) scale(1,1)"><path fill="none" stroke="#000000" d="M 114 313 L 319 383" stroke-miterlimit="10"/></g><g transform="translate(-46,-198) scale(1,1)"><path fill="#ffffff" stroke="none" d="M 688.4093503196023 345.68 C 688.4093503196023 340.886167936 692.2951926445477 337 697.088623046875 337 C 701.8820534492023 337 705.7678957741477 340.886167936 705.7678957741477 345.68 C 705.7678957741477 350.473832064 701.8820534492023 354.36 697.088623046875 354.36 C 692.2951926445477 354.36 688.4093503196023 350.473832064 688.4093503196023 345.68 Z"/></g><g transform="translate(-46,-198) scale(1,1)"><path fill="none" stroke="#000000" d="M 688.4093503196023 345.68 C 688.4093503196023 340.886167936 692.2951926445477 337 697.088623046875 337 C 701.8820534492023 337 705.7678957741477 340.886167936 705.7678957741477 345.68 C 705.7678957741477 350.473832064 701.8820534492023 354.36 697.088623046875 354.36 C 692.2951926445477 354.36 688.4093503196023 350.473832064 688.4093503196023 345.68 Z" stroke-miterlimit="10"/></g><g transform="translate(-46,-198) scale(1,1)"><path fill="none" stroke="#000000" d="M 697.088623046875 354.36 L 697.088623046875 371.64" stroke-miterlimit="10"/></g><g transform="translate(-46,-198) scale(1,1)"><path fill="none" stroke="#000000" d="M 687.8988048650568 360.84 L 706.2784412286932 360.84" stroke-miterlimit="10"/></g><g transform="translate(-46,-198) scale(1,1)"><path fill="none" stroke="#000000" d="M 697.088623046875 371.64 L 684.3249866832386 389" stroke-miterlimit="10"/></g><g transform="translate(-46,-198) scale(1,1)"><path fill="none" stroke="#000000" d="M 697.088623046875 371.64 L 709.8522594105114 389" stroke-miterlimit="10"/></g><g transform="translate(-46,-198) scale(1,1)"><g><path fill="none" stroke="none"/><text fill="#000000" stroke="none" font-family="Arial" font-size="13px" font-style="normal" font-weight="bold" text-decoration="none" x="688.779541015625" y="408">B3</text></g></g><g transform="translate(-46,-198) scale(1,1)"><path fill="none" stroke="#000000" d="M 671 377 L 529 388" stroke-miterlimit="10"/></g><g transform="translate(-46,-198) scale(1,1)"><path fill="none" stroke="#000000" d="M 671 370 L 469 331" stroke-miterlimit="10"/></g><g transform="translate(-46,-198) scale(1,1)"><path fill="none" stroke="#000000" d="M 671 366 L 431 287" stroke-miterlimit="10"/></g><g transform="translate(-46,-198) scale(1,1)"><path fill="#C0C0C0" stroke="none" d="M 663 232 C 663 222.6111584 700.6080768 215 747 215 C 793.3919232 215 831 222.6111584 831 232 C 831 241.3888416 793.3919232 249 747 249 C 700.6080768 249 663 241.3888416 663 232 Z" opacity="0.2"/></g><g transform="translate(-46,-198) scale(1,1)"><path fill="#ffffff" stroke="none" d="M 656 225 C 656 215.6111584 693.6080768 208 740 208 C 786.3919232 208 824 215.6111584 824 225 C 824 234.3888416 786.3919232 242 740 242 C 693.6080768 242 656 234.3888416 656 225 Z"/></g><g transform="translate(-46,-198) scale(1,1)"><path fill="none" stroke="#000000" d="M 656 225 C 656 215.6111584 693.6080768 208 740 208 C 786.3919232 208 824 215.6111584 824 225 C 824 234.3888416 786.3919232 242 740 242 C 693.6080768 242 656 234.3888416 656 225 Z" stroke-miterlimit="10"/></g><g transform="translate(-46,-198) scale(1,1)"><g><path fill="none" stroke="none"/><text fill="#000000" stroke="none" font-family="Arial" font-size="13px" font-style="normal" font-weight="bold" text-decoration="none" x="687.6318359375" y="230.5">Guia do iniciante</text></g></g><g transform="translate(-46,-198) scale(1,1)"><path fill="none" stroke="#000000" d="M 655 225 L 529 225" stroke-miterlimit="10" stroke-dasharray="3"/></g><g transform="translate(-46,-198) scale(1,1)"><path fill="none" stroke="#000000" d="M 539.1626748576241 220.790482243984 L 529 225 L 539.1626748576241 229.209517756016" stroke-miterlimit="10"/></g><g transform="translate(-46,-198) scale(1,1)"><g><path fill="none" stroke="none"/><text fill="#000000" stroke="none" font-family="Arial" font-size="13px" font-style="normal" font-weight="normal" text-decoration="none" x="564.5" y="260">«extend»</text></g></g><g transform="translate(-46,-198) scale(1,1)"><path fill="#C0C0C0" stroke="none" d="M 655 280 C 655 270.6111584 694.6227952 263 743.5 263 C 792.3772048 263 832 270.6111584 832 280 C 832 289.3888416 792.3772048 297 743.5 297 C 694.6227952 297 655 289.3888416 655 280 Z" opacity="0.2"/></g><g transform="translate(-46,-198) scale(1,1)"><path fill="#ffffff" stroke="none" d="M 648 273 C 648 263.6111584 687.6227952 256 736.5 256 C 785.3772048 256 825 263.6111584 825 273 C 825 282.3888416 785.3772048 290 736.5 290 C 687.6227952 290 648 282.3888416 648 273 Z"/></g><g transform="translate(-46,-198) scale(1,1)"><path fill="none" stroke="#000000" d="M 648 273 C 648 263.6111584 687.6227952 256 736.5 256 C 785.3772048 256 825 263.6111584 825 273 C 825 282.3888416 785.3772048 290 736.5 290 C 687.6227952 290 648 282.3888416 648 273 Z" stroke-miterlimit="10"/></g><g transform="translate(-46,-198) scale(1,1)"><g><path fill="none" stroke="none"/><text fill="#000000" stroke="none" font-family="Arial" font-size="13px" font-style="normal" font-weight="bold" text-decoration="none" x="678.3427734375" y="278.5">Mercado fracinário</text></g></g><g transform="translate(-46,-198) scale(1,1)"><path fill="none" stroke="#000000" d="M 647 272 L 529 271" stroke-miterlimit="10" stroke-dasharray="3"/></g><g transform="translate(-46,-198) scale(1,1)"><path fill="none" stroke="#000000" d="M 539.1979825418733 266.8767546670558 L 529 271 L 539.1266373452013 275.29548787436005" stroke-miterlimit="10"/></g><g transform="translate(-46,-198) scale(1,1)"><g><path fill="none" stroke="none"/><text fill="#000000" stroke="none" font-family="Arial" font-size="13px" font-style="normal" font-weight="normal" text-decoration="none" x="560.5" y="306">«extend»</text></g></g><g transform="translate(-46,-198) scale(1,1)"><path fill="none" stroke="#000000" d="M 647 283 L 529 296" stroke-miterlimit="10" stroke-dasharray="3"/></g><g transform="translate(-46,-198) scale(1,1)"><path fill="none" stroke="#000000" d="M 538.6405854621004 290.70291476867345 L 529 296 L 539.5625282424538 299.07131846726554" stroke-miterlimit="10"/></g><g transform="translate(-46,-198) scale(1,1)"><g><path fill="none" stroke="none"/><text fill="#000000" stroke="none" font-family="Arial" font-size="13px" font-style="normal" font-weight="normal" text-decoration="none" x="564.5" y="323">«extend»</text></g></g></g></svg>