<svg version="1.1" xmlns="http://www.w3.org/2000/svg" xmlns:xlink="http://www.w3.org/1999/xlink" width="1061" height="313"><defs/><g><text fill="#eeeeee" stroke="none" font-family="Arial" font-size="24px" font-style="normal" font-weight="normal" text-decoration="none" x="0" y="0">UNREGISTERED</text><text fill="#eeeeee" stroke="none" font-family="Arial" font-size="24px" font-style="normal" font-weight="normal" text-decoration="none" x="0" y="30">UNREGISTERED</text><text fill="#eeeeee" stroke="none" font-family="Arial" font-size="24px" font-style="normal" font-weight="normal" text-decoration="none" x="0" y="60">UNREGISTERED</text><text fill="#eeeeee" stroke="none" font-family="Arial" font-size="24px" font-style="normal" font-weight="normal" text-decoration="none" x="0" y="90">UNREGISTERED</text><text fill="#eeeeee" stroke="none" font-family="Arial" font-size="24px" font-style="normal" font-weight="normal" text-decoration="none" x="0" y="120">UNREGISTERED</text><text fill="#eeeeee" stroke="none" font-family="Arial" font-size="24px" font-style="normal" font-weight="normal" text-decoration="none" x="0" y="150">UNREGISTERED</text><text fill="#eeeeee" stroke="none" font-family="Arial" font-size="24px" font-style="normal" font-weight="normal" text-decoration="none" x="0" y="180">UNREGISTERED</text><text fill="#eeeeee" stroke="none" font-family="Arial" font-size="24px" font-style="normal" font-weight="normal" text-decoration="none" x="0" y="210">UNREGISTERED</text><text fill="#eeeeee" stroke="none" font-family="Arial" font-size="24px" font-style="normal" font-weight="normal" text-decoration="none" x="0" y="240">UNREGISTERED</text><text fill="#eeeeee" stroke="none" font-family="Arial" font-size="24px" font-style="normal" font-weight="normal" text-decoration="none" x="0" y="270">UNREGISTERED</text><text fill="#eeeeee" stroke="none" font-family="Arial" font-size="24px" font-style="normal" font-weight="normal" text-decoration="none" x="0" y="300">UNREGISTERED</text><text fill="#eeeeee" stroke="none" font-family="Arial" font-size="24px" font-style="normal" font-weight="normal" text-decoration="none" x="200" y="0">UNREGISTERED</text><text fill="#eeeeee" stroke="none" font-family="Arial" font-size="24px" font-style="normal" font-weight="normal" text-decoration="none" x="200" y="30">UNREGISTERED</text><text fill="#eeeeee" stroke="none" font-family="Arial" font-size="24px" font-style="normal" font-weight="normal" text-decoration="none" x="200" y="60">UNREGISTERED</text><text fill="#eeeeee" stroke="none" font-family="Arial" font-size="24px" font-style="normal" font-weight="normal" text-decoration="none" x="200" y="90">UNREGISTERED</text><text fill="#eeeeee" stroke="none" font-family="Arial" font-size="24px" font-style="normal" font-weight="normal" text-decoration="none" x="200" y="120">UNREGISTERED</text><text fill="#eeeeee" stroke="none" font-family="Arial" font-size="24px" font-style="normal" font-weight="normal" text-decoration="none" x="200" y="150">UNREGISTERED</text><text fill="#eeeeee" stroke="none" font-family="Arial" font-size="24px" font-style="normal" font-weight="normal" text-decoration="none" x="200" y="180">UNREGISTERED</text><text fill="#eeeeee" stroke="none" font-family="Arial" font-size="24px" font-style="normal" font-weight="normal" text-decoration="none" x="200" y="210">UNREGISTERED</text><text fill="#eeeeee" stroke="none" font-family="Arial" font-size="24px" font-style="normal" font-weight="normal" text-decoration="none" x="200" y="240">UNREGISTERED</text><text fill="#eeeeee" stroke="none" font-family="Arial" font-size="24px" font-style="normal" font-weight="normal" text-decoration="none" x="200" y="270">UNREGISTERED</text><text fill="#eeeeee" stroke="none" font-family="Arial" font-size="24px" font-style="normal" font-weight="normal" text-decoration="none" x="200" y="300">UNREGISTERED</text><text fill="#eeeeee" stroke="none" font-family="Arial" font-size="24px" font-style="normal" font-weight="normal" text-decoration="none" x="400" y="0">UNREGISTERED</text><text fill="#eeeeee" stroke="none" font-family="Arial" font-size="24px" font-style="normal" font-weight="normal" text-decoration="none" x="400" y="30">UNREGISTERED</text><text fill="#eeeeee" stroke="none" font-family="Arial" font-size="24px" font-style="normal" font-weight="normal" text-decoration="none" x="400" y="60">UNREGISTERED</text><text fill="#eeeeee" stroke="none" font-family="Arial" font-size="24px" font-style="normal" font-weight="normal" text-decoration="none" x="400" y="90">UNREGISTERED</text><text fill="#eeeeee" stroke="none" font-family="Arial" font-size="24px" font-style="normal" font-weight="normal" text-decoration="none" x="400" y="120">UNREGISTERED</text><text fill="#eeeeee" stroke="none" font-family="Arial" font-size="24px" font-style="normal" font-weight="normal" text-decoration="none" x="400" y="150">UNREGISTERED</text><text fill="#eeeeee" stroke="none" font-family="Arial" font-size="24px" font-style="normal" font-weight="normal" text-decoration="none" x="400" y="180">UNREGISTERED</text><text fill="#eeeeee" stroke="none" font-family="Arial" font-size="24px" font-style="normal" font-weight="normal" text-decoration="none" x="400" y="210">UNREGISTERED</text><text fill="#eeeeee" stroke="none" font-family="Arial" font-size="24px" font-style="normal" font-weight="normal" text-decoration="none" x="400" y="240">UNREGISTERED</text><text fill="#eeeeee" stroke="none" font-family="Arial" font-size="24px" font-style="normal" font-weight="normal" text-decoration="none" x="400" y="270">UNREGISTERED</text><text fill="#eeeeee" stroke="none" font-family="Arial" font-size="24px" font-style="normal" font-weight="normal" text-decoration="none" x="400" y="300">UNREGISTERED</text><text fill="#eeeeee" stroke="none" font-family="Arial" font-size="24px" font-style="normal" font-weight="normal" text-decoration="none" x="600" y="0">UNREGISTERED</text><text fill="#eeeeee" stroke="none" font-family="Arial" font-size="24px" font-style="normal" font-weight="normal" text-decoration="none" x="600" y="30">UNREGISTERED</text><text fill="#eeeeee" stroke="none" font-family="Arial" font-size="24px" font-style="normal" font-weight="normal" text-decoration="none" x="600" y="60">UNREGISTERED</text><text fill="#eeeeee" stroke="none" font-family="Arial" font-size="24px" font-style="normal" font-weight="normal" text-decoration="none" x="600" y="90">UNREGISTERED</text><text fill="#eeeeee" stroke="none" font-family="Arial" font-size="24px" font-style="normal" font-weight="normal" text-decoration="none" x="600" y="120">UNREGISTERED</text><text fill="#eeeeee" stroke="none" font-family="Arial" font-size="24px" font-style="normal" font-weight="normal" text-decoration="none" x="600" y="150">UNREGISTERED</text><text fill="#eeeeee" stroke="none" font-family="Arial" font-size="24px" font-style="normal" font-weight="normal" text-decoration="none" x="600" y="180">UNREGISTERED</text><text fill="#eeeeee" stroke="none" font-family="Arial" font-size="24px" font-style="normal" font-weight="normal" text-decoration="none" x="600" y="210">UNREGISTERED</text><text fill="#eeeeee" stroke="none" font-family="Arial" font-size="24px" font-style="normal" font-weight="normal" text-decoration="none" x="600" y="240">UNREGISTERED</text><text fill="#eeeeee" stroke="none" font-family="Arial" font-size="24px" font-style="normal" font-weight="normal" text-decoration="none" x="600" y="270">UNREGISTERED</text><text fill="#eeeeee" stroke="none" font-family="Arial" font-size="24px" font-style="normal" font-weight="normal" text-decoration="none" x="600" y="300">UNREGISTERED</text><text fill="#eeeeee" stroke="none" font-family="Arial" font-size="24px" font-style="normal" font-weight="normal" text-decoration="none" x="800" y="0">UNREGISTERED</text><text fill="#eeeeee" stroke="none" font-family="Arial" font-size="24px" font-style="normal" font-weight="normal" text-decoration="none" x="800" y="30">UNREGISTERED</text><text fill="#eeeeee" stroke="none" font-family="Arial" font-size="24px" font-style="normal" font-weight="normal" text-decoration="none" x="800" y="60">UNREGISTERED</text><text fill="#eeeeee" stroke="none" font-family="Arial" font-size="24px" font-style="normal" font-weight="normal" text-decoration="none" x="800" y="90">UNREGISTERED</text><text fill="#eeeeee" stroke="none" font-family="Arial" font-size="24px" font-style="normal" font-weight="normal" text-decoration="none" x="800" y="120">UNREGISTERED</text><text fill="#eeeeee" stroke="none" font-family="Arial" font-size="24px" font-style="normal" font-weight="normal" text-decoration="none" x="800" y="150">UNREGISTERED</text><text fill="#eeeeee" stroke="none" font-family="Arial" font-size="24px" font-style="normal" font-weight="normal" text-decoration="none" x="800" y="180">UNREGISTERED</text><text fill="#eeeeee" stroke="none" font-family="Arial" font-size="24px" font-style="normal" font-weight="normal" text-decoration="none" x="800" y="210">UNREGISTERED</text><text fill="#eeeeee" stroke="none" font-family="Arial" font-size="24px" font-style="normal" font-weight="normal" text-decoration="none" x="800" y="240">UNREGISTERED</text><text fill="#eeeeee" stroke="none" font-family="Arial" font-size="24px" font-style="normal" font-weight="normal" text-decoration="none" x="800" y="270">UNREGISTERED</text><text fill="#eeeeee" stroke="none" font-family="Arial" font-size="24px" font-style="normal" font-weight="normal" text-decoration="none" x="800" y="300">UNREGISTERED</text><text fill="#eeeeee" stroke="none" font-family="Arial" font-size="24px" font-style="normal" font-weight="normal" text-decoration="none" x="1000" y="0">UNREGISTERED</text><text fill="#eeeeee" stroke="none" font-family="Arial" font-size="24px" font-style="normal" font-weight="normal" text-decoration="none" x="1000" y="30">UNREGISTERED</text><text fill="#eeeeee" stroke="none" font-family="Arial" font-size="24px" font-style="normal" font-weight="normal" text-decoration="none" x="1000" y="60">UNREGISTERED</text><text fill="#eeeeee" stroke="none" font-family="Arial" font-size="24px" font-style="normal" font-weight="normal" text-decoration="none" x="1000" y="90">UNREGISTERED</text><text fill="#eeeeee" stroke="none" font-family="Arial" font-size="24px" font-style="normal" font-weight="normal" text-decoration="none" x="1000" y="120">UNREGISTERED</text><text fill="#eeeeee" stroke="none" font-family="Arial" font-size="24px" font-style="normal" font-weight="normal" text-decoration="none" x="1000" y="150">UNREGISTERED</text><text fill="#eeeeee" stroke="none" font-family="Arial" font-size="24px" font-style="normal" font-weight="normal" text-decoration="none" x="1000" y="180">UNREGISTERED</text><text fill="#eeeeee" stroke="none" font-family="Arial" font-size="24px" font-style="normal" font-weight="normal" text-decoration="none" x="1000" y="210">UNREGISTERED</text><text fill="#eeeeee" stroke="none" font-family="Arial" font-size="24px" font-style="normal" font-weight="normal" text-decoration="none" x="1000" y="240">UNREGISTERED</text><text fill="#eeeeee" stroke="none" font-family="Arial" font-size="24px" font-style="normal" font-weight="normal" text-decoration="none" x="1000" y="270">UNREGISTERED</text><text fill="#eeeeee" stroke="none" font-family="Arial" font-size="24px" font-style="normal" font-weight="normal" text-decoration="none" x="1000" y="300">UNREGISTERED</text><g transform="translate(-174,-310) scale(1,1)"><path fill="#C0C0C0" stroke="none" d="M 191 456.5 C 191 451.2532944 195.2532944 447 200.5 447 C 205.7467056 447 210 451.2532944 210 456.5 C 210 461.7467056 205.7467056 466 200.5 466 C 195.2532944 466 191 461.7467056 191 456.5 Z" opacity="0.2"/></g><g transform="translate(-174,-310) scale(1,1)"><path fill="#000000" stroke="none" d="M 184 449.5 C 184 444.2532944 188.2532944 440 193.5 440 C 198.7467056 440 203 444.2532944 203 449.5 C 203 454.7467056 198.7467056 459 193.5 459 C 188.2532944 459 184 454.7467056 184 449.5 Z"/></g><g transform="translate(-174,-310) scale(1,1)"><path fill="#C0C0C0" stroke="none" d="M 401 431 L 540 431 Q 550 431 550 441 L 550 476 Q 550 486 540 486 L 401 486 Q 391 486 391 476 L 391 441 Q 391 431 401 431 Z" opacity="0.2"/></g><g transform="translate(-174,-310) scale(1,1)"><path fill="#ffffff" stroke="none" d="M 394 424 L 533 424 Q 543 424 543 434 L 543 469 Q 543 479 533 479 L 394 479 Q 384 479 384 469 L 384 434 Q 384 424 394 424 Z"/></g><g transform="translate(-174,-310) scale(1,1)"><path fill="none" stroke="#000000" d="M 394 424 L 533 424 Q 543 424 543 434 L 543 469 Q 543 479 533 479 L 394 479 Q 384 479 384 469 L 384 434 Q 384 424 394 424 Z" stroke-miterlimit="10"/></g><g transform="translate(-174,-310) scale(1,1)"><g><path fill="none" stroke="none"/><text fill="#000000" stroke="none" font-family="Arial" font-size="13px" font-style="normal" font-weight="bold" text-decoration="none" x="396.9130859375" y="442">Avalia documentação</text></g></g><g transform="translate(-174,-310) scale(1,1)"><path fill="none" stroke="#000000" d="M 204 449 L 383 450" stroke-miterlimit="10"/></g><g transform="translate(-174,-310) scale(1,1)"><path fill="none" stroke="#000000" d="M 372.8139672352668 454.1526782340775 L 383 450 L 372.86100021926677 445.73377409807074" stroke-miterlimit="10"/></g><g transform="translate(-174,-310) scale(1,1)"><g><path fill="none" stroke="none"/><text fill="#000000" stroke="none" font-family="Arial" font-size="13px" font-style="normal" font-weight="normal" text-decoration="none" x="222.5" y="439">Novo cadastro realizado</text></g></g><g transform="translate(-174,-310) scale(1,1)"><path fill="#C0C0C0" stroke="none" d="M 697 327 L 837 327 Q 847 327 847 337 L 847 381 Q 847 391 837 391 L 697 391 Q 687 391 687 381 L 687 337 Q 687 327 697 327 Z" opacity="0.2"/></g><g transform="translate(-174,-310) scale(1,1)"><path fill="#ffffff" stroke="none" d="M 690 320 L 830 320 Q 840 320 840 330 L 840 374 Q 840 384 830 384 L 690 384 Q 680 384 680 374 L 680 330 Q 680 320 690 320 Z"/></g><g transform="translate(-174,-310) scale(1,1)"><path fill="none" stroke="#000000" d="M 690 320 L 830 320 Q 840 320 840 330 L 840 374 Q 840 384 830 384 L 690 384 Q 680 384 680 374 L 680 330 Q 680 320 690 320 Z" stroke-miterlimit="10"/></g><g transform="translate(-174,-310) scale(1,1)"><g><path fill="none" stroke="none"/><text fill="#000000" stroke="none" font-family="Arial" font-size="13px" font-style="normal" font-weight="bold" text-decoration="none" x="704.7373046875" y="338">Cadastro liberado</text></g></g><g transform="translate(-174,-310) scale(1,1)"><path fill="none" stroke="#000000" d="M 544 424 L 679 379" stroke-miterlimit="10"/></g><g transform="translate(-174,-310) scale(1,1)"><path fill="none" stroke="#000000" d="M 670.6900064950472 386.2072191549614 L 679 379 L 668.0276737030609 378.22022077900255" stroke-miterlimit="10"/></g><g transform="translate(-174,-310) scale(1,1)"><g><path fill="none" stroke="none"/><text fill="#000000" stroke="none" font-family="Arial" font-size="13px" font-style="normal" font-weight="normal" text-decoration="none" x="494.5" y="379">Documentação correta</text></g></g><g transform="translate(-174,-310) scale(1,1)"><path fill="#C0C0C0" stroke="none" d="M 1207 355.5 C 1207 348.59644 1212.59644 343 1219.5 343 C 1226.40356 343 1232 348.59644 1232 355.5 C 1232 362.40356 1226.40356 368 1219.5 368 C 1212.59644 368 1207 362.40356 1207 355.5 Z" opacity="0.2"/></g><g transform="translate(-174,-310) scale(1,1)"><path fill="none" stroke="#000000" d="M 1200 348.5 C 1200 341.59644 1205.59644 336 1212.5 336 C 1219.40356 336 1225 341.59644 1225 348.5 C 1225 355.40356 1219.40356 361 1212.5 361 C 1205.59644 361 1200 355.40356 1200 348.5 Z" stroke-miterlimit="10"/></g><g transform="translate(-174,-310) scale(1,1)"><path fill="#000000" stroke="none" d="M 1205 348.5 C 1205 344.357864 1208.357864 341 1212.5 341 C 1216.642136 341 1220 344.357864 1220 348.5 C 1220 352.642136 1216.642136 356 1212.5 356 C 1208.357864 356 1205 352.642136 1205 348.5 Z"/></g><g transform="translate(-174,-310) scale(1,1)"><path fill="none" stroke="#000000" d="M 841 351 L 1199 348" stroke-miterlimit="10"/></g><g transform="translate(-174,-310) scale(1,1)"><path fill="none" stroke="#000000" d="M 1188.8729559979045 352.29452905213356 L 1199 348 L 1188.8024078979774 343.8757891275099" stroke-miterlimit="10"/></g><g transform="translate(-174,-310) scale(1,1)"><g><path fill="none" stroke="none"/><text fill="#000000" stroke="none" font-family="Arial" font-size="13px" font-style="normal" font-weight="normal" text-decoration="none" x="845.5" y="333">Usuário recebe e-mail informando que seu cadastro foi liberado</text></g></g><g transform="translate(-174,-310) scale(1,1)"><path fill="#C0C0C0" stroke="none" d="M 697 471 L 837 471 Q 847 471 847 481 L 847 525 Q 847 535 837 535 L 697 535 Q 687 535 687 525 L 687 481 Q 687 471 697 471 Z" opacity="0.2"/></g><g transform="translate(-174,-310) scale(1,1)"><path fill="#ffffff" stroke="none" d="M 690 464 L 830 464 Q 840 464 840 474 L 840 518 Q 840 528 830 528 L 690 528 Q 680 528 680 518 L 680 474 Q 680 464 690 464 Z"/></g><g transform="translate(-174,-310) scale(1,1)"><path fill="none" stroke="#000000" d="M 690 464 L 830 464 Q 840 464 840 474 L 840 518 Q 840 528 830 528 L 690 528 Q 680 528 680 518 L 680 474 Q 680 464 690 464 Z" stroke-miterlimit="10"/></g><g transform="translate(-174,-310) scale(1,1)"><g><path fill="none" stroke="none"/><text fill="#000000" stroke="none" font-family="Arial" font-size="13px" font-style="normal" font-weight="bold" text-decoration="none" x="695.352294921875" y="482">Cadastro incompleto</text></g></g><g transform="translate(-174,-310) scale(1,1)"><path fill="none" stroke="#000000" d="M 544 463 L 679 484" stroke-miterlimit="10"/></g><g transform="translate(-174,-310) scale(1,1)"><path fill="none" stroke="#000000" d="M 668.3110612323802 486.59741949289594 L 679 484 L 669.6051259767155 478.2784318507412" stroke-miterlimit="10"/></g><g transform="translate(-174,-310) scale(1,1)"><g><path fill="none" stroke="none"/><text fill="#000000" stroke="none" font-family="Arial" font-size="13px" font-style="normal" font-weight="normal" text-decoration="none" x="527.5" y="515">Documentação incorreta</text></g></g><g transform="translate(-174,-310) scale(1,1)"><path fill="none" stroke="#000000" d="M 760 529 L 760 592 L 464 592 L 463 480" stroke-miterlimit="10"/></g><g transform="translate(-174,-310) scale(1,1)"><path fill="none" stroke="#000000" d="M 467.3000845277505 490.1246863188052 L 463 480 L 458.881384575834 490.19985328266154" stroke-miterlimit="10"/></g><g transform="translate(-174,-310) scale(1,1)"><g><path fill="none" stroke="none"/><text fill="#000000" stroke="none" font-family="Arial" font-size="13px" font-style="normal" font-weight="normal" text-decoration="none" x="428.5" y="612">Usuário recebe e-mail solicitando novo envio de documentação</text></g></g></g></svg>