<svg version="1.1" xmlns="http://www.w3.org/2000/svg" xmlns:xlink="http://www.w3.org/1999/xlink" width="973" height="387"><defs/><g><text fill="#eeeeee" stroke="none" font-family="Arial" font-size="24px" font-style="normal" font-weight="normal" text-decoration="none" x="0" y="0">UNREGISTERED</text><text fill="#eeeeee" stroke="none" font-family="Arial" font-size="24px" font-style="normal" font-weight="normal" text-decoration="none" x="0" y="30">UNREGISTERED</text><text fill="#eeeeee" stroke="none" font-family="Arial" font-size="24px" font-style="normal" font-weight="normal" text-decoration="none" x="0" y="60">UNREGISTERED</text><text fill="#eeeeee" stroke="none" font-family="Arial" font-size="24px" font-style="normal" font-weight="normal" text-decoration="none" x="0" y="90">UNREGISTERED</text><text fill="#eeeeee" stroke="none" font-family="Arial" font-size="24px" font-style="normal" font-weight="normal" text-decoration="none" x="0" y="120">UNREGISTERED</text><text fill="#eeeeee" stroke="none" font-family="Arial" font-size="24px" font-style="normal" font-weight="normal" text-decoration="none" x="0" y="150">UNREGISTERED</text><text fill="#eeeeee" stroke="none" font-family="Arial" font-size="24px" font-style="normal" font-weight="normal" text-decoration="none" x="0" y="180">UNREGISTERED</text><text fill="#eeeeee" stroke="none" font-family="Arial" font-size="24px" font-style="normal" font-weight="normal" text-decoration="none" x="0" y="210">UNREGISTERED</text><text fill="#eeeeee" stroke="none" font-family="Arial" font-size="24px" font-style="normal" font-weight="normal" text-decoration="none" x="0" y="240">UNREGISTERED</text><text fill="#eeeeee" stroke="none" font-family="Arial" font-size="24px" font-style="normal" font-weight="normal" text-decoration="none" x="0" y="270">UNREGISTERED</text><text fill="#eeeeee" stroke="none" font-family="Arial" font-size="24px" font-style="normal" font-weight="normal" text-decoration="none" x="0" y="300">UNREGISTERED</text><text fill="#eeeeee" stroke="none" font-family="Arial" font-size="24px" font-style="normal" font-weight="normal" text-decoration="none" x="0" y="330">UNREGISTERED</text><text fill="#eeeeee" stroke="none" font-family="Arial" font-size="24px" font-style="normal" font-weight="normal" text-decoration="none" x="0" y="360">UNREGISTERED</text><text fill="#eeeeee" stroke="none" font-family="Arial" font-size="24px" font-style="normal" font-weight="normal" text-decoration="none" x="200" y="0">UNREGISTERED</text><text fill="#eeeeee" stroke="none" font-family="Arial" font-size="24px" font-style="normal" font-weight="normal" text-decoration="none" x="200" y="30">UNREGISTERED</text><text fill="#eeeeee" stroke="none" font-family="Arial" font-size="24px" font-style="normal" font-weight="normal" text-decoration="none" x="200" y="60">UNREGISTERED</text><text fill="#eeeeee" stroke="none" font-family="Arial" font-size="24px" font-style="normal" font-weight="normal" text-decoration="none" x="200" y="90">UNREGISTERED</text><text fill="#eeeeee" stroke="none" font-family="Arial" font-size="24px" font-style="normal" font-weight="normal" text-decoration="none" x="200" y="120">UNREGISTERED</text><text fill="#eeeeee" stroke="none" font-family="Arial" font-size="24px" font-style="normal" font-weight="normal" text-decoration="none" x="200" y="150">UNREGISTERED</text><text fill="#eeeeee" stroke="none" font-family="Arial" font-size="24px" font-style="normal" font-weight="normal" text-decoration="none" x="200" y="180">UNREGISTERED</text><text fill="#eeeeee" stroke="none" font-family="Arial" font-size="24px" font-style="normal" font-weight="normal" text-decoration="none" x="200" y="210">UNREGISTERED</text><text fill="#eeeeee" stroke="none" font-family="Arial" font-size="24px" font-style="normal" font-weight="normal" text-decoration="none" x="200" y="240">UNREGISTERED</text><text fill="#eeeeee" stroke="none" font-family="Arial" font-size="24px" font-style="normal" font-weight="normal" text-decoration="none" x="200" y="270">UNREGISTERED</text><text fill="#eeeeee" stroke="none" font-family="Arial" font-size="24px" font-style="normal" font-weight="normal" text-decoration="none" x="200" y="300">UNREGISTERED</text><text fill="#eeeeee" stroke="none" font-family="Arial" font-size="24px" font-style="normal" font-weight="normal" text-decoration="none" x="200" y="330">UNREGISTERED</text><text fill="#eeeeee" stroke="none" font-family="Arial" font-size="24px" font-style="normal" font-weight="normal" text-decoration="none" x="200" y="360">UNREGISTERED</text><text fill="#eeeeee" stroke="none" font-family="Arial" font-size="24px" font-style="normal" font-weight="normal" text-decoration="none" x="400" y="0">UNREGISTERED</text><text fill="#eeeeee" stroke="none" font-family="Arial" font-size="24px" font-style="normal" font-weight="normal" text-decoration="none" x="400" y="30">UNREGISTERED</text><text fill="#eeeeee" stroke="none" font-family="Arial" font-size="24px" font-style="normal" font-weight="normal" text-decoration="none" x="400" y="60">UNREGISTERED</text><text fill="#eeeeee" stroke="none" font-family="Arial" font-size="24px" font-style="normal" font-weight="normal" text-decoration="none" x="400" y="90">UNREGISTERED</text><text fill="#eeeeee" stroke="none" font-family="Arial" font-size="24px" font-style="normal" font-weight="normal" text-decoration="none" x="400" y="120">UNREGISTERED</text><text fill="#eeeeee" stroke="none" font-family="Arial" font-size="24px" font-style="normal" font-weight="normal" text-decoration="none" x="400" y="150">UNREGISTERED</text><text fill="#eeeeee" stroke="none" font-family="Arial" font-size="24px" font-style="normal" font-weight="normal" text-decoration="none" x="400" y="180">UNREGISTERED</text><text fill="#eeeeee" stroke="none" font-family="Arial" font-size="24px" font-style="normal" font-weight="normal" text-decoration="none" x="400" y="210">UNREGISTERED</text><text fill="#eeeeee" stroke="none" font-family="Arial" font-size="24px" font-style="normal" font-weight="normal" text-decoration="none" x="400" y="240">UNREGISTERED</text><text fill="#eeeeee" stroke="none" font-family="Arial" font-size="24px" font-style="normal" font-weight="normal" text-decoration="none" x="400" y="270">UNREGISTERED</text><text fill="#eeeeee" stroke="none" font-family="Arial" font-size="24px" font-style="normal" font-weight="normal" text-decoration="none" x="400" y="300">UNREGISTERED</text><text fill="#eeeeee" stroke="none" font-family="Arial" font-size="24px" font-style="normal" font-weight="normal" text-decoration="none" x="400" y="330">UNREGISTERED</text><text fill="#eeeeee" stroke="none" font-family="Arial" font-size="24px" font-style="normal" font-weight="normal" text-decoration="none" x="400" y="360">UNREGISTERED</text><text fill="#eeeeee" stroke="none" font-family="Arial" font-size="24px" font-style="normal" font-weight="normal" text-decoration="none" x="600" y="0">UNREGISTERED</text><text fill="#eeeeee" stroke="none" font-family="Arial" font-size="24px" font-style="normal" font-weight="normal" text-decoration="none" x="600" y="30">UNREGISTERED</text><text fill="#eeeeee" stroke="none" font-family="Arial" font-size="24px" font-style="normal" font-weight="normal" text-decoration="none" x="600" y="60">UNREGISTERED</text><text fill="#eeeeee" stroke="none" font-family="Arial" font-size="24px" font-style="normal" font-weight="normal" text-decoration="none" x="600" y="90">UNREGISTERED</text><text fill="#eeeeee" stroke="none" font-family="Arial" font-size="24px" font-style="normal" font-weight="normal" text-decoration="none" x="600" y="120">UNREGISTERED</text><text fill="#eeeeee" stroke="none" font-family="Arial" font-size="24px" font-style="normal" font-weight="normal" text-decoration="none" x="600" y="150">UNREGISTERED</text><text fill="#eeeeee" stroke="none" font-family="Arial" font-size="24px" font-style="normal" font-weight="normal" text-decoration="none" x="600" y="180">UNREGISTERED</text><text fill="#eeeeee" stroke="none" font-family="Arial" font-size="24px" font-style="normal" font-weight="normal" text-decoration="none" x="600" y="210">UNREGISTERED</text><text fill="#eeeeee" stroke="none" font-family="Arial" font-size="24px" font-style="normal" font-weight="normal" text-decoration="none" x="600" y="240">UNREGISTERED</text><text fill="#eeeeee" stroke="none" font-family="Arial" font-size="24px" font-style="normal" font-weight="normal" text-decoration="none" x="600" y="270">UNREGISTERED</text><text fill="#eeeeee" stroke="none" font-family="Arial" font-size="24px" font-style="normal" font-weight="normal" text-decoration="none" x="600" y="300">UNREGISTERED</text><text fill="#eeeeee" stroke="none" font-family="Arial" font-size="24px" font-style="normal" font-weight="normal" text-decoration="none" x="600" y="330">UNREGISTERED</text><text fill="#eeeeee" stroke="none" font-family="Arial" font-size="24px" font-style="normal" font-weight="normal" text-decoration="none" x="600" y="360">UNREGISTERED</text><text fill="#eeeeee" stroke="none" font-family="Arial" font-size="24px" font-style="normal" font-weight="normal" text-decoration="none" x="800" y="0">UNREGISTERED</text><text fill="#eeeeee" stroke="none" font-family="Arial" font-size="24px" font-style="normal" font-weight="normal" text-decoration="none" x="800" y="30">UNREGISTERED</text><text fill="#eeeeee" stroke="none" font-family="Arial" font-size="24px" font-style="normal" font-weight="normal" text-decoration="none" x="800" y="60">UNREGISTERED</text><text fill="#eeeeee" stroke="none" font-family="Arial" font-size="24px" font-style="normal" font-weight="normal" text-decoration="none" x="800" y="90">UNREGISTERED</text><text fill="#eeeeee" stroke="none" font-family="Arial" font-size="24px" font-style="normal" font-weight="normal" text-decoration="none" x="800" y="120">UNREGISTERED</text><text fill="#eeeeee" stroke="none" font-family="Arial" font-size="24px" font-style="normal" font-weight="normal" text-decoration="none" x="800" y="150">UNREGISTERED</text><text fill="#eeeeee" stroke="none" font-family="Arial" font-size="24px" font-style="normal" font-weight="normal" text-decoration="none" x="800" y="180">UNREGISTERED</text><text fill="#eeeeee" stroke="none" font-family="Arial" font-size="24px" font-style="normal" font-weight="normal" text-decoration="none" x="800" y="210">UNREGISTERED</text><text fill="#eeeeee" stroke="none" font-family="Arial" font-size="24px" font-style="normal" font-weight="normal" text-decoration="none" x="800" y="240">UNREGISTERED</text><text fill="#eeeeee" stroke="none" font-family="Arial" font-size="24px" font-style="normal" font-weight="normal" text-decoration="none" x="800" y="270">UNREGISTERED</text><text fill="#eeeeee" stroke="none" font-family="Arial" font-size="24px" font-style="normal" font-weight="normal" text-decoration="none" x="800" y="300">UNREGISTERED</text><text fill="#eeeeee" stroke="none" font-family="Arial" font-size="24px" font-style="normal" font-weight="normal" text-decoration="none" x="800" y="330">UNREGISTERED</text><text fill="#eeeeee" stroke="none" font-family="Arial" font-size="24px" font-style="normal" font-weight="normal" text-decoration="none" x="800" y="360">UNREGISTERED</text><g transform="translate(-150,-358) scale(1,1)"><path fill="#C0C0C0" stroke="none" d="M 167 512.5 C 167 507.2532944 171.2532944 503 176.5 503 C 181.7467056 503 186 507.2532944 186 512.5 C 186 517.7467056 181.7467056 522 176.5 522 C 171.2532944 522 167 517.7467056 167 512.5 Z" opacity="0.2"/></g><g transform="translate(-150,-358) scale(1,1)"><path fill="#000000" stroke="none" d="M 160 505.5 C 160 500.2532944 164.2532944 496 169.5 496 C 174.7467056 496 179 500.2532944 179 505.5 C 179 510.7467056 174.7467056 515 169.5 515 C 164.2532944 515 160 510.7467056 160 505.5 Z"/></g><g transform="translate(-150,-358) scale(1,1)"><path fill="#C0C0C0" stroke="none" d="M 409 375 L 533 375 Q 543 375 543 385 L 543 413 Q 543 423 533 423 L 409 423 Q 399 423 399 413 L 399 385 Q 399 375 409 375 Z" opacity="0.2"/></g><g transform="translate(-150,-358) scale(1,1)"><path fill="#ffffff" stroke="none" d="M 402 368 L 526 368 Q 536 368 536 378 L 536 406 Q 536 416 526 416 L 402 416 Q 392 416 392 406 L 392 378 Q 392 368 402 368 Z"/></g><g transform="translate(-150,-358) scale(1,1)"><path fill="none" stroke="#000000" d="M 402 368 L 526 368 Q 536 368 536 378 L 536 406 Q 536 416 526 416 L 402 416 Q 392 416 392 406 L 392 378 Q 392 368 402 368 Z" stroke-miterlimit="10"/></g><g transform="translate(-150,-358) scale(1,1)"><g><path fill="none" stroke="none"/><text fill="#000000" stroke="none" font-family="Arial" font-size="13px" font-style="normal" font-weight="bold" text-decoration="none" x="427.872314453125" y="386">Executa OV</text></g></g><g transform="translate(-150,-358) scale(1,1)"><path fill="#C0C0C0" stroke="none" d="M 409 487 L 533 487 Q 543 487 543 497 L 543 525 Q 543 535 533 535 L 409 535 Q 399 535 399 525 L 399 497 Q 399 487 409 487 Z" opacity="0.2"/></g><g transform="translate(-150,-358) scale(1,1)"><path fill="#ffffff" stroke="none" d="M 402 480 L 526 480 Q 536 480 536 490 L 536 518 Q 536 528 526 528 L 402 528 Q 392 528 392 518 L 392 490 Q 392 480 402 480 Z"/></g><g transform="translate(-150,-358) scale(1,1)"><path fill="none" stroke="#000000" d="M 402 480 L 526 480 Q 536 480 536 490 L 536 518 Q 536 528 526 528 L 402 528 Q 392 528 392 518 L 392 490 Q 392 480 402 480 Z" stroke-miterlimit="10"/></g><g transform="translate(-150,-358) scale(1,1)"><g><path fill="none" stroke="none"/><text fill="#000000" stroke="none" font-family="Arial" font-size="13px" font-style="normal" font-weight="bold" text-decoration="none" x="427.513671875" y="498">Executa OC</text></g></g><g transform="translate(-150,-358) scale(1,1)"><path fill="#C0C0C0" stroke="none" d="M 409 599 L 542.49169921875 599 Q 552.49169921875 599 552.49169921875 609 L 552.49169921875 636 Q 552.49169921875 646 542.49169921875 646 L 409 646 Q 399 646 399 636 L 399 609 Q 399 599 409 599 Z" opacity="0.2"/></g><g transform="translate(-150,-358) scale(1,1)"><path fill="#ffffff" stroke="none" d="M 402 592 L 535.49169921875 592 Q 545.49169921875 592 545.49169921875 602 L 545.49169921875 629 Q 545.49169921875 639 535.49169921875 639 L 402 639 Q 392 639 392 629 L 392 602 Q 392 592 402 592 Z"/></g><g transform="translate(-150,-358) scale(1,1)"><path fill="none" stroke="#000000" d="M 402 592 L 535.49169921875 592 Q 545.49169921875 592 545.49169921875 602 L 545.49169921875 629 Q 545.49169921875 639 535.49169921875 639 L 402 639 Q 392 639 392 629 L 392 602 Q 392 592 402 592 Z" stroke-miterlimit="10"/></g><g transform="translate(-150,-358) scale(1,1)"><g><path fill="none" stroke="none"/><text fill="#000000" stroke="none" font-family="Arial" font-size="13px" font-style="normal" font-weight="bold" text-decoration="none" x="396.5" y="610">Fornece dados de ação</text></g></g><g transform="translate(-150,-358) scale(1,1)"><path fill="none" stroke="#000000" d="M 180 501 L 399 417" stroke-miterlimit="10"/></g><g transform="translate(-150,-358) scale(1,1)"><path fill="none" stroke="#000000" d="M 391.01888637573666 424.5697969138279 L 399 417 L 388.00384570489035 416.70915516483575" stroke-miterlimit="10"/></g><g transform="translate(-150,-358) scale(1,1)"><g><path fill="none" stroke="none"/><text fill="#000000" stroke="none" font-family="Arial" font-size="13px" font-style="normal" font-weight="normal" text-decoration="none" x="279.5" y="427">Recebe OV</text></g></g><g transform="translate(-150,-358) scale(1,1)"><path fill="none" stroke="#000000" d="M 180 505 L 391 504" stroke-miterlimit="10"/></g><g transform="translate(-150,-358) scale(1,1)"><path fill="none" stroke="#000000" d="M 380.8573893710176 508.2576342760801 L 391 504 L 380.8174891768832 499.8386933137403" stroke-miterlimit="10"/></g><g transform="translate(-150,-358) scale(1,1)"><g><path fill="none" stroke="none"/><text fill="#000000" stroke="none" font-family="Arial" font-size="13px" font-style="normal" font-weight="normal" text-decoration="none" x="279.5" y="494">Recebe OC</text></g></g><g transform="translate(-150,-358) scale(1,1)"><path fill="none" stroke="#000000" d="M 180 509 L 403 591" stroke-miterlimit="10"/></g><g transform="translate(-150,-358) scale(1,1)"><path fill="none" stroke="#000000" d="M 392.0089455909582 591.4435346406798 L 403 591 L 394.9145245428604 583.5417772470921" stroke-miterlimit="10"/></g><g transform="translate(-150,-358) scale(1,1)"><g><path fill="none" stroke="none"/><text fill="#000000" stroke="none" font-family="Arial" font-size="13px" font-style="normal" font-weight="normal" text-decoration="none" x="206.5" y="611">Recebe solicitação de dados</text></g></g><g transform="translate(-150,-358) scale(1,1)"><path fill="#ffffff" stroke="none" d="M 416 672 L 504 672 L 514 682 L 514 734 L 416 734 L 416 672"/></g><g transform="translate(-150,-358) scale(1,1)"><path fill="none" stroke="#000000" d="M 416 672 L 504 672 L 514 682 L 514 734 L 416 734 L 416 672 L 416 672" stroke-miterlimit="10"/></g><g transform="translate(-150,-358) scale(1,1)"><path fill="none" stroke="#000000" d="M 504 672 L 504 682 L 514 682 L 504 672" stroke-miterlimit="10"/></g><g transform="translate(-150,-358) scale(1,1)"><g><path fill="none" stroke="none"/><text fill="#000000" stroke="none" font-family="Arial" font-size="13px" font-style="normal" font-weight="normal" text-decoration="none" x="440.20458984375" y="687">Envio de</text><text fill="#000000" stroke="none" font-family="Arial" font-size="13px" font-style="normal" font-weight="normal" text-decoration="none" x="425.392333984375" y="700">dados via API</text><text fill="#000000" stroke="none" font-family="Arial" font-size="13px" font-style="normal" font-weight="normal" text-decoration="none" x="427.918701171875" y="713">para cotação</text></g></g><g transform="translate(-150,-358) scale(1,1)"><path fill="none" stroke="#000000" d="M 467 640 L 466 671" stroke-miterlimit="10" stroke-dasharray="3"/></g><g transform="translate(-150,-358) scale(1,1)"><path fill="#C0C0C0" stroke="none" d="M 697 375 L 849.2744140625 375 Q 859.2744140625 375 859.2744140625 385 L 859.2744140625 413 Q 859.2744140625 423 849.2744140625 423 L 697 423 Q 687 423 687 413 L 687 385 Q 687 375 697 375 Z" opacity="0.2"/></g><g transform="translate(-150,-358) scale(1,1)"><path fill="#ffffff" stroke="none" d="M 690 368 L 842.2744140625 368 Q 852.2744140625 368 852.2744140625 378 L 852.2744140625 406 Q 852.2744140625 416 842.2744140625 416 L 690 416 Q 680 416 680 406 L 680 378 Q 680 368 690 368 Z"/></g><g transform="translate(-150,-358) scale(1,1)"><path fill="none" stroke="#000000" d="M 690 368 L 842.2744140625 368 Q 852.2744140625 368 852.2744140625 378 L 852.2744140625 406 Q 852.2744140625 416 842.2744140625 416 L 690 416 Q 680 416 680 406 L 680 378 Q 680 368 690 368 Z" stroke-miterlimit="10"/></g><g transform="translate(-150,-358) scale(1,1)"><g><path fill="none" stroke="none"/><text fill="#000000" stroke="none" font-family="Arial" font-size="13px" font-style="normal" font-weight="bold" text-decoration="none" x="684.5" y="386">Retorna OV para corretora</text></g></g><g transform="translate(-150,-358) scale(1,1)"><path fill="none" stroke="#000000" d="M 537 392 L 679 392" stroke-miterlimit="10"/></g><g transform="translate(-150,-358) scale(1,1)"><path fill="none" stroke="#000000" d="M 668.8373251423759 396.209517756016 L 679 392 L 668.8373251423758 387.790482243984" stroke-miterlimit="10"/></g><g transform="translate(-150,-358) scale(1,1)"><g><path fill="none" stroke="none"/><text fill="#000000" stroke="none" font-family="Arial" font-size="13px" font-style="normal" font-weight="normal" text-decoration="none" x="545.5" y="382">Transação executada</text></g></g><g transform="translate(-150,-358) scale(1,1)"><path fill="#C0C0C0" stroke="none" d="M 697 487 L 849.99169921875 487 Q 859.99169921875 487 859.99169921875 497 L 859.99169921875 525 Q 859.99169921875 535 849.99169921875 535 L 697 535 Q 687 535 687 525 L 687 497 Q 687 487 697 487 Z" opacity="0.2"/></g><g transform="translate(-150,-358) scale(1,1)"><path fill="#ffffff" stroke="none" d="M 690 480 L 842.99169921875 480 Q 852.99169921875 480 852.99169921875 490 L 852.99169921875 518 Q 852.99169921875 528 842.99169921875 528 L 690 528 Q 680 528 680 518 L 680 490 Q 680 480 690 480 Z"/></g><g transform="translate(-150,-358) scale(1,1)"><path fill="none" stroke="#000000" d="M 690 480 L 842.99169921875 480 Q 852.99169921875 480 852.99169921875 490 L 852.99169921875 518 Q 852.99169921875 528 842.99169921875 528 L 690 528 Q 680 528 680 518 L 680 490 Q 680 480 690 480 Z" stroke-miterlimit="10"/></g><g transform="translate(-150,-358) scale(1,1)"><g><path fill="none" stroke="none"/><text fill="#000000" stroke="none" font-family="Arial" font-size="13px" font-style="normal" font-weight="bold" text-decoration="none" x="684.5" y="498">Retorna OC para corretora</text></g></g><g transform="translate(-150,-358) scale(1,1)"><path fill="none" stroke="#000000" d="M 537 504 L 679 504" stroke-miterlimit="10"/></g><g transform="translate(-150,-358) scale(1,1)"><path fill="none" stroke="#000000" d="M 668.8373251423759 508.209517756016 L 679 504 L 668.8373251423758 499.790482243984" stroke-miterlimit="10"/></g><g transform="translate(-150,-358) scale(1,1)"><g><path fill="none" stroke="none"/><text fill="#000000" stroke="none" font-family="Arial" font-size="13px" font-style="normal" font-weight="normal" text-decoration="none" x="545.5" y="494">Transação executada</text></g></g><g transform="translate(-150,-358) scale(1,1)"><path fill="#C0C0C0" stroke="none" d="M 1095 507.5 C 1095 500.59644 1100.59644 495 1107.5 495 C 1114.40356 495 1120 500.59644 1120 507.5 C 1120 514.40356 1114.40356 520 1107.5 520 C 1100.59644 520 1095 514.40356 1095 507.5 Z" opacity="0.2"/></g><g transform="translate(-150,-358) scale(1,1)"><path fill="none" stroke="#000000" d="M 1088 500.5 C 1088 493.59644 1093.59644 488 1100.5 488 C 1107.40356 488 1113 493.59644 1113 500.5 C 1113 507.40356 1107.40356 513 1100.5 513 C 1093.59644 513 1088 507.40356 1088 500.5 Z" stroke-miterlimit="10"/></g><g transform="translate(-150,-358) scale(1,1)"><path fill="#000000" stroke="none" d="M 1093 500.5 C 1093 496.357864 1096.357864 493 1100.5 493 C 1104.642136 493 1108 496.357864 1108 500.5 C 1108 504.642136 1104.642136 508 1100.5 508 C 1096.357864 508 1093 504.642136 1093 500.5 Z"/></g><g transform="translate(-150,-358) scale(1,1)"><path fill="none" stroke="#000000" d="M 854 503 L 1087 500" stroke-miterlimit="10"/></g><g transform="translate(-150,-358) scale(1,1)"><path fill="none" stroke="#000000" d="M 1076.892362726311 504.3400079197544 L 1087 500 L 1076.7839721115388 495.92167017246214" stroke-miterlimit="10"/></g><g transform="translate(-150,-358) scale(1,1)"><g><path fill="none" stroke="none"/><text fill="#000000" stroke="none" font-family="Arial" font-size="13px" font-style="normal" font-weight="normal" text-decoration="none" x="866.5" y="522">Usuário recebe retorno da corretora</text></g></g><g transform="translate(-150,-358) scale(1,1)"><path fill="none" stroke="#000000" d="M 843 417 L 1087 496" stroke-miterlimit="10"/></g><g transform="translate(-150,-358) scale(1,1)"><path fill="none" stroke="#000000" d="M 1076.0348126703796 496.8744523007765 L 1087 496 L 1078.6281105305413 488.8647728339479" stroke-miterlimit="10"/></g><g transform="translate(-150,-358) scale(1,1)"><g><path fill="none" stroke="none"/><text fill="#000000" stroke="none" font-family="Arial" font-size="13px" font-style="normal" font-weight="normal" text-decoration="none" x="905.5" y="427">Usuário recebe retorno da corretora</text></g></g><g transform="translate(-150,-358) scale(1,1)"><path fill="none" stroke="#000000" d="M 546 615 L 1096 616 L 1100 514" stroke-miterlimit="10"/></g><g transform="translate(-150,-358) scale(1,1)"><path fill="none" stroke="#000000" d="M 1103.8080544655463 524.3198217614179 L 1100 514 L 1095.3954851875803 523.9899170838505" stroke-miterlimit="10"/></g><g transform="translate(-150,-358) scale(1,1)"><g><path fill="none" stroke="none"/><text fill="#000000" stroke="none" font-family="Arial" font-size="13px" font-style="normal" font-weight="normal" text-decoration="none" x="782.5" y="603">Corretora recebe os dados da API</text></g></g></g></svg>