<svg version="1.1" xmlns="http://www.w3.org/2000/svg" xmlns:xlink="http://www.w3.org/1999/xlink" width="1052" height="171"><defs/><g><text fill="#eeeeee" stroke="none" font-family="Arial" font-size="24px" font-style="normal" font-weight="normal" text-decoration="none" x="0" y="0">UNREGISTERED</text><text fill="#eeeeee" stroke="none" font-family="Arial" font-size="24px" font-style="normal" font-weight="normal" text-decoration="none" x="0" y="30">UNREGISTERED</text><text fill="#eeeeee" stroke="none" font-family="Arial" font-size="24px" font-style="normal" font-weight="normal" text-decoration="none" x="0" y="60">UNREGISTERED</text><text fill="#eeeeee" stroke="none" font-family="Arial" font-size="24px" font-style="normal" font-weight="normal" text-decoration="none" x="0" y="90">UNREGISTERED</text><text fill="#eeeeee" stroke="none" font-family="Arial" font-size="24px" font-style="normal" font-weight="normal" text-decoration="none" x="0" y="120">UNREGISTERED</text><text fill="#eeeeee" stroke="none" font-family="Arial" font-size="24px" font-style="normal" font-weight="normal" text-decoration="none" x="0" y="150">UNREGISTERED</text><text fill="#eeeeee" stroke="none" font-family="Arial" font-size="24px" font-style="normal" font-weight="normal" text-decoration="none" x="200" y="0">UNREGISTERED</text><text fill="#eeeeee" stroke="none" font-family="Arial" font-size="24px" font-style="normal" font-weight="normal" text-decoration="none" x="200" y="30">UNREGISTERED</text><text fill="#eeeeee" stroke="none" font-family="Arial" font-size="24px" font-style="normal" font-weight="normal" text-decoration="none" x="200" y="60">UNREGISTERED</text><text fill="#eeeeee" stroke="none" font-family="Arial" font-size="24px" font-style="normal" font-weight="normal" text-decoration="none" x="200" y="90">UNREGISTERED</text><text fill="#eeeeee" stroke="none" font-family="Arial" font-size="24px" font-style="normal" font-weight="normal" text-decoration="none" x="200" y="120">UNREGISTERED</text><text fill="#eeeeee" stroke="none" font-family="Arial" font-size="24px" font-style="normal" font-weight="normal" text-decoration="none" x="200" y="150">UNREGISTERED</text><text fill="#eeeeee" stroke="none" font-family="Arial" font-size="24px" font-style="normal" font-weight="normal" text-decoration="none" x="400" y="0">UNREGISTERED</text><text fill="#eeeeee" stroke="none" font-family="Arial" font-size="24px" font-style="normal" font-weight="normal" text-decoration="none" x="400" y="30">UNREGISTERED</text><text fill="#eeeeee" stroke="none" font-family="Arial" font-size="24px" font-style="normal" font-weight="normal" text-decoration="none" x="400" y="60">UNREGISTERED</text><text fill="#eeeeee" stroke="none" font-family="Arial" font-size="24px" font-style="normal" font-weight="normal" text-decoration="none" x="400" y="90">UNREGISTERED</text><text fill="#eeeeee" stroke="none" font-family="Arial" font-size="24px" font-style="normal" font-weight="normal" text-decoration="none" x="400" y="120">UNREGISTERED</text><text fill="#eeeeee" stroke="none" font-family="Arial" font-size="24px" font-style="normal" font-weight="normal" text-decoration="none" x="400" y="150">UNREGISTERED</text><text fill="#eeeeee" stroke="none" font-family="Arial" font-size="24px" font-style="normal" font-weight="normal" text-decoration="none" x="600" y="0">UNREGISTERED</text><text fill="#eeeeee" stroke="none" font-family="Arial" font-size="24px" font-style="normal" font-weight="normal" text-decoration="none" x="600" y="30">UNREGISTERED</text><text fill="#eeeeee" stroke="none" font-family="Arial" font-size="24px" font-style="normal" font-weight="normal" text-decoration="none" x="600" y="60">UNREGISTERED</text><text fill="#eeeeee" stroke="none" font-family="Arial" font-size="24px" font-style="normal" font-weight="normal" text-decoration="none" x="600" y="90">UNREGISTERED</text><text fill="#eeeeee" stroke="none" font-family="Arial" font-size="24px" font-style="normal" font-weight="normal" text-decoration="none" x="600" y="120">UNREGISTERED</text><text fill="#eeeeee" stroke="none" font-family="Arial" font-size="24px" font-style="normal" font-weight="normal" text-decoration="none" x="600" y="150">UNREGISTERED</text><text fill="#eeeeee" stroke="none" font-family="Arial" font-size="24px" font-style="normal" font-weight="normal" text-decoration="none" x="800" y="0">UNREGISTERED</text><text fill="#eeeeee" stroke="none" font-family="Arial" font-size="24px" font-style="normal" font-weight="normal" text-decoration="none" x="800" y="30">UNREGISTERED</text><text fill="#eeeeee" stroke="none" font-family="Arial" font-size="24px" font-style="normal" font-weight="normal" text-decoration="none" x="800" y="60">UNREGISTERED</text><text fill="#eeeeee" stroke="none" font-family="Arial" font-size="24px" font-style="normal" font-weight="normal" text-decoration="none" x="800" y="90">UNREGISTERED</text><text fill="#eeeeee" stroke="none" font-family="Arial" font-size="24px" font-style="normal" font-weight="normal" text-decoration="none" x="800" y="120">UNREGISTERED</text><text fill="#eeeeee" stroke="none" font-family="Arial" font-size="24px" font-style="normal" font-weight="normal" text-decoration="none" x="800" y="150">UNREGISTERED</text><text fill="#eeeeee" stroke="none" font-family="Arial" font-size="24px" font-style="normal" font-weight="normal" text-decoration="none" x="1000" y="0">UNREGISTERED</text><text fill="#eeeeee" stroke="none" font-family="Arial" font-size="24px" font-style="normal" font-weight="normal" text-decoration="none" x="1000" y="30">UNREGISTERED</text><text fill="#eeeeee" stroke="none" font-family="Arial" font-size="24px" font-style="normal" font-weight="normal" text-decoration="none" x="1000" y="60">UNREGISTERED</text><text fill="#eeeeee" stroke="none" font-family="Arial" font-size="24px" font-style="normal" font-weight="normal" text-decoration="none" x="1000" y="90">UNREGISTERED</text><text fill="#eeeeee" stroke="none" font-family="Arial" font-size="24px" font-style="normal" font-weight="normal" text-decoration="none" x="1000" y="120">UNREGISTERED</text><text fill="#eeeeee" stroke="none" font-family="Arial" font-size="24px" font-style="normal" font-weight="normal" text-decoration="none" x="1000" y="150">UNREGISTERED</text><g transform="translate(-190,-222) scale(1,1)"><path fill="#C0C0C0" stroke="none" d="M 207 368.5 C 207 363.2532944 211.2532944 359 216.5 359 C 221.7467056 359 226 363.2532944 226 368.5 C 226 373.7467056 221.7467056 378 216.5 378 C 211.2532944 378 207 373.7467056 207 368.5 Z" opacity="0.2"/></g><g transform="translate(-190,-222) scale(1,1)"><path fill="#000000" stroke="none" d="M 200 361.5 C 200 356.2532944 204.2532944 352 209.5 352 C 214.7467056 352 219 356.2532944 219 361.5 C 219 366.7467056 214.7467056 371 209.5 371 C 204.2532944 371 200 366.7467056 200 361.5 Z"/></g><g transform="translate(-190,-222) scale(1,1)"><path fill="#C0C0C0" stroke="none" d="M 361 351 L 568.9052734375 351 Q 578.9052734375 351 578.9052734375 361 L 578.9052734375 380 Q 578.9052734375 390 568.9052734375 390 L 361 390 Q 351 390 351 380 L 351 361 Q 351 351 361 351 Z" opacity="0.2"/></g><g transform="translate(-190,-222) scale(1,1)"><path fill="#ffffff" stroke="none" d="M 354 344 L 561.9052734375 344 Q 571.9052734375 344 571.9052734375 354 L 571.9052734375 373 Q 571.9052734375 383 561.9052734375 383 L 354 383 Q 344 383 344 373 L 344 354 Q 344 344 354 344 Z"/></g><g transform="translate(-190,-222) scale(1,1)"><path fill="none" stroke="#000000" d="M 354 344 L 561.9052734375 344 Q 571.9052734375 344 571.9052734375 354 L 571.9052734375 373 Q 571.9052734375 383 561.9052734375 383 L 354 383 Q 344 383 344 373 L 344 354 Q 344 344 354 344 Z" stroke-miterlimit="10"/></g><g transform="translate(-190,-222) scale(1,1)"><g><path fill="none" stroke="none"/><text fill="#000000" stroke="none" font-family="Arial" font-size="13px" font-style="normal" font-weight="bold" text-decoration="none" x="348.5" y="362">Preenche número de conta e senha</text></g></g><g transform="translate(-190,-222) scale(1,1)"><path fill="none" stroke="#000000" d="M 220 361 L 343 362" stroke-miterlimit="10"/></g><g transform="translate(-190,-222) scale(1,1)"><path fill="none" stroke="#000000" d="M 332.8034384025097 366.1267579997603 L 343 362 L 332.8718835836819 357.7080007155746" stroke-miterlimit="10"/></g><g transform="translate(-190,-222) scale(1,1)"><g><path fill="none" stroke="none"/><text fill="#000000" stroke="none" font-family="Arial" font-size="13px" font-style="normal" font-weight="normal" text-decoration="none" x="230.5" y="351">Tentativa de login</text></g></g><g transform="translate(-190,-222) scale(1,1)"><path fill="none" stroke="#000000" d="M 392 344 L 392 296 L 520 296 L 520 344" stroke-miterlimit="10"/></g><g transform="translate(-190,-222) scale(1,1)"><path fill="none" stroke="#000000" d="M 515.790482243984 333.83732514237585 L 520 344 L 524.209517756016 333.83732514237585" stroke-miterlimit="10"/></g><g transform="translate(-190,-222) scale(1,1)"><g><path fill="none" stroke="none"/><text fill="#000000" stroke="none" font-family="Arial" font-size="13px" font-style="normal" font-weight="normal" text-decoration="none" x="375.5" y="286">usuário ou senha incorretos</text></g></g><g transform="translate(-190,-222) scale(1,1)"><path fill="#C0C0C0" stroke="none" d="M 761 351 L 973 351 Q 983 351 983 361 L 983 380 Q 983 390 973 390 L 761 390 Q 751 390 751 380 L 751 361 Q 751 351 761 351 Z" opacity="0.2"/></g><g transform="translate(-190,-222) scale(1,1)"><path fill="#ffffff" stroke="none" d="M 754 344 L 966 344 Q 976 344 976 354 L 976 373 Q 976 383 966 383 L 754 383 Q 744 383 744 373 L 744 354 Q 744 344 754 344 Z"/></g><g transform="translate(-190,-222) scale(1,1)"><path fill="none" stroke="#000000" d="M 754 344 L 966 344 Q 976 344 976 354 L 976 373 Q 976 383 966 383 L 754 383 Q 744 383 744 373 L 744 354 Q 744 344 754 344 Z" stroke-miterlimit="10"/></g><g transform="translate(-190,-222) scale(1,1)"><g><path fill="none" stroke="none"/><text fill="#000000" stroke="none" font-family="Arial" font-size="13px" font-style="normal" font-weight="bold" text-decoration="none" x="793.5400390625" y="362">Logado com sucesso</text></g></g><g transform="translate(-190,-222) scale(1,1)"><path fill="none" stroke="#000000" d="M 573 363 L 743 363" stroke-miterlimit="10"/></g><g transform="translate(-190,-222) scale(1,1)"><path fill="none" stroke="#000000" d="M 732.8373251423759 367.209517756016 L 743 363 L 732.8373251423758 358.790482243984" stroke-miterlimit="10"/></g><g transform="translate(-190,-222) scale(1,1)"><g><path fill="none" stroke="none"/><text fill="#000000" stroke="none" font-family="Arial" font-size="13px" font-style="normal" font-weight="normal" text-decoration="none" x="583.5" y="349">usuário e senha corretos</text></g></g><g transform="translate(-190,-222) scale(1,1)"><path fill="#C0C0C0" stroke="none" d="M 1135 371.5 C 1135 364.59644 1140.59644 359 1147.5 359 C 1154.40356 359 1160 364.59644 1160 371.5 C 1160 378.40356 1154.40356 384 1147.5 384 C 1140.59644 384 1135 378.40356 1135 371.5 Z" opacity="0.2"/></g><g transform="translate(-190,-222) scale(1,1)"><path fill="none" stroke="#000000" d="M 1128 364.5 C 1128 357.59644 1133.59644 352 1140.5 352 C 1147.40356 352 1153 357.59644 1153 364.5 C 1153 371.40356 1147.40356 377 1140.5 377 C 1133.59644 377 1128 371.40356 1128 364.5 Z" stroke-miterlimit="10"/></g><g transform="translate(-190,-222) scale(1,1)"><path fill="#000000" stroke="none" d="M 1133 364.5 C 1133 360.357864 1136.357864 357 1140.5 357 C 1144.642136 357 1148 360.357864 1148 364.5 C 1148 368.642136 1144.642136 372 1140.5 372 C 1136.357864 372 1133 368.642136 1133 364.5 Z"/></g><g transform="translate(-190,-222) scale(1,1)"><path fill="none" stroke="#000000" d="M 977 363 L 1127 364" stroke-miterlimit="10"/></g><g transform="translate(-190,-222) scale(1,1)"><path fill="none" stroke="#000000" d="M 1116.809488143972 368.1416745541088 L 1127 364 L 1116.8656138001625 359.7228261255188" stroke-miterlimit="10"/></g><g transform="translate(-190,-222) scale(1,1)"><path fill="#ffffff" stroke="none" d="M 1040 232 L 1221 232 L 1231 242 L 1231 295 L 1040 295 L 1040 232"/></g><g transform="translate(-190,-222) scale(1,1)"><path fill="none" stroke="#000000" d="M 1040 232 L 1221 232 L 1231 242 L 1231 295 L 1040 295 L 1040 232 L 1040 232" stroke-miterlimit="10"/></g><g transform="translate(-190,-222) scale(1,1)"><path fill="none" stroke="#000000" d="M 1221 232 L 1221 242 L 1231 242 L 1221 232" stroke-miterlimit="10"/></g><g transform="translate(-190,-222) scale(1,1)"><g><path fill="none" stroke="none"/><text fill="#000000" stroke="none" font-family="Arial" font-size="13px" font-style="normal" font-weight="normal" text-decoration="none" x="1102.03369140625" y="267">Estado final</text></g></g><g transform="translate(-190,-222) scale(1,1)"><path fill="none" stroke="#000000" d="M 1137 297 L 1139 351" stroke-miterlimit="10" stroke-dasharray="3"/></g></g></svg>