<svg version="1.1" xmlns="http://www.w3.org/2000/svg" xmlns:xlink="http://www.w3.org/1999/xlink" width="1365" height="265"><defs/><g><text fill="#eeeeee" stroke="none" font-family="Arial" font-size="24px" font-style="normal" font-weight="normal" text-decoration="none" x="0" y="0">UNREGISTERED</text><text fill="#eeeeee" stroke="none" font-family="Arial" font-size="24px" font-style="normal" font-weight="normal" text-decoration="none" x="0" y="30">UNREGISTERED</text><text fill="#eeeeee" stroke="none" font-family="Arial" font-size="24px" font-style="normal" font-weight="normal" text-decoration="none" x="0" y="60">UNREGISTERED</text><text fill="#eeeeee" stroke="none" font-family="Arial" font-size="24px" font-style="normal" font-weight="normal" text-decoration="none" x="0" y="90">UNREGISTERED</text><text fill="#eeeeee" stroke="none" font-family="Arial" font-size="24px" font-style="normal" font-weight="normal" text-decoration="none" x="0" y="120">UNREGISTERED</text><text fill="#eeeeee" stroke="none" font-family="Arial" font-size="24px" font-style="normal" font-weight="normal" text-decoration="none" x="0" y="150">UNREGISTERED</text><text fill="#eeeeee" stroke="none" font-family="Arial" font-size="24px" font-style="normal" font-weight="normal" text-decoration="none" x="0" y="180">UNREGISTERED</text><text fill="#eeeeee" stroke="none" font-family="Arial" font-size="24px" font-style="normal" font-weight="normal" text-decoration="none" x="0" y="210">UNREGISTERED</text><text fill="#eeeeee" stroke="none" font-family="Arial" font-size="24px" font-style="normal" font-weight="normal" text-decoration="none" x="0" y="240">UNREGISTERED</text><text fill="#eeeeee" stroke="none" font-family="Arial" font-size="24px" font-style="normal" font-weight="normal" text-decoration="none" x="200" y="0">UNREGISTERED</text><text fill="#eeeeee" stroke="none" font-family="Arial" font-size="24px" font-style="normal" font-weight="normal" text-decoration="none" x="200" y="30">UNREGISTERED</text><text fill="#eeeeee" stroke="none" font-family="Arial" font-size="24px" font-style="normal" font-weight="normal" text-decoration="none" x="200" y="60">UNREGISTERED</text><text fill="#eeeeee" stroke="none" font-family="Arial" font-size="24px" font-style="normal" font-weight="normal" text-decoration="none" x="200" y="90">UNREGISTERED</text><text fill="#eeeeee" stroke="none" font-family="Arial" font-size="24px" font-style="normal" font-weight="normal" text-decoration="none" x="200" y="120">UNREGISTERED</text><text fill="#eeeeee" stroke="none" font-family="Arial" font-size="24px" font-style="normal" font-weight="normal" text-decoration="none" x="200" y="150">UNREGISTERED</text><text fill="#eeeeee" stroke="none" font-family="Arial" font-size="24px" font-style="normal" font-weight="normal" text-decoration="none" x="200" y="180">UNREGISTERED</text><text fill="#eeeeee" stroke="none" font-family="Arial" font-size="24px" font-style="normal" font-weight="normal" text-decoration="none" x="200" y="210">UNREGISTERED</text><text fill="#eeeeee" stroke="none" font-family="Arial" font-size="24px" font-style="normal" font-weight="normal" text-decoration="none" x="200" y="240">UNREGISTERED</text><text fill="#eeeeee" stroke="none" font-family="Arial" font-size="24px" font-style="normal" font-weight="normal" text-decoration="none" x="400" y="0">UNREGISTERED</text><text fill="#eeeeee" stroke="none" font-family="Arial" font-size="24px" font-style="normal" font-weight="normal" text-decoration="none" x="400" y="30">UNREGISTERED</text><text fill="#eeeeee" stroke="none" font-family="Arial" font-size="24px" font-style="normal" font-weight="normal" text-decoration="none" x="400" y="60">UNREGISTERED</text><text fill="#eeeeee" stroke="none" font-family="Arial" font-size="24px" font-style="normal" font-weight="normal" text-decoration="none" x="400" y="90">UNREGISTERED</text><text fill="#eeeeee" stroke="none" font-family="Arial" font-size="24px" font-style="normal" font-weight="normal" text-decoration="none" x="400" y="120">UNREGISTERED</text><text fill="#eeeeee" stroke="none" font-family="Arial" font-size="24px" font-style="normal" font-weight="normal" text-decoration="none" x="400" y="150">UNREGISTERED</text><text fill="#eeeeee" stroke="none" font-family="Arial" font-size="24px" font-style="normal" font-weight="normal" text-decoration="none" x="400" y="180">UNREGISTERED</text><text fill="#eeeeee" stroke="none" font-family="Arial" font-size="24px" font-style="normal" font-weight="normal" text-decoration="none" x="400" y="210">UNREGISTERED</text><text fill="#eeeeee" stroke="none" font-family="Arial" font-size="24px" font-style="normal" font-weight="normal" text-decoration="none" x="400" y="240">UNREGISTERED</text><text fill="#eeeeee" stroke="none" font-family="Arial" font-size="24px" font-style="normal" font-weight="normal" text-decoration="none" x="600" y="0">UNREGISTERED</text><text fill="#eeeeee" stroke="none" font-family="Arial" font-size="24px" font-style="normal" font-weight="normal" text-decoration="none" x="600" y="30">UNREGISTERED</text><text fill="#eeeeee" stroke="none" font-family="Arial" font-size="24px" font-style="normal" font-weight="normal" text-decoration="none" x="600" y="60">UNREGISTERED</text><text fill="#eeeeee" stroke="none" font-family="Arial" font-size="24px" font-style="normal" font-weight="normal" text-decoration="none" x="600" y="90">UNREGISTERED</text><text fill="#eeeeee" stroke="none" font-family="Arial" font-size="24px" font-style="normal" font-weight="normal" text-decoration="none" x="600" y="120">UNREGISTERED</text><text fill="#eeeeee" stroke="none" font-family="Arial" font-size="24px" font-style="normal" font-weight="normal" text-decoration="none" x="600" y="150">UNREGISTERED</text><text fill="#eeeeee" stroke="none" font-family="Arial" font-size="24px" font-style="normal" font-weight="normal" text-decoration="none" x="600" y="180">UNREGISTERED</text><text fill="#eeeeee" stroke="none" font-family="Arial" font-size="24px" font-style="normal" font-weight="normal" text-decoration="none" x="600" y="210">UNREGISTERED</text><text fill="#eeeeee" stroke="none" font-family="Arial" font-size="24px" font-style="normal" font-weight="normal" text-decoration="none" x="600" y="240">UNREGISTERED</text><text fill="#eeeeee" stroke="none" font-family="Arial" font-size="24px" font-style="normal" font-weight="normal" text-decoration="none" x="800" y="0">UNREGISTERED</text><text fill="#eeeeee" stroke="none" font-family="Arial" font-size="24px" font-style="normal" font-weight="normal" text-decoration="none" x="800" y="30">UNREGISTERED</text><text fill="#eeeeee" stroke="none" font-family="Arial" font-size="24px" font-style="normal" font-weight="normal" text-decoration="none" x="800" y="60">UNREGISTERED</text><text fill="#eeeeee" stroke="none" font-family="Arial" font-size="24px" font-style="normal" font-weight="normal" text-decoration="none" x="800" y="90">UNREGISTERED</text><text fill="#eeeeee" stroke="none" font-family="Arial" font-size="24px" font-style="normal" font-weight="normal" text-decoration="none" x="800" y="120">UNREGISTERED</text><text fill="#eeeeee" stroke="none" font-family="Arial" font-size="24px" font-style="normal" font-weight="normal" text-decoration="none" x="800" y="150">UNREGISTERED</text><text fill="#eeeeee" stroke="none" font-family="Arial" font-size="24px" font-style="normal" font-weight="normal" text-decoration="none" x="800" y="180">UNREGISTERED</text><text fill="#eeeeee" stroke="none" font-family="Arial" font-size="24px" font-style="normal" font-weight="normal" text-decoration="none" x="800" y="210">UNREGISTERED</text><text fill="#eeeeee" stroke="none" font-family="Arial" font-size="24px" font-style="normal" font-weight="normal" text-decoration="none" x="800" y="240">UNREGISTERED</text><text fill="#eeeeee" stroke="none" font-family="Arial" font-size="24px" font-style="normal" font-weight="normal" text-decoration="none" x="1000" y="0">UNREGISTERED</text><text fill="#eeeeee" stroke="none" font-family="Arial" font-size="24px" font-style="normal" font-weight="normal" text-decoration="none" x="1000" y="30">UNREGISTERED</text><text fill="#eeeeee" stroke="none" font-family="Arial" font-size="24px" font-style="normal" font-weight="normal" text-decoration="none" x="1000" y="60">UNREGISTERED</text><text fill="#eeeeee" stroke="none" font-family="Arial" font-size="24px" font-style="normal" font-weight="normal" text-decoration="none" x="1000" y="90">UNREGISTERED</text><text fill="#eeeeee" stroke="none" font-family="Arial" font-size="24px" font-style="normal" font-weight="normal" text-decoration="none" x="1000" y="120">UNREGISTERED</text><text fill="#eeeeee" stroke="none" font-family="Arial" font-size="24px" font-style="normal" font-weight="normal" text-decoration="none" x="1000" y="150">UNREGISTERED</text><text fill="#eeeeee" stroke="none" font-family="Arial" font-size="24px" font-style="normal" font-weight="normal" text-decoration="none" x="1000" y="180">UNREGISTERED</text><text fill="#eeeeee" stroke="none" font-family="Arial" font-size="24px" font-style="normal" font-weight="normal" text-decoration="none" x="1000" y="210">UNREGISTERED</text><text fill="#eeeeee" stroke="none" font-family="Arial" font-size="24px" font-style="normal" font-weight="normal" text-decoration="none" x="1000" y="240">UNREGISTERED</text><text fill="#eeeeee" stroke="none" font-family="Arial" font-size="24px" font-style="normal" font-weight="normal" text-decoration="none" x="1200" y="0">UNREGISTERED</text><text fill="#eeeeee" stroke="none" font-family="Arial" font-size="24px" font-style="normal" font-weight="normal" text-decoration="none" x="1200" y="30">UNREGISTERED</text><text fill="#eeeeee" stroke="none" font-family="Arial" font-size="24px" font-style="normal" font-weight="normal" text-decoration="none" x="1200" y="60">UNREGISTERED</text><text fill="#eeeeee" stroke="none" font-family="Arial" font-size="24px" font-style="normal" font-weight="normal" text-decoration="none" x="1200" y="90">UNREGISTERED</text><text fill="#eeeeee" stroke="none" font-family="Arial" font-size="24px" font-style="normal" font-weight="normal" text-decoration="none" x="1200" y="120">UNREGISTERED</text><text fill="#eeeeee" stroke="none" font-family="Arial" font-size="24px" font-style="normal" font-weight="normal" text-decoration="none" x="1200" y="150">UNREGISTERED</text><text fill="#eeeeee" stroke="none" font-family="Arial" font-size="24px" font-style="normal" font-weight="normal" text-decoration="none" x="1200" y="180">UNREGISTERED</text><text fill="#eeeeee" stroke="none" font-family="Arial" font-size="24px" font-style="normal" font-weight="normal" text-decoration="none" x="1200" y="210">UNREGISTERED</text><text fill="#eeeeee" stroke="none" font-family="Arial" font-size="24px" font-style="normal" font-weight="normal" text-decoration="none" x="1200" y="240">UNREGISTERED</text><g transform="translate(-222,-198) scale(1,1)"><path fill="#C0C0C0" stroke="none" d="M 239 360.5 C 239 355.2532944 243.2532944 351 248.5 351 C 253.7467056 351 258 355.2532944 258 360.5 C 258 365.7467056 253.7467056 370 248.5 370 C 243.2532944 370 239 365.7467056 239 360.5 Z" opacity="0.2"/></g><g transform="translate(-222,-198) scale(1,1)"><path fill="#000000" stroke="none" d="M 232 353.5 C 232 348.2532944 236.2532944 344 241.5 344 C 246.7467056 344 251 348.2532944 251 353.5 C 251 358.7467056 246.7467056 363 241.5 363 C 236.2532944 363 232 358.7467056 232 353.5 Z"/></g><g transform="translate(-222,-198) scale(1,1)"><path fill="#C0C0C0" stroke="none" d="M 377 343 L 569.0107421875 343 Q 579.0107421875 343 579.0107421875 353 L 579.0107421875 372 Q 579.0107421875 382 569.0107421875 382 L 377 382 Q 367 382 367 372 L 367 353 Q 367 343 377 343 Z" opacity="0.2"/></g><g transform="translate(-222,-198) scale(1,1)"><path fill="#ffffff" stroke="none" d="M 370 336 L 562.0107421875 336 Q 572.0107421875 336 572.0107421875 346 L 572.0107421875 365 Q 572.0107421875 375 562.0107421875 375 L 370 375 Q 360 375 360 365 L 360 346 Q 360 336 370 336 Z"/></g><g transform="translate(-222,-198) scale(1,1)"><path fill="none" stroke="#000000" d="M 370 336 L 562.0107421875 336 Q 572.0107421875 336 572.0107421875 346 L 572.0107421875 365 Q 572.0107421875 375 562.0107421875 375 L 370 375 Q 360 375 360 365 L 360 346 Q 360 336 370 336 Z" stroke-miterlimit="10"/></g><g transform="translate(-222,-198) scale(1,1)"><g><path fill="none" stroke="none"/><text fill="#000000" stroke="none" font-family="Arial" font-size="13px" font-style="normal" font-weight="bold" text-decoration="none" x="364.5" y="354">Preenche formulário de cadastro</text></g></g><g transform="translate(-222,-198) scale(1,1)"><path fill="none" stroke="#000000" d="M 252 353 L 359 354" stroke-miterlimit="10"/></g><g transform="translate(-222,-198) scale(1,1)"><path fill="none" stroke="#000000" d="M 348.79842936755244 358.11435980818203 L 359 354 L 348.8771085064359 349.69569194764966" stroke-miterlimit="10"/></g><g transform="translate(-222,-198) scale(1,1)"><g><path fill="none" stroke="none"/><text fill="#000000" stroke="none" font-family="Arial" font-size="13px" font-style="normal" font-weight="normal" text-decoration="none" x="263.5" y="343">Inicia cadastro</text></g></g><g transform="translate(-222,-198) scale(1,1)"><path fill="#ffffff" stroke="none" d="M 360 208 L 557 208 L 567 218 L 567 283 L 360 283 L 360 208"/></g><g transform="translate(-222,-198) scale(1,1)"><path fill="none" stroke="#000000" d="M 360 208 L 557 208 L 567 218 L 567 283 L 360 283 L 360 208 L 360 208" stroke-miterlimit="10"/></g><g transform="translate(-222,-198) scale(1,1)"><path fill="none" stroke="#000000" d="M 557 208 L 557 218 L 567 218 L 557 208" stroke-miterlimit="10"/></g><g transform="translate(-222,-198) scale(1,1)"><g><path fill="none" stroke="none"/><text fill="#000000" stroke="none" font-family="Arial" font-size="13px" font-style="normal" font-weight="normal" text-decoration="none" x="365.005126953125" y="223">Formulário contendo campos para</text><text fill="#000000" stroke="none" font-family="Arial" font-size="13px" font-style="normal" font-weight="normal" text-decoration="none" x="365.716064453125" y="236">nome, senha, endereço completo,</text><text fill="#000000" stroke="none" font-family="Arial" font-size="13px" font-style="normal" font-weight="normal" text-decoration="none" x="386.6728515625" y="249">comprovante de endereço,</text><text fill="#000000" stroke="none" font-family="Arial" font-size="13px" font-style="normal" font-weight="normal" text-decoration="none" x="397.15283203125" y="262">comprovante de renda.</text></g></g><g transform="translate(-222,-198) scale(1,1)"><path fill="none" stroke="#000000" d="M 465 285 L 466 335" stroke-miterlimit="10" stroke-dasharray="3"/></g><g transform="translate(-222,-198) scale(1,1)"><path fill="#C0C0C0" stroke="none" d="M 689 343 L 956.14794921875 343 Q 966.14794921875 343 966.14794921875 353 L 966.14794921875 373 Q 966.14794921875 383 956.14794921875 383 L 689 383 Q 679 383 679 373 L 679 353 Q 679 343 689 343 Z" opacity="0.2"/></g><g transform="translate(-222,-198) scale(1,1)"><path fill="#ffffff" stroke="none" d="M 682 336 L 949.14794921875 336 Q 959.14794921875 336 959.14794921875 346 L 959.14794921875 366 Q 959.14794921875 376 949.14794921875 376 L 682 376 Q 672 376 672 366 L 672 346 Q 672 336 682 336 Z"/></g><g transform="translate(-222,-198) scale(1,1)"><path fill="none" stroke="#000000" d="M 682 336 L 949.14794921875 336 Q 959.14794921875 336 959.14794921875 346 L 959.14794921875 366 Q 959.14794921875 376 949.14794921875 376 L 682 376 Q 672 376 672 366 L 672 346 Q 672 336 682 336 Z" stroke-miterlimit="10"/></g><g transform="translate(-222,-198) scale(1,1)"><g><path fill="none" stroke="none"/><text fill="#000000" stroke="none" font-family="Arial" font-size="13px" font-style="normal" font-weight="bold" text-decoration="none" x="676.5" y="354">Administrativo avalia documentação enviada</text></g></g><g transform="translate(-222,-198) scale(1,1)"><path fill="none" stroke="#000000" d="M 573 355 L 671 356" stroke-miterlimit="10"/></g><g transform="translate(-222,-198) scale(1,1)"><path fill="none" stroke="#000000" d="M 660.79490215987 360.10560325328373 L 671 356 L 660.8808062133133 351.6870060158304" stroke-miterlimit="10"/></g><g transform="translate(-222,-198) scale(1,1)"><g><path fill="none" stroke="none"/><text fill="#000000" stroke="none" font-family="Arial" font-size="13px" font-style="normal" font-weight="normal" text-decoration="none" x="586.5" y="345">envia dados</text></g></g><g transform="translate(-222,-198) scale(1,1)"><path fill="none" stroke="#000000" d="M 815 377 L 816 432 L 464 432 L 465 376" stroke-miterlimit="10"/></g><g transform="translate(-222,-198) scale(1,1)"><path fill="none" stroke="#000000" d="M 469.0273993468339 386.23621289838786 L 465 376 L 460.6097058345733 386.08589694281176" stroke-miterlimit="10"/></g><g transform="translate(-222,-198) scale(1,1)"><g><path fill="none" stroke="none"/><text fill="#000000" stroke="none" font-family="Arial" font-size="13px" font-style="normal" font-weight="normal" text-decoration="none" x="550.5" y="452">dados incorretos / incompletos</text></g></g><g transform="translate(-222,-198) scale(1,1)"><path fill="#C0C0C0" stroke="none" d="M 1089 343 L 1349 343 Q 1359 343 1359 353 L 1359 372 Q 1359 382 1349 382 L 1089 382 Q 1079 382 1079 372 L 1079 353 Q 1079 343 1089 343 Z" opacity="0.2"/></g><g transform="translate(-222,-198) scale(1,1)"><path fill="#ffffff" stroke="none" d="M 1082 336 L 1342 336 Q 1352 336 1352 346 L 1352 365 Q 1352 375 1342 375 L 1082 375 Q 1072 375 1072 365 L 1072 346 Q 1072 336 1082 336 Z"/></g><g transform="translate(-222,-198) scale(1,1)"><path fill="none" stroke="#000000" d="M 1082 336 L 1342 336 Q 1352 336 1352 346 L 1352 365 Q 1352 375 1342 375 L 1082 375 Q 1072 375 1072 365 L 1072 346 Q 1072 336 1082 336 Z" stroke-miterlimit="10"/></g><g transform="translate(-222,-198) scale(1,1)"><g><path fill="none" stroke="none"/><text fill="#000000" stroke="none" font-family="Arial" font-size="13px" font-style="normal" font-weight="bold" text-decoration="none" x="1167.2236328125" y="354">Login liberado</text></g></g><g transform="translate(-222,-198) scale(1,1)"><path fill="none" stroke="#000000" d="M 960 356 L 1071 355" stroke-miterlimit="10"/></g><g transform="translate(-222,-198) scale(1,1)"><path fill="none" stroke="#000000" d="M 1060.8756595745178 359.3008988536056 L 1071 355 L 1060.7998154855184 350.8822049746824" stroke-miterlimit="10"/></g><g transform="translate(-222,-198) scale(1,1)"><g><path fill="none" stroke="none"/><text fill="#000000" stroke="none" font-family="Arial" font-size="13px" font-style="normal" font-weight="normal" text-decoration="none" x="972.5" y="345">dados corretos</text></g></g><g transform="translate(-222,-198) scale(1,1)"><path fill="#C0C0C0" stroke="none" d="M 1559 363.5 C 1559 356.59644 1564.59644 351 1571.5 351 C 1578.40356 351 1584 356.59644 1584 363.5 C 1584 370.40356 1578.40356 376 1571.5 376 C 1564.59644 376 1559 370.40356 1559 363.5 Z" opacity="0.2"/></g><g transform="translate(-222,-198) scale(1,1)"><path fill="none" stroke="#000000" d="M 1552 356.5 C 1552 349.59644 1557.59644 344 1564.5 344 C 1571.40356 344 1577 349.59644 1577 356.5 C 1577 363.40356 1571.40356 369 1564.5 369 C 1557.59644 369 1552 363.40356 1552 356.5 Z" stroke-miterlimit="10"/></g><g transform="translate(-222,-198) scale(1,1)"><path fill="#000000" stroke="none" d="M 1557 356.5 C 1557 352.357864 1560.357864 349 1564.5 349 C 1568.642136 349 1572 352.357864 1572 356.5 C 1572 360.642136 1568.642136 364 1564.5 364 C 1560.357864 364 1557 360.642136 1557 356.5 Z"/></g><g transform="translate(-222,-198) scale(1,1)"><path fill="none" stroke="#000000" d="M 1353 355 L 1551 356" stroke-miterlimit="10"/></g><g transform="translate(-222,-198) scale(1,1)"><path fill="none" stroke="#000000" d="M 1540.8161948330815 360.15813808359496 L 1551 356 L 1540.8587146721693 351.73920994420934" stroke-miterlimit="10"/></g><g transform="translate(-222,-198) scale(1,1)"><g><path fill="none" stroke="none"/><text fill="#000000" stroke="none" font-family="Arial" font-size="13px" font-style="normal" font-weight="normal" text-decoration="none" x="1357.5" y="345">Cadastro realizado com sucesso</text></g></g><g transform="translate(-222,-198) scale(1,1)"><path fill="#ffffff" stroke="none" d="M 712 208 L 909 208 L 919 218 L 919 279 L 712 279 L 712 208"/></g><g transform="translate(-222,-198) scale(1,1)"><path fill="none" stroke="#000000" d="M 712 208 L 909 208 L 919 218 L 919 279 L 712 279 L 712 208 L 712 208" stroke-miterlimit="10"/></g><g transform="translate(-222,-198) scale(1,1)"><path fill="none" stroke="#000000" d="M 909 208 L 909 218 L 919 218 L 909 208" stroke-miterlimit="10"/></g><g transform="translate(-222,-198) scale(1,1)"><g><path fill="none" stroke="none"/><text fill="#000000" stroke="none" font-family="Arial" font-size="13px" font-style="normal" font-weight="normal" text-decoration="none" x="718.801513671875" y="241">Funcionário valida documentação</text><text fill="#000000" stroke="none" font-family="Arial" font-size="13px" font-style="normal" font-weight="normal" text-decoration="none" x="791.425048828125" y="254">enviada.</text></g></g><g transform="translate(-222,-198) scale(1,1)"><path fill="none" stroke="#000000" d="M 816 281 L 815 335" stroke-miterlimit="10" stroke-dasharray="3"/></g><g transform="translate(-222,-198) scale(1,1)"><path fill="#ffffff" stroke="none" d="M 1104 208 L 1301 208 L 1311 218 L 1311 279 L 1104 279 L 1104 208"/></g><g transform="translate(-222,-198) scale(1,1)"><path fill="none" stroke="#000000" d="M 1104 208 L 1301 208 L 1311 218 L 1311 279 L 1104 279 L 1104 208 L 1104 208" stroke-miterlimit="10"/></g><g transform="translate(-222,-198) scale(1,1)"><path fill="none" stroke="#000000" d="M 1301 208 L 1301 218 L 1311 218 L 1301 208" stroke-miterlimit="10"/></g><g transform="translate(-222,-198) scale(1,1)"><g><path fill="none" stroke="none"/><text fill="#000000" stroke="none" font-family="Arial" font-size="13px" font-style="normal" font-weight="normal" text-decoration="none" x="1134.287841796875" y="247">Número de conta gerado </text></g></g><g transform="translate(-222,-198) scale(1,1)"><path fill="none" stroke="#000000" d="M 1209 281 L 1211 335" stroke-miterlimit="10" stroke-dasharray="3"/></g></g></svg>