<svg version="1.1" xmlns="http://www.w3.org/2000/svg" xmlns:xlink="http://www.w3.org/1999/xlink" width="785.91162109375" height="412"><defs/><g><text fill="#eeeeee" stroke="none" font-family="Arial" font-size="24px" font-style="normal" font-weight="normal" text-decoration="none" x="0" y="0">UNREGISTERED</text><text fill="#eeeeee" stroke="none" font-family="Arial" font-size="24px" font-style="normal" font-weight="normal" text-decoration="none" x="0" y="30">UNREGISTERED</text><text fill="#eeeeee" stroke="none" font-family="Arial" font-size="24px" font-style="normal" font-weight="normal" text-decoration="none" x="0" y="60">UNREGISTERED</text><text fill="#eeeeee" stroke="none" font-family="Arial" font-size="24px" font-style="normal" font-weight="normal" text-decoration="none" x="0" y="90">UNREGISTERED</text><text fill="#eeeeee" stroke="none" font-family="Arial" font-size="24px" font-style="normal" font-weight="normal" text-decoration="none" x="0" y="120">UNREGISTERED</text><text fill="#eeeeee" stroke="none" font-family="Arial" font-size="24px" font-style="normal" font-weight="normal" text-decoration="none" x="0" y="150">UNREGISTERED</text><text fill="#eeeeee" stroke="none" font-family="Arial" font-size="24px" font-style="normal" font-weight="normal" text-decoration="none" x="0" y="180">UNREGISTERED</text><text fill="#eeeeee" stroke="none" font-family="Arial" font-size="24px" font-style="normal" font-weight="normal" text-decoration="none" x="0" y="210">UNREGISTERED</text><text fill="#eeeeee" stroke="none" font-family="Arial" font-size="24px" font-style="normal" font-weight="normal" text-decoration="none" x="0" y="240">UNREGISTERED</text><text fill="#eeeeee" stroke="none" font-family="Arial" font-size="24px" font-style="normal" font-weight="normal" text-decoration="none" x="0" y="270">UNREGISTERED</text><text fill="#eeeeee" stroke="none" font-family="Arial" font-size="24px" font-style="normal" font-weight="normal" text-decoration="none" x="0" y="300">UNREGISTERED</text><text fill="#eeeeee" stroke="none" font-family="Arial" font-size="24px" font-style="normal" font-weight="normal" text-decoration="none" x="0" y="330">UNREGISTERED</text><text fill="#eeeeee" stroke="none" font-family="Arial" font-size="24px" font-style="normal" font-weight="normal" text-decoration="none" x="0" y="360">UNREGISTERED</text><text fill="#eeeeee" stroke="none" font-family="Arial" font-size="24px" font-style="normal" font-weight="normal" text-decoration="none" x="0" y="390">UNREGISTERED</text><text fill="#eeeeee" stroke="none" font-family="Arial" font-size="24px" font-style="normal" font-weight="normal" text-decoration="none" x="200" y="0">UNREGISTERED</text><text fill="#eeeeee" stroke="none" font-family="Arial" font-size="24px" font-style="normal" font-weight="normal" text-decoration="none" x="200" y="30">UNREGISTERED</text><text fill="#eeeeee" stroke="none" font-family="Arial" font-size="24px" font-style="normal" font-weight="normal" text-decoration="none" x="200" y="60">UNREGISTERED</text><text fill="#eeeeee" stroke="none" font-family="Arial" font-size="24px" font-style="normal" font-weight="normal" text-decoration="none" x="200" y="90">UNREGISTERED</text><text fill="#eeeeee" stroke="none" font-family="Arial" font-size="24px" font-style="normal" font-weight="normal" text-decoration="none" x="200" y="120">UNREGISTERED</text><text fill="#eeeeee" stroke="none" font-family="Arial" font-size="24px" font-style="normal" font-weight="normal" text-decoration="none" x="200" y="150">UNREGISTERED</text><text fill="#eeeeee" stroke="none" font-family="Arial" font-size="24px" font-style="normal" font-weight="normal" text-decoration="none" x="200" y="180">UNREGISTERED</text><text fill="#eeeeee" stroke="none" font-family="Arial" font-size="24px" font-style="normal" font-weight="normal" text-decoration="none" x="200" y="210">UNREGISTERED</text><text fill="#eeeeee" stroke="none" font-family="Arial" font-size="24px" font-style="normal" font-weight="normal" text-decoration="none" x="200" y="240">UNREGISTERED</text><text fill="#eeeeee" stroke="none" font-family="Arial" font-size="24px" font-style="normal" font-weight="normal" text-decoration="none" x="200" y="270">UNREGISTERED</text><text fill="#eeeeee" stroke="none" font-family="Arial" font-size="24px" font-style="normal" font-weight="normal" text-decoration="none" x="200" y="300">UNREGISTERED</text><text fill="#eeeeee" stroke="none" font-family="Arial" font-size="24px" font-style="normal" font-weight="normal" text-decoration="none" x="200" y="330">UNREGISTERED</text><text fill="#eeeeee" stroke="none" font-family="Arial" font-size="24px" font-style="normal" font-weight="normal" text-decoration="none" x="200" y="360">UNREGISTERED</text><text fill="#eeeeee" stroke="none" font-family="Arial" font-size="24px" font-style="normal" font-weight="normal" text-decoration="none" x="200" y="390">UNREGISTERED</text><text fill="#eeeeee" stroke="none" font-family="Arial" font-size="24px" font-style="normal" font-weight="normal" text-decoration="none" x="400" y="0">UNREGISTERED</text><text fill="#eeeeee" stroke="none" font-family="Arial" font-size="24px" font-style="normal" font-weight="normal" text-decoration="none" x="400" y="30">UNREGISTERED</text><text fill="#eeeeee" stroke="none" font-family="Arial" font-size="24px" font-style="normal" font-weight="normal" text-decoration="none" x="400" y="60">UNREGISTERED</text><text fill="#eeeeee" stroke="none" font-family="Arial" font-size="24px" font-style="normal" font-weight="normal" text-decoration="none" x="400" y="90">UNREGISTERED</text><text fill="#eeeeee" stroke="none" font-family="Arial" font-size="24px" font-style="normal" font-weight="normal" text-decoration="none" x="400" y="120">UNREGISTERED</text><text fill="#eeeeee" stroke="none" font-family="Arial" font-size="24px" font-style="normal" font-weight="normal" text-decoration="none" x="400" y="150">UNREGISTERED</text><text fill="#eeeeee" stroke="none" font-family="Arial" font-size="24px" font-style="normal" font-weight="normal" text-decoration="none" x="400" y="180">UNREGISTERED</text><text fill="#eeeeee" stroke="none" font-family="Arial" font-size="24px" font-style="normal" font-weight="normal" text-decoration="none" x="400" y="210">UNREGISTERED</text><text fill="#eeeeee" stroke="none" font-family="Arial" font-size="24px" font-style="normal" font-weight="normal" text-decoration="none" x="400" y="240">UNREGISTERED</text><text fill="#eeeeee" stroke="none" font-family="Arial" font-size="24px" font-style="normal" font-weight="normal" text-decoration="none" x="400" y="270">UNREGISTERED</text><text fill="#eeeeee" stroke="none" font-family="Arial" font-size="24px" font-style="normal" font-weight="normal" text-decoration="none" x="400" y="300">UNREGISTERED</text><text fill="#eeeeee" stroke="none" font-family="Arial" font-size="24px" font-style="normal" font-weight="normal" text-decoration="none" x="400" y="330">UNREGISTERED</text><text fill="#eeeeee" stroke="none" font-family="Arial" font-size="24px" font-style="normal" font-weight="normal" text-decoration="none" x="400" y="360">UNREGISTERED</text><text fill="#eeeeee" stroke="none" font-family="Arial" font-size="24px" font-style="normal" font-weight="normal" text-decoration="none" x="400" y="390">UNREGISTERED</text><text fill="#eeeeee" stroke="none" font-family="Arial" font-size="24px" font-style="normal" font-weight="normal" text-decoration="none" x="600" y="0">UNREGISTERED</text><text fill="#eeeeee" stroke="none" font-family="Arial" font-size="24px" font-style="normal" font-weight="normal" text-decoration="none" x="600" y="30">UNREGISTERED</text><text fill="#eeeeee" stroke="none" font-family="Arial" font-size="24px" font-style="normal" font-weight="normal" text-decoration="none" x="600" y="60">UNREGISTERED</text><text fill="#eeeeee" stroke="none" font-family="Arial" font-size="24px" font-style="normal" font-weight="normal" text-decoration="none" x="600" y="90">UNREGISTERED</text><text fill="#eeeeee" stroke="none" font-family="Arial" font-size="24px" font-style="normal" font-weight="normal" text-decoration="none" x="600" y="120">UNREGISTERED</text><text fill="#eeeeee" stroke="none" font-family="Arial" font-size="24px" font-style="normal" font-weight="normal" text-decoration="none" x="600" y="150">UNREGISTERED</text><text fill="#eeeeee" stroke="none" font-family="Arial" font-size="24px" font-style="normal" font-weight="normal" text-decoration="none" x="600" y="180">UNREGISTERED</text><text fill="#eeeeee" stroke="none" font-family="Arial" font-size="24px" font-style="normal" font-weight="normal" text-decoration="none" x="600" y="210">UNREGISTERED</text><text fill="#eeeeee" stroke="none" font-family="Arial" font-size="24px" font-style="normal" font-weight="normal" text-decoration="none" x="600" y="240">UNREGISTERED</text><text fill="#eeeeee" stroke="none" font-family="Arial" font-size="24px" font-style="normal" font-weight="normal" text-decoration="none" x="600" y="270">UNREGISTERED</text><text fill="#eeeeee" stroke="none" font-family="Arial" font-size="24px" font-style="normal" font-weight="normal" text-decoration="none" x="600" y="300">UNREGISTERED</text><text fill="#eeeeee" stroke="none" font-family="Arial" font-size="24px" font-style="normal" font-weight="normal" text-decoration="none" x="600" y="330">UNREGISTERED</text><text fill="#eeeeee" stroke="none" font-family="Arial" font-size="24px" font-style="normal" font-weight="normal" text-decoration="none" x="600" y="360">UNREGISTERED</text><text fill="#eeeeee" stroke="none" font-family="Arial" font-size="24px" font-style="normal" font-weight="normal" text-decoration="none" x="600" y="390">UNREGISTERED</text><g transform="translate(-62,-230) scale(1,1)"><path fill="#C0C0C0" stroke="none" d="M 79 440.5 C 79 435.2532944 83.2532944 431 88.5 431 C 93.7467056 431 98 435.2532944 98 440.5 C 98 445.7467056 93.7467056 450 88.5 450 C 83.2532944 450 79 445.7467056 79 440.5 Z" opacity="0.2"/></g><g transform="translate(-62,-230) scale(1,1)"><path fill="#000000" stroke="none" d="M 72 433.5 C 72 428.2532944 76.2532944 424 81.5 424 C 86.7467056 424 91 428.2532944 91 433.5 C 91 438.7467056 86.7467056 443 81.5 443 C 76.2532944 443 72 438.7467056 72 433.5 Z"/></g><g transform="translate(-62,-230) scale(1,1)"><path fill="#C0C0C0" stroke="none" d="M 257 415 L 388 415 Q 398 415 398 425 L 398 460 Q 398 470 388 470 L 257 470 Q 247 470 247 460 L 247 425 Q 247 415 257 415 Z" opacity="0.2"/></g><g transform="translate(-62,-230) scale(1,1)"><path fill="#ffffff" stroke="none" d="M 250 408 L 381 408 Q 391 408 391 418 L 391 453 Q 391 463 381 463 L 250 463 Q 240 463 240 453 L 240 418 Q 240 408 250 408 Z"/></g><g transform="translate(-62,-230) scale(1,1)"><path fill="none" stroke="#000000" d="M 250 408 L 381 408 Q 391 408 391 418 L 391 453 Q 391 463 381 463 L 250 463 Q 240 463 240 453 L 240 418 Q 240 408 250 408 Z" stroke-miterlimit="10"/></g><g transform="translate(-62,-230) scale(1,1)"><g><path fill="none" stroke="none"/><text fill="#000000" stroke="none" font-family="Arial" font-size="13px" font-style="normal" font-weight="bold" text-decoration="none" x="263.236572265625" y="426">Visualiza Gráfico</text></g></g><g transform="translate(-62,-230) scale(1,1)"><path fill="none" stroke="#000000" d="M 92 433 L 239 434" stroke-miterlimit="10"/></g><g transform="translate(-62,-230) scale(1,1)"><path fill="none" stroke="#000000" d="M 228.8089247707034 438.14028811446946 L 239 434 L 228.8661957959747 429.7214473995896" stroke-miterlimit="10"/></g><g transform="translate(-62,-230) scale(1,1)"><g><path fill="none" stroke="none"/><text fill="#000000" stroke="none" font-family="Arial" font-size="13px" font-style="normal" font-weight="normal" text-decoration="none" x="98.5" y="423">Usuário acessa gráfico</text></g></g><g transform="translate(-62,-230) scale(1,1)"><path fill="#C0C0C0" stroke="none" d="M 767 443.5 C 767 436.59644 772.59644 431 779.5 431 C 786.40356 431 792 436.59644 792 443.5 C 792 450.40356 786.40356 456 779.5 456 C 772.59644 456 767 450.40356 767 443.5 Z" opacity="0.2"/></g><g transform="translate(-62,-230) scale(1,1)"><path fill="none" stroke="#000000" d="M 760 436.5 C 760 429.59644 765.59644 424 772.5 424 C 779.40356 424 785 429.59644 785 436.5 C 785 443.40356 779.40356 449 772.5 449 C 765.59644 449 760 443.40356 760 436.5 Z" stroke-miterlimit="10"/></g><g transform="translate(-62,-230) scale(1,1)"><path fill="#000000" stroke="none" d="M 765 436.5 C 765 432.357864 768.357864 429 772.5 429 C 776.642136 429 780 432.357864 780 436.5 C 780 440.642136 776.642136 444 772.5 444 C 768.357864 444 765 440.642136 765 436.5 Z"/></g><g transform="translate(-62,-230) scale(1,1)"><path fill="#C0C0C0" stroke="none" d="M 481 591 L 612 591 Q 622 591 622 601 L 622 629 Q 622 639 612 639 L 481 639 Q 471 639 471 629 L 471 601 Q 471 591 481 591 Z" opacity="0.2"/></g><g transform="translate(-62,-230) scale(1,1)"><path fill="#ffffff" stroke="none" d="M 474 584 L 605 584 Q 615 584 615 594 L 615 622 Q 615 632 605 632 L 474 632 Q 464 632 464 622 L 464 594 Q 464 584 474 584 Z"/></g><g transform="translate(-62,-230) scale(1,1)"><path fill="none" stroke="#000000" d="M 474 584 L 605 584 Q 615 584 615 594 L 615 622 Q 615 632 605 632 L 474 632 Q 464 632 464 622 L 464 594 Q 464 584 474 584 Z" stroke-miterlimit="10"/></g><g transform="translate(-62,-230) scale(1,1)"><g><path fill="none" stroke="none"/><text fill="#000000" stroke="none" font-family="Arial" font-size="13px" font-style="normal" font-weight="bold" text-decoration="none" x="495.44091796875" y="602">Filtrar período</text></g></g><g transform="translate(-62,-230) scale(1,1)"><path fill="#C0C0C0" stroke="none" d="M 489 247 L 621 247 Q 631 247 631 257 L 631 285 Q 631 295 621 295 L 489 295 Q 479 295 479 285 L 479 257 Q 479 247 489 247 Z" opacity="0.2"/></g><g transform="translate(-62,-230) scale(1,1)"><path fill="#ffffff" stroke="none" d="M 482 240 L 614 240 Q 624 240 624 250 L 624 278 Q 624 288 614 288 L 482 288 Q 472 288 472 278 L 472 250 Q 472 240 482 240 Z"/></g><g transform="translate(-62,-230) scale(1,1)"><path fill="none" stroke="#000000" d="M 482 240 L 614 240 Q 624 240 624 250 L 624 278 Q 624 288 614 288 L 482 288 Q 472 288 472 278 L 472 250 Q 472 240 482 240 Z" stroke-miterlimit="10"/></g><g transform="translate(-62,-230) scale(1,1)"><g><path fill="none" stroke="none"/><text fill="#000000" stroke="none" font-family="Arial" font-size="13px" font-style="normal" font-weight="bold" text-decoration="none" x="512.957763671875" y="258">Filtrar ação</text></g></g><g transform="translate(-62,-230) scale(1,1)"><path fill="none" stroke="#000000" d="M 353 407 L 514 289" stroke-miterlimit="10"/></g><g transform="translate(-62,-230) scale(1,1)"><path fill="none" stroke="#000000" d="M 508.2915914388499 298.4028757143221 L 514 289 L 503.31470841637594 291.61238277687886" stroke-miterlimit="10"/></g><g transform="translate(-62,-230) scale(1,1)"><g><path fill="none" stroke="none"/><text fill="#000000" stroke="none" font-family="Arial" font-size="13px" font-style="normal" font-weight="normal" text-decoration="none" x="309.5" y="325">Usuário deseja filtrar ação</text></g></g><g transform="translate(-62,-230) scale(1,1)"><path fill="none" stroke="#000000" d="M 353 464 L 507 583" stroke-miterlimit="10"/></g><g transform="translate(-62,-230) scale(1,1)"><path fill="none" stroke="#000000" d="M 496.3845286984867 580.1169861174897 L 507 583 L 501.5323269237868 573.4551295906307" stroke-miterlimit="10"/></g><g transform="translate(-62,-230) scale(1,1)"><g><path fill="none" stroke="none"/><text fill="#000000" stroke="none" font-family="Arial" font-size="13px" font-style="normal" font-weight="normal" text-decoration="none" x="286.5" y="566">Usuário deseja filtrar período</text></g></g><g transform="translate(-62,-230) scale(1,1)"><path fill="none" stroke="#000000" d="M 392 435 L 759 436" stroke-miterlimit="10"/></g><g transform="translate(-62,-230) scale(1,1)"><path fill="none" stroke="#000000" d="M 748.825892835563 440.18181101994713 L 759 436 L 748.8488329016627 431.7628067613532" stroke-miterlimit="10"/></g><g transform="translate(-62,-230) scale(1,1)"><g><path fill="none" stroke="none"/><text fill="#000000" stroke="none" font-family="Arial" font-size="13px" font-style="normal" font-weight="normal" text-decoration="none" x="491.5" y="425">Usuário encerra visualização</text></g></g><g transform="translate(-62,-230) scale(1,1)"><path fill="none" stroke="#000000" d="M 581 289 L 759 426" stroke-miterlimit="10"/></g><g transform="translate(-62,-230) scale(1,1)"><path fill="none" stroke="#000000" d="M 748.3790084879312 423.1373894256185 L 759 426 L 753.5139962279328 416.4656535298498" stroke-miterlimit="10"/></g><g transform="translate(-62,-230) scale(1,1)"><g><path fill="none" stroke="none"/><text fill="#000000" stroke="none" font-family="Arial" font-size="13px" font-style="normal" font-weight="normal" text-decoration="none" x="671.5" y="341">Usuário encerra visualização</text></g></g><g transform="translate(-62,-230) scale(1,1)"><path fill="none" stroke="#000000" d="M 573 583 L 759 446" stroke-miterlimit="10"/></g><g transform="translate(-62,-230) scale(1,1)"><path fill="none" stroke="#000000" d="M 753.3138339351019 455.4163429994028 L 759 446 L 748.3209134277016 448.63763340541396" stroke-miterlimit="10"/></g><g transform="translate(-62,-230) scale(1,1)"><g><path fill="none" stroke="none"/><text fill="#000000" stroke="none" font-family="Arial" font-size="13px" font-style="normal" font-weight="normal" text-decoration="none" x="655.5" y="543">Usuário encerra visualização</text></g></g></g></svg>