<svg version="1.1" xmlns="http://www.w3.org/2000/svg" xmlns:xlink="http://www.w3.org/1999/xlink" width="1212.92431640625" height="143"><defs/><g><text fill="#eeeeee" stroke="none" font-family="Arial" font-size="24px" font-style="normal" font-weight="normal" text-decoration="none" x="0" y="0">UNREGISTERED</text><text fill="#eeeeee" stroke="none" font-family="Arial" font-size="24px" font-style="normal" font-weight="normal" text-decoration="none" x="0" y="30">UNREGISTERED</text><text fill="#eeeeee" stroke="none" font-family="Arial" font-size="24px" font-style="normal" font-weight="normal" text-decoration="none" x="0" y="60">UNREGISTERED</text><text fill="#eeeeee" stroke="none" font-family="Arial" font-size="24px" font-style="normal" font-weight="normal" text-decoration="none" x="0" y="90">UNREGISTERED</text><text fill="#eeeeee" stroke="none" font-family="Arial" font-size="24px" font-style="normal" font-weight="normal" text-decoration="none" x="0" y="120">UNREGISTERED</text><text fill="#eeeeee" stroke="none" font-family="Arial" font-size="24px" font-style="normal" font-weight="normal" text-decoration="none" x="200" y="0">UNREGISTERED</text><text fill="#eeeeee" stroke="none" font-family="Arial" font-size="24px" font-style="normal" font-weight="normal" text-decoration="none" x="200" y="30">UNREGISTERED</text><text fill="#eeeeee" stroke="none" font-family="Arial" font-size="24px" font-style="normal" font-weight="normal" text-decoration="none" x="200" y="60">UNREGISTERED</text><text fill="#eeeeee" stroke="none" font-family="Arial" font-size="24px" font-style="normal" font-weight="normal" text-decoration="none" x="200" y="90">UNREGISTERED</text><text fill="#eeeeee" stroke="none" font-family="Arial" font-size="24px" font-style="normal" font-weight="normal" text-decoration="none" x="200" y="120">UNREGISTERED</text><text fill="#eeeeee" stroke="none" font-family="Arial" font-size="24px" font-style="normal" font-weight="normal" text-decoration="none" x="400" y="0">UNREGISTERED</text><text fill="#eeeeee" stroke="none" font-family="Arial" font-size="24px" font-style="normal" font-weight="normal" text-decoration="none" x="400" y="30">UNREGISTERED</text><text fill="#eeeeee" stroke="none" font-family="Arial" font-size="24px" font-style="normal" font-weight="normal" text-decoration="none" x="400" y="60">UNREGISTERED</text><text fill="#eeeeee" stroke="none" font-family="Arial" font-size="24px" font-style="normal" font-weight="normal" text-decoration="none" x="400" y="90">UNREGISTERED</text><text fill="#eeeeee" stroke="none" font-family="Arial" font-size="24px" font-style="normal" font-weight="normal" text-decoration="none" x="400" y="120">UNREGISTERED</text><text fill="#eeeeee" stroke="none" font-family="Arial" font-size="24px" font-style="normal" font-weight="normal" text-decoration="none" x="600" y="0">UNREGISTERED</text><text fill="#eeeeee" stroke="none" font-family="Arial" font-size="24px" font-style="normal" font-weight="normal" text-decoration="none" x="600" y="30">UNREGISTERED</text><text fill="#eeeeee" stroke="none" font-family="Arial" font-size="24px" font-style="normal" font-weight="normal" text-decoration="none" x="600" y="60">UNREGISTERED</text><text fill="#eeeeee" stroke="none" font-family="Arial" font-size="24px" font-style="normal" font-weight="normal" text-decoration="none" x="600" y="90">UNREGISTERED</text><text fill="#eeeeee" stroke="none" font-family="Arial" font-size="24px" font-style="normal" font-weight="normal" text-decoration="none" x="600" y="120">UNREGISTERED</text><text fill="#eeeeee" stroke="none" font-family="Arial" font-size="24px" font-style="normal" font-weight="normal" text-decoration="none" x="800" y="0">UNREGISTERED</text><text fill="#eeeeee" stroke="none" font-family="Arial" font-size="24px" font-style="normal" font-weight="normal" text-decoration="none" x="800" y="30">UNREGISTERED</text><text fill="#eeeeee" stroke="none" font-family="Arial" font-size="24px" font-style="normal" font-weight="normal" text-decoration="none" x="800" y="60">UNREGISTERED</text><text fill="#eeeeee" stroke="none" font-family="Arial" font-size="24px" font-style="normal" font-weight="normal" text-decoration="none" x="800" y="90">UNREGISTERED</text><text fill="#eeeeee" stroke="none" font-family="Arial" font-size="24px" font-style="normal" font-weight="normal" text-decoration="none" x="800" y="120">UNREGISTERED</text><text fill="#eeeeee" stroke="none" font-family="Arial" font-size="24px" font-style="normal" font-weight="normal" text-decoration="none" x="1000" y="0">UNREGISTERED</text><text fill="#eeeeee" stroke="none" font-family="Arial" font-size="24px" font-style="normal" font-weight="normal" text-decoration="none" x="1000" y="30">UNREGISTERED</text><text fill="#eeeeee" stroke="none" font-family="Arial" font-size="24px" font-style="normal" font-weight="normal" text-decoration="none" x="1000" y="60">UNREGISTERED</text><text fill="#eeeeee" stroke="none" font-family="Arial" font-size="24px" font-style="normal" font-weight="normal" text-decoration="none" x="1000" y="90">UNREGISTERED</text><text fill="#eeeeee" stroke="none" font-family="Arial" font-size="24px" font-style="normal" font-weight="normal" text-decoration="none" x="1000" y="120">UNREGISTERED</text><text fill="#eeeeee" stroke="none" font-family="Arial" font-size="24px" font-style="normal" font-weight="normal" text-decoration="none" x="1200" y="0">UNREGISTERED</text><text fill="#eeeeee" stroke="none" font-family="Arial" font-size="24px" font-style="normal" font-weight="normal" text-decoration="none" x="1200" y="30">UNREGISTERED</text><text fill="#eeeeee" stroke="none" font-family="Arial" font-size="24px" font-style="normal" font-weight="normal" text-decoration="none" x="1200" y="60">UNREGISTERED</text><text fill="#eeeeee" stroke="none" font-family="Arial" font-size="24px" font-style="normal" font-weight="normal" text-decoration="none" x="1200" y="90">UNREGISTERED</text><text fill="#eeeeee" stroke="none" font-family="Arial" font-size="24px" font-style="normal" font-weight="normal" text-decoration="none" x="1200" y="120">UNREGISTERED</text><g transform="translate(-230,-402) scale(1,1)"><path fill="#C0C0C0" stroke="none" d="M 247 440.5 C 247 435.2532944 251.2532944 431 256.5 431 C 261.7467056 431 266 435.2532944 266 440.5 C 266 445.7467056 261.7467056 450 256.5 450 C 251.2532944 450 247 445.7467056 247 440.5 Z" opacity="0.2"/></g><g transform="translate(-230,-402) scale(1,1)"><path fill="#000000" stroke="none" d="M 240 433.5 C 240 428.2532944 244.2532944 424 249.5 424 C 254.7467056 424 259 428.2532944 259 433.5 C 259 438.7467056 254.7467056 443 249.5 443 C 244.2532944 443 240 438.7467056 240 433.5 Z"/></g><g transform="translate(-230,-402) scale(1,1)"><path fill="#C0C0C0" stroke="none" d="M 425 423 L 572.1962890625 423 Q 582.1962890625 423 582.1962890625 433 L 582.1962890625 452 Q 582.1962890625 462 572.1962890625 462 L 425 462 Q 415 462 415 452 L 415 433 Q 415 423 425 423 Z" opacity="0.2"/></g><g transform="translate(-230,-402) scale(1,1)"><path fill="#ffffff" stroke="none" d="M 418 416 L 565.1962890625 416 Q 575.1962890625 416 575.1962890625 426 L 575.1962890625 445 Q 575.1962890625 455 565.1962890625 455 L 418 455 Q 408 455 408 445 L 408 426 Q 408 416 418 416 Z"/></g><g transform="translate(-230,-402) scale(1,1)"><path fill="none" stroke="#000000" d="M 418 416 L 565.1962890625 416 Q 575.1962890625 416 575.1962890625 426 L 575.1962890625 445 Q 575.1962890625 455 565.1962890625 455 L 418 455 Q 408 455 408 445 L 408 426 Q 408 416 418 416 Z" stroke-miterlimit="10"/></g><g transform="translate(-230,-402) scale(1,1)"><g><path fill="none" stroke="none"/><text fill="#000000" stroke="none" font-family="Arial" font-size="13px" font-style="normal" font-weight="bold" text-decoration="none" x="412.5" y="434">Seleciona tipo de suporte</text></g></g><g transform="translate(-230,-402) scale(1,1)"><path fill="none" stroke="#000000" d="M 260 433 L 407 434" stroke-miterlimit="10"/></g><g transform="translate(-230,-402) scale(1,1)"><path fill="none" stroke="#000000" d="M 396.8089247707034 438.14028811446946 L 407 434 L 396.8661957959747 429.7214473995896" stroke-miterlimit="10"/></g><g transform="translate(-230,-402) scale(1,1)"><g><path fill="none" stroke="none"/><text fill="#000000" stroke="none" font-family="Arial" font-size="13px" font-style="normal" font-weight="normal" text-decoration="none" x="270.470458984375" y="423">abre ticket de suporte</text></g></g><g transform="translate(-230,-402) scale(1,1)"><path fill="#C0C0C0" stroke="none" d="M 713 423 L 992.4814453125 423 Q 1002.4814453125 423 1002.4814453125 433 L 1002.4814453125 452 Q 1002.4814453125 462 992.4814453125 462 L 713 462 Q 703 462 703 452 L 703 433 Q 703 423 713 423 Z" opacity="0.2"/></g><g transform="translate(-230,-402) scale(1,1)"><path fill="#ffffff" stroke="none" d="M 706 416 L 985.4814453125 416 Q 995.4814453125 416 995.4814453125 426 L 995.4814453125 445 Q 995.4814453125 455 985.4814453125 455 L 706 455 Q 696 455 696 445 L 696 426 Q 696 416 706 416 Z"/></g><g transform="translate(-230,-402) scale(1,1)"><path fill="none" stroke="#000000" d="M 706 416 L 985.4814453125 416 Q 995.4814453125 416 995.4814453125 426 L 995.4814453125 445 Q 995.4814453125 455 985.4814453125 455 L 706 455 Q 696 455 696 445 L 696 426 Q 696 416 706 416 Z" stroke-miterlimit="10"/></g><g transform="translate(-230,-402) scale(1,1)"><g><path fill="none" stroke="none"/><text fill="#000000" stroke="none" font-family="Arial" font-size="13px" font-style="normal" font-weight="bold" text-decoration="none" x="700.5" y="434">Usuário recebe link via email para recuperação</text></g></g><g transform="translate(-230,-402) scale(1,1)"><path fill="#C0C0C0" stroke="none" d="M 713 503 L 992.4814453125 503 Q 1002.4814453125 503 1002.4814453125 513 L 1002.4814453125 532 Q 1002.4814453125 542 992.4814453125 542 L 713 542 Q 703 542 703 532 L 703 513 Q 703 503 713 503 Z" opacity="0.2"/></g><g transform="translate(-230,-402) scale(1,1)"><path fill="#ffffff" stroke="none" d="M 706 496 L 985.4814453125 496 Q 995.4814453125 496 995.4814453125 506 L 995.4814453125 525 Q 995.4814453125 535 985.4814453125 535 L 706 535 Q 696 535 696 525 L 696 506 Q 696 496 706 496 Z"/></g><g transform="translate(-230,-402) scale(1,1)"><path fill="none" stroke="#000000" d="M 706 496 L 985.4814453125 496 Q 995.4814453125 496 995.4814453125 506 L 995.4814453125 525 Q 995.4814453125 535 985.4814453125 535 L 706 535 Q 696 535 696 525 L 696 506 Q 696 496 706 496 Z" stroke-miterlimit="10"/></g><g transform="translate(-230,-402) scale(1,1)"><g><path fill="none" stroke="none"/><text fill="#000000" stroke="none" font-family="Arial" font-size="13px" font-style="normal" font-weight="bold" text-decoration="none" x="700.5" y="514">Usuário recebe link via email para recuperação</text></g></g><g transform="translate(-230,-402) scale(1,1)"><path fill="none" stroke="#000000" d="M 576 435 L 695 435" stroke-miterlimit="10"/></g><g transform="translate(-230,-402) scale(1,1)"><path fill="none" stroke="#000000" d="M 684.8373251423759 439.209517756016 L 695 435 L 684.8373251423758 430.790482243984" stroke-miterlimit="10"/></g><g transform="translate(-230,-402) scale(1,1)"><g><path fill="none" stroke="none"/><text fill="#000000" stroke="none" font-family="Arial" font-size="13px" font-style="normal" font-weight="normal" text-decoration="none" x="587.5" y="425">recuperar senha</text></g></g><g transform="translate(-230,-402) scale(1,1)"><path fill="none" stroke="#000000" d="M 576 454 L 757 495" stroke-miterlimit="10"/></g><g transform="translate(-230,-402) scale(1,1)"><path fill="none" stroke="#000000" d="M 746.1584540328549 496.86034433433207 L 757 495 L 748.0184072339379 488.6493314222343" stroke-miterlimit="10"/></g><g transform="translate(-230,-402) scale(1,1)"><g><path fill="none" stroke="none"/><text fill="#000000" stroke="none" font-family="Arial" font-size="13px" font-style="normal" font-weight="normal" text-decoration="none" x="568.5" y="499">recuperar nº de conta</text></g></g><g transform="translate(-230,-402) scale(1,1)"><path fill="#C0C0C0" stroke="none" d="M 1137 423 L 1253 423 Q 1263 423 1263 433 L 1263 452 Q 1263 462 1253 462 L 1137 462 Q 1127 462 1127 452 L 1127 433 Q 1127 423 1137 423 Z" opacity="0.2"/></g><g transform="translate(-230,-402) scale(1,1)"><path fill="#ffffff" stroke="none" d="M 1130 416 L 1246 416 Q 1256 416 1256 426 L 1256 445 Q 1256 455 1246 455 L 1130 455 Q 1120 455 1120 445 L 1120 426 Q 1120 416 1130 416 Z"/></g><g transform="translate(-230,-402) scale(1,1)"><path fill="none" stroke="#000000" d="M 1130 416 L 1246 416 Q 1256 416 1256 426 L 1256 445 Q 1256 455 1246 455 L 1130 455 Q 1120 455 1120 445 L 1120 426 Q 1120 416 1130 416 Z" stroke-miterlimit="10"/></g><g transform="translate(-230,-402) scale(1,1)"><g><path fill="none" stroke="none"/><text fill="#000000" stroke="none" font-family="Arial" font-size="13px" font-style="normal" font-weight="bold" text-decoration="none" x="1141.392333984375" y="434">Senha recriada</text></g></g><g transform="translate(-230,-402) scale(1,1)"><path fill="none" stroke="#000000" d="M 996 435 L 1119 435" stroke-miterlimit="10"/></g><g transform="translate(-230,-402) scale(1,1)"><path fill="none" stroke="#000000" d="M 1108.837325142376 439.209517756016 L 1119 435 L 1108.837325142376 430.790482243984" stroke-miterlimit="10"/></g><g transform="translate(-230,-402) scale(1,1)"><g><path fill="none" stroke="none"/><text fill="#000000" stroke="none" font-family="Arial" font-size="13px" font-style="normal" font-weight="normal" text-decoration="none" x="1008.5" y="425">criar nova senha</text></g></g><g transform="translate(-230,-402) scale(1,1)"><path fill="#C0C0C0" stroke="none" d="M 1137 503 L 1256.736328125 503 Q 1266.736328125 503 1266.736328125 513 L 1266.736328125 532 Q 1266.736328125 542 1256.736328125 542 L 1137 542 Q 1127 542 1127 532 L 1127 513 Q 1127 503 1137 503 Z" opacity="0.2"/></g><g transform="translate(-230,-402) scale(1,1)"><path fill="#ffffff" stroke="none" d="M 1130 496 L 1249.736328125 496 Q 1259.736328125 496 1259.736328125 506 L 1259.736328125 525 Q 1259.736328125 535 1249.736328125 535 L 1130 535 Q 1120 535 1120 525 L 1120 506 Q 1120 496 1130 496 Z"/></g><g transform="translate(-230,-402) scale(1,1)"><path fill="none" stroke="#000000" d="M 1130 496 L 1249.736328125 496 Q 1259.736328125 496 1259.736328125 506 L 1259.736328125 525 Q 1259.736328125 535 1249.736328125 535 L 1130 535 Q 1120 535 1120 525 L 1120 506 Q 1120 496 1130 496 Z" stroke-miterlimit="10"/></g><g transform="translate(-230,-402) scale(1,1)"><g><path fill="none" stroke="none"/><text fill="#000000" stroke="none" font-family="Arial" font-size="13px" font-style="normal" font-weight="bold" text-decoration="none" x="1124.5" y="514">Novo número gerado</text></g></g><g transform="translate(-230,-402) scale(1,1)"><path fill="none" stroke="#000000" d="M 996 515 L 1119 515" stroke-miterlimit="10"/></g><g transform="translate(-230,-402) scale(1,1)"><path fill="none" stroke="#000000" d="M 1108.837325142376 519.209517756016 L 1119 515 L 1108.837325142376 510.790482243984" stroke-miterlimit="10"/></g><g transform="translate(-230,-402) scale(1,1)"><g><path fill="none" stroke="none"/><text fill="#000000" stroke="none" font-family="Arial" font-size="13px" font-style="normal" font-weight="normal" text-decoration="none" x="1002.5" y="505">gerar novo número</text></g></g><g transform="translate(-230,-402) scale(1,1)"><path fill="#C0C0C0" stroke="none" d="M 1359 483.5 C 1359 476.59644 1364.59644 471 1371.5 471 C 1378.40356 471 1384 476.59644 1384 483.5 C 1384 490.40356 1378.40356 496 1371.5 496 C 1364.59644 496 1359 490.40356 1359 483.5 Z" opacity="0.2"/></g><g transform="translate(-230,-402) scale(1,1)"><path fill="none" stroke="#000000" d="M 1352 476.5 C 1352 469.59644 1357.59644 464 1364.5 464 C 1371.40356 464 1377 469.59644 1377 476.5 C 1377 483.40356 1371.40356 489 1364.5 489 C 1357.59644 489 1352 483.40356 1352 476.5 Z" stroke-miterlimit="10"/></g><g transform="translate(-230,-402) scale(1,1)"><path fill="#000000" stroke="none" d="M 1357 476.5 C 1357 472.357864 1360.357864 469 1364.5 469 C 1368.642136 469 1372 472.357864 1372 476.5 C 1372 480.642136 1368.642136 484 1364.5 484 C 1360.357864 484 1357 480.642136 1357 476.5 Z"/></g><g transform="translate(-230,-402) scale(1,1)"><path fill="none" stroke="#000000" d="M 1257 451 L 1351 473" stroke-miterlimit="10"/></g><g transform="translate(-230,-402) scale(1,1)"><path fill="none" stroke="#000000" d="M 1340.1454399144322 474.7828419304021 L 1351 473 L 1342.0640073379273 466.58532657546925" stroke-miterlimit="10"/></g><g transform="translate(-230,-402) scale(1,1)"><path fill="none" stroke="#000000" d="M 1261 499 L 1351 479" stroke-miterlimit="10"/></g><g transform="translate(-230,-402) scale(1,1)"><path fill="none" stroke="#000000" d="M 1341.9925009211388 485.31387047256396 L 1351 479 L 1340.1661556931222 477.09531694648916" stroke-miterlimit="10"/></g><g transform="translate(-230,-402) scale(1,1)"><g><path fill="none" stroke="none"/><text fill="#000000" stroke="none" font-family="Arial" font-size="13px" font-style="normal" font-weight="normal" text-decoration="none" x="1279.5" y="451">ticket de suporte finalizado</text></g></g></g></svg>