<svg version="1.1" xmlns="http://www.w3.org/2000/svg" xmlns:xlink="http://www.w3.org/1999/xlink" width="1124" height="220"><defs/><g><text fill="#eeeeee" stroke="none" font-family="Arial" font-size="24px" font-style="normal" font-weight="normal" text-decoration="none" x="0" y="0">UNREGISTERED</text><text fill="#eeeeee" stroke="none" font-family="Arial" font-size="24px" font-style="normal" font-weight="normal" text-decoration="none" x="0" y="30">UNREGISTERED</text><text fill="#eeeeee" stroke="none" font-family="Arial" font-size="24px" font-style="normal" font-weight="normal" text-decoration="none" x="0" y="60">UNREGISTERED</text><text fill="#eeeeee" stroke="none" font-family="Arial" font-size="24px" font-style="normal" font-weight="normal" text-decoration="none" x="0" y="90">UNREGISTERED</text><text fill="#eeeeee" stroke="none" font-family="Arial" font-size="24px" font-style="normal" font-weight="normal" text-decoration="none" x="0" y="120">UNREGISTERED</text><text fill="#eeeeee" stroke="none" font-family="Arial" font-size="24px" font-style="normal" font-weight="normal" text-decoration="none" x="0" y="150">UNREGISTERED</text><text fill="#eeeeee" stroke="none" font-family="Arial" font-size="24px" font-style="normal" font-weight="normal" text-decoration="none" x="0" y="180">UNREGISTERED</text><text fill="#eeeeee" stroke="none" font-family="Arial" font-size="24px" font-style="normal" font-weight="normal" text-decoration="none" x="0" y="210">UNREGISTERED</text><text fill="#eeeeee" stroke="none" font-family="Arial" font-size="24px" font-style="normal" font-weight="normal" text-decoration="none" x="200" y="0">UNREGISTERED</text><text fill="#eeeeee" stroke="none" font-family="Arial" font-size="24px" font-style="normal" font-weight="normal" text-decoration="none" x="200" y="30">UNREGISTERED</text><text fill="#eeeeee" stroke="none" font-family="Arial" font-size="24px" font-style="normal" font-weight="normal" text-decoration="none" x="200" y="60">UNREGISTERED</text><text fill="#eeeeee" stroke="none" font-family="Arial" font-size="24px" font-style="normal" font-weight="normal" text-decoration="none" x="200" y="90">UNREGISTERED</text><text fill="#eeeeee" stroke="none" font-family="Arial" font-size="24px" font-style="normal" font-weight="normal" text-decoration="none" x="200" y="120">UNREGISTERED</text><text fill="#eeeeee" stroke="none" font-family="Arial" font-size="24px" font-style="normal" font-weight="normal" text-decoration="none" x="200" y="150">UNREGISTERED</text><text fill="#eeeeee" stroke="none" font-family="Arial" font-size="24px" font-style="normal" font-weight="normal" text-decoration="none" x="200" y="180">UNREGISTERED</text><text fill="#eeeeee" stroke="none" font-family="Arial" font-size="24px" font-style="normal" font-weight="normal" text-decoration="none" x="200" y="210">UNREGISTERED</text><text fill="#eeeeee" stroke="none" font-family="Arial" font-size="24px" font-style="normal" font-weight="normal" text-decoration="none" x="400" y="0">UNREGISTERED</text><text fill="#eeeeee" stroke="none" font-family="Arial" font-size="24px" font-style="normal" font-weight="normal" text-decoration="none" x="400" y="30">UNREGISTERED</text><text fill="#eeeeee" stroke="none" font-family="Arial" font-size="24px" font-style="normal" font-weight="normal" text-decoration="none" x="400" y="60">UNREGISTERED</text><text fill="#eeeeee" stroke="none" font-family="Arial" font-size="24px" font-style="normal" font-weight="normal" text-decoration="none" x="400" y="90">UNREGISTERED</text><text fill="#eeeeee" stroke="none" font-family="Arial" font-size="24px" font-style="normal" font-weight="normal" text-decoration="none" x="400" y="120">UNREGISTERED</text><text fill="#eeeeee" stroke="none" font-family="Arial" font-size="24px" font-style="normal" font-weight="normal" text-decoration="none" x="400" y="150">UNREGISTERED</text><text fill="#eeeeee" stroke="none" font-family="Arial" font-size="24px" font-style="normal" font-weight="normal" text-decoration="none" x="400" y="180">UNREGISTERED</text><text fill="#eeeeee" stroke="none" font-family="Arial" font-size="24px" font-style="normal" font-weight="normal" text-decoration="none" x="400" y="210">UNREGISTERED</text><text fill="#eeeeee" stroke="none" font-family="Arial" font-size="24px" font-style="normal" font-weight="normal" text-decoration="none" x="600" y="0">UNREGISTERED</text><text fill="#eeeeee" stroke="none" font-family="Arial" font-size="24px" font-style="normal" font-weight="normal" text-decoration="none" x="600" y="30">UNREGISTERED</text><text fill="#eeeeee" stroke="none" font-family="Arial" font-size="24px" font-style="normal" font-weight="normal" text-decoration="none" x="600" y="60">UNREGISTERED</text><text fill="#eeeeee" stroke="none" font-family="Arial" font-size="24px" font-style="normal" font-weight="normal" text-decoration="none" x="600" y="90">UNREGISTERED</text><text fill="#eeeeee" stroke="none" font-family="Arial" font-size="24px" font-style="normal" font-weight="normal" text-decoration="none" x="600" y="120">UNREGISTERED</text><text fill="#eeeeee" stroke="none" font-family="Arial" font-size="24px" font-style="normal" font-weight="normal" text-decoration="none" x="600" y="150">UNREGISTERED</text><text fill="#eeeeee" stroke="none" font-family="Arial" font-size="24px" font-style="normal" font-weight="normal" text-decoration="none" x="600" y="180">UNREGISTERED</text><text fill="#eeeeee" stroke="none" font-family="Arial" font-size="24px" font-style="normal" font-weight="normal" text-decoration="none" x="600" y="210">UNREGISTERED</text><text fill="#eeeeee" stroke="none" font-family="Arial" font-size="24px" font-style="normal" font-weight="normal" text-decoration="none" x="800" y="0">UNREGISTERED</text><text fill="#eeeeee" stroke="none" font-family="Arial" font-size="24px" font-style="normal" font-weight="normal" text-decoration="none" x="800" y="30">UNREGISTERED</text><text fill="#eeeeee" stroke="none" font-family="Arial" font-size="24px" font-style="normal" font-weight="normal" text-decoration="none" x="800" y="60">UNREGISTERED</text><text fill="#eeeeee" stroke="none" font-family="Arial" font-size="24px" font-style="normal" font-weight="normal" text-decoration="none" x="800" y="90">UNREGISTERED</text><text fill="#eeeeee" stroke="none" font-family="Arial" font-size="24px" font-style="normal" font-weight="normal" text-decoration="none" x="800" y="120">UNREGISTERED</text><text fill="#eeeeee" stroke="none" font-family="Arial" font-size="24px" font-style="normal" font-weight="normal" text-decoration="none" x="800" y="150">UNREGISTERED</text><text fill="#eeeeee" stroke="none" font-family="Arial" font-size="24px" font-style="normal" font-weight="normal" text-decoration="none" x="800" y="180">UNREGISTERED</text><text fill="#eeeeee" stroke="none" font-family="Arial" font-size="24px" font-style="normal" font-weight="normal" text-decoration="none" x="800" y="210">UNREGISTERED</text><text fill="#eeeeee" stroke="none" font-family="Arial" font-size="24px" font-style="normal" font-weight="normal" text-decoration="none" x="1000" y="0">UNREGISTERED</text><text fill="#eeeeee" stroke="none" font-family="Arial" font-size="24px" font-style="normal" font-weight="normal" text-decoration="none" x="1000" y="30">UNREGISTERED</text><text fill="#eeeeee" stroke="none" font-family="Arial" font-size="24px" font-style="normal" font-weight="normal" text-decoration="none" x="1000" y="60">UNREGISTERED</text><text fill="#eeeeee" stroke="none" font-family="Arial" font-size="24px" font-style="normal" font-weight="normal" text-decoration="none" x="1000" y="90">UNREGISTERED</text><text fill="#eeeeee" stroke="none" font-family="Arial" font-size="24px" font-style="normal" font-weight="normal" text-decoration="none" x="1000" y="120">UNREGISTERED</text><text fill="#eeeeee" stroke="none" font-family="Arial" font-size="24px" font-style="normal" font-weight="normal" text-decoration="none" x="1000" y="150">UNREGISTERED</text><text fill="#eeeeee" stroke="none" font-family="Arial" font-size="24px" font-style="normal" font-weight="normal" text-decoration="none" x="1000" y="180">UNREGISTERED</text><text fill="#eeeeee" stroke="none" font-family="Arial" font-size="24px" font-style="normal" font-weight="normal" text-decoration="none" x="1000" y="210">UNREGISTERED</text><g transform="translate(-134,-358) scale(1,1)"><path fill="#C0C0C0" stroke="none" d="M 151 416.5 C 151 411.2532944 155.2532944 407 160.5 407 C 165.7467056 407 170 411.2532944 170 416.5 C 170 421.7467056 165.7467056 426 160.5 426 C 155.2532944 426 151 421.7467056 151 416.5 Z" opacity="0.2"/></g><g transform="translate(-134,-358) scale(1,1)"><path fill="#000000" stroke="none" d="M 144 409.5 C 144 404.2532944 148.2532944 400 153.5 400 C 158.7467056 400 163 404.2532944 163 409.5 C 163 414.7467056 158.7467056 419 153.5 419 C 148.2532944 419 144 414.7467056 144 409.5 Z"/></g><g transform="translate(-134,-358) scale(1,1)"><path fill="#C0C0C0" stroke="none" d="M 401 383 L 581 383 Q 591 383 591 393 L 591 429 Q 591 439 581 439 L 401 439 Q 391 439 391 429 L 391 393 Q 391 383 401 383 Z" opacity="0.2"/></g><g transform="translate(-134,-358) scale(1,1)"><path fill="#ffffff" stroke="none" d="M 394 376 L 574 376 Q 584 376 584 386 L 584 422 Q 584 432 574 432 L 394 432 Q 384 432 384 422 L 384 386 Q 384 376 394 376 Z"/></g><g transform="translate(-134,-358) scale(1,1)"><path fill="none" stroke="#000000" d="M 394 376 L 574 376 Q 584 376 584 386 L 584 422 Q 584 432 574 432 L 394 432 Q 384 432 384 422 L 384 386 Q 384 376 394 376 Z" stroke-miterlimit="10"/></g><g transform="translate(-134,-358) scale(1,1)"><g><path fill="none" stroke="none"/><text fill="#000000" stroke="none" font-family="Arial" font-size="13px" font-style="normal" font-weight="bold" text-decoration="none" x="393.333251953125" y="394">Ação disponível para compra</text></g></g><g transform="translate(-134,-358) scale(1,1)"><path fill="none" stroke="#000000" d="M 164 409 L 383 406" stroke-miterlimit="10"/></g><g transform="translate(-134,-358) scale(1,1)"><path fill="none" stroke="#000000" d="M 372.895937750807 410.34832451231875 L 383 406 L 372.7806193166043 401.9300788155249" stroke-miterlimit="10"/></g><g transform="translate(-134,-358) scale(1,1)"><g><path fill="none" stroke="none"/><text fill="#000000" stroke="none" font-family="Arial" font-size="13px" font-style="normal" font-weight="normal" text-decoration="none" x="188.5" y="397">Ação disponibilizada pela B3</text></g></g><g transform="translate(-134,-358) scale(1,1)"><path fill="#C0C0C0" stroke="none" d="M 785 375 L 1022.54248046875 375 Q 1032.54248046875 375 1032.54248046875 385 L 1032.54248046875 421 Q 1032.54248046875 431 1022.54248046875 431 L 785 431 Q 775 431 775 421 L 775 385 Q 775 375 785 375 Z" opacity="0.2"/></g><g transform="translate(-134,-358) scale(1,1)"><path fill="#ffffff" stroke="none" d="M 778 368 L 1015.54248046875 368 Q 1025.54248046875 368 1025.54248046875 378 L 1025.54248046875 414 Q 1025.54248046875 424 1015.54248046875 424 L 778 424 Q 768 424 768 414 L 768 378 Q 768 368 778 368 Z"/></g><g transform="translate(-134,-358) scale(1,1)"><path fill="none" stroke="#000000" d="M 778 368 L 1015.54248046875 368 Q 1025.54248046875 368 1025.54248046875 378 L 1025.54248046875 414 Q 1025.54248046875 424 1015.54248046875 424 L 778 424 Q 768 424 768 414 L 768 378 Q 768 368 778 368 Z" stroke-miterlimit="10"/></g><g transform="translate(-134,-358) scale(1,1)"><g><path fill="none" stroke="none"/><text fill="#000000" stroke="none" font-family="Arial" font-size="13px" font-style="normal" font-weight="bold" text-decoration="none" x="772.5" y="386">Ação passa  para carteira do comprador</text></g></g><g transform="translate(-134,-358) scale(1,1)"><path fill="none" stroke="#000000" d="M 585 402 L 767 399" stroke-miterlimit="10"/></g><g transform="translate(-134,-358) scale(1,1)"><path fill="none" stroke="#000000" d="M 756.9080837232736 403.37643986175345 L 767 399 L 756.7693272618588 394.9585478692608" stroke-miterlimit="10"/></g><g transform="translate(-134,-358) scale(1,1)"><g><path fill="none" stroke="none"/><text fill="#000000" stroke="none" font-family="Arial" font-size="13px" font-style="normal" font-weight="normal" text-decoration="none" x="599.5" y="390">Recebe ordem de compra</text></g></g><g transform="translate(-134,-358) scale(1,1)"><path fill="#C0C0C0" stroke="none" d="M 855 539.5 L 900.5 503 L 945 539.5 L 900.5 575 L 855 539.5" opacity="0.2"/></g><g transform="translate(-134,-358) scale(1,1)"><path fill="#ffffff" stroke="none" d="M 848 532 L 893 496 L 938 532 L 893 568 L 848 532"/></g><g transform="translate(-134,-358) scale(1,1)"><path fill="none" stroke="#000000" d="M 848 532 L 893 496 L 938 532 L 893 568 L 848 532 L 848 532" stroke-miterlimit="10"/></g><g transform="translate(-134,-358) scale(1,1)"><path fill="#C0C0C0" stroke="none" d="M 1183 403.5 C 1183 396.59644 1188.59644 391 1195.5 391 C 1202.40356 391 1208 396.59644 1208 403.5 C 1208 410.40356 1202.40356 416 1195.5 416 C 1188.59644 416 1183 410.40356 1183 403.5 Z" opacity="0.2"/></g><g transform="translate(-134,-358) scale(1,1)"><path fill="none" stroke="#000000" d="M 1176 396.5 C 1176 389.59644 1181.59644 384 1188.5 384 C 1195.40356 384 1201 389.59644 1201 396.5 C 1201 403.40356 1195.40356 409 1188.5 409 C 1181.59644 409 1176 403.40356 1176 396.5 Z" stroke-miterlimit="10"/></g><g transform="translate(-134,-358) scale(1,1)"><path fill="#000000" stroke="none" d="M 1181 396.5 C 1181 392.357864 1184.357864 389 1188.5 389 C 1192.642136 389 1196 392.357864 1196 396.5 C 1196 400.642136 1192.642136 404 1188.5 404 C 1184.357864 404 1181 400.642136 1181 396.5 Z"/></g><g transform="translate(-134,-358) scale(1,1)"><path fill="none" stroke="#000000" d="M 1027 396 L 1175 396" stroke-miterlimit="10"/></g><g transform="translate(-134,-358) scale(1,1)"><path fill="none" stroke="#000000" d="M 1164.837325142376 400.209517756016 L 1175 396 L 1164.837325142376 391.790482243984" stroke-miterlimit="10"/></g><g transform="translate(-134,-358) scale(1,1)"><path fill="none" stroke="#000000" d="M 895 425 L 894 495" stroke-miterlimit="10"/></g><g transform="translate(-134,-358) scale(1,1)"><path fill="none" stroke="#000000" d="M 889.936077978144 484.7782321587568 L 894 495 L 898.3542545363899 484.8984918238746" stroke-miterlimit="10"/></g><g transform="translate(-134,-358) scale(1,1)"><path fill="#C0C0C0" stroke="none" d="M 1145 519 L 1245 519 Q 1255 519 1255 529 L 1255 557 Q 1255 567 1245 567 L 1145 567 Q 1135 567 1135 557 L 1135 529 Q 1135 519 1145 519 Z" opacity="0.2"/></g><g transform="translate(-134,-358) scale(1,1)"><path fill="#ffffff" stroke="none" d="M 1138 512 L 1238 512 Q 1248 512 1248 522 L 1248 550 Q 1248 560 1238 560 L 1138 560 Q 1128 560 1128 550 L 1128 522 Q 1128 512 1138 512 Z"/></g><g transform="translate(-134,-358) scale(1,1)"><path fill="none" stroke="#000000" d="M 1138 512 L 1238 512 Q 1248 512 1248 522 L 1248 550 Q 1248 560 1238 560 L 1138 560 Q 1128 560 1128 550 L 1128 522 Q 1128 512 1138 512 Z" stroke-miterlimit="10"/></g><g transform="translate(-134,-358) scale(1,1)"><g><path fill="none" stroke="none"/><text fill="#000000" stroke="none" font-family="Arial" font-size="13px" font-style="normal" font-weight="bold" text-decoration="none" x="1145.7373046875" y="530">Ação vendida</text></g></g><g transform="translate(-134,-358) scale(1,1)"><path fill="none" stroke="#000000" d="M 939 533 L 1127 535" stroke-miterlimit="10"/></g><g transform="translate(-134,-358) scale(1,1)"><path fill="none" stroke="#000000" d="M 1116.7931205957768 539.1011721285074 L 1127 535 L 1116.8826797356396 530.6826129814013" stroke-miterlimit="10"/></g><g transform="translate(-134,-358) scale(1,1)"><g><path fill="none" stroke="none"/><text fill="#000000" stroke="none" font-family="Arial" font-size="13px" font-style="normal" font-weight="normal" text-decoration="none" x="959.5" y="524">Comprador solicita venda</text></g></g><g transform="translate(-134,-358) scale(1,1)"><path fill="none" stroke="#000000" d="M 1188 511 L 1188 410" stroke-miterlimit="10"/></g><g transform="translate(-134,-358) scale(1,1)"><path fill="none" stroke="#000000" d="M 1192.2095177560159 420.16267485762415 L 1188 410 L 1183.7904822439841 420.16267485762415" stroke-miterlimit="10"/></g></g></svg>